<?xml version="1.0" encoding="UTF-8" standalone="no"?>
<!-- Created with Inkscape (http://www.inkscape.org/) -->

<svg
   xmlns:dc="http://purl.org/dc/elements/1.1/"
   xmlns:cc="http://creativecommons.org/ns#"
   xmlns:rdf="http://www.w3.org/1999/02/22-rdf-syntax-ns#"
   xmlns:svg="http://www.w3.org/2000/svg"
   xmlns="http://www.w3.org/2000/svg"
   xmlns:sodipodi="http://sodipodi.sourceforge.net/DTD/sodipodi-0.dtd"
   xmlns:inkscape="http://www.inkscape.org/namespaces/inkscape"
   width="881.52832"
   height="184.23372"
   id="svg2"
   version="1.1"
   inkscape:version="0.48.4 r9939"
   sodipodi:docname="JustSitStayProsper.pdf">
  <defs
     id="defs4">
    <clipPath
       clipPathUnits="userSpaceOnUse"
       id="clipPath2998">
      <rect
         style="color:#000000;fill:#ffffff;fill-opacity:1;fill-rule:nonzero;stroke:none;stroke-width:1.29808891;marker:none;visibility:visible;display:inline;overflow:visible;enable-background:accumulate"
         id="rect3000"
         width="1602.8572"
         height="571.42859"
         x="-1082.8572"
         y="909.50507" />
    </clipPath>
  </defs>
  <sodipodi:namedview
     id="base"
     pagecolor="#ffffff"
     bordercolor="#666666"
     borderopacity="1.0"
     inkscape:pageopacity="0.0"
     inkscape:pageshadow="2"
     inkscape:zoom="0.56347994"
     inkscape:cx="772.33826"
     inkscape:cy="114.55228"
     inkscape:document-units="px"
     inkscape:current-layer="layer1"
     showgrid="false"
     inkscape:window-width="1280"
     inkscape:window-height="658"
     inkscape:window-x="1272"
     inkscape:window-y="479"
     inkscape:window-maximized="1"
     fit-margin-top="0"
     fit-margin-left="0"
     fit-margin-right="0"
     fit-margin-bottom="0" />
  <metadata
     id="metadata7">
    <rdf:RDF>
      <cc:Work
         rdf:about="">
        <dc:format>image/svg+xml</dc:format>
        <dc:type
           rdf:resource="http://purl.org/dc/dcmitype/StillImage" />
        <dc:title></dc:title>
      </cc:Work>
    </rdf:RDF>
  </metadata>
  <g
     inkscape:label="Layer 1"
     inkscape:groupmode="layer"
     id="layer1"
     transform="translate(50.204553,-749.31656)">
    <g
       style="font-size:158.82167053px;font-style:normal;font-variant:normal;font-weight:normal;font-stretch:normal;text-indent:0;text-align:start;text-decoration:none;line-height:125%;letter-spacing:0px;word-spacing:0px;text-transform:none;direction:ltr;block-progression:tb;writing-mode:lr-tb;text-anchor:start;baseline-shift:baseline;color:#000000;fill:#000000;fill-opacity:1;fill-rule:nonzero;stroke:none;stroke-width:1px;marker:none;visibility:visible;display:inline;overflow:visible;enable-background:accumulate;font-family:Arial;-inkscape-font-specification:Arial"
       id="text4094">
      <path
         d="m 3.7942312,815.86384 c -0.106687,0.10669 -0.2133177,0.23917 -0.3198923,0.39745 -0.1066867,0.15838 -0.2117017,0.29086 -0.3150454,0.39744 -0.7432391,0.74001 -1.643945,1.48077 -2.7021204,2.22228 -1.0582815,0.74162 -2.1706331,1.37737 -3.3370581,1.90724 -0.6333712,0.21008 -1.2675004,0.39426 -1.9023897,0.55254 -0.6349849,0.15838 -1.2174144,0.23755 -1.7472904,0.23749 -2.2231336,6e-5 -3.9171069,-0.71405 -5.0819249,-2.1423 -1.1649,-1.42816 -1.69563,-3.14879 -1.592191,-5.1619 -4e-5,-0.20997 -4e-5,-0.39496 0,-0.55497 -4e-5,-0.15988 -4e-5,-0.29317 0,-0.39986 0.213222,-1.90314 1.034762,-3.54299 2.464624,-4.91956 1.4297786,-1.37644 3.0445867,-2.06469 4.8444296,-2.06476 0.5298753,7e-5 1.0331397,0.0792 1.5097946,0.2375 0.4765585,0.15839 0.9265076,0.34419 1.3498485,0.55739 0.6332719,-1.05978 1.1357285,-2.17213 1.5073712,-3.33706 0.3715406,-1.16479 0.60903616,-2.38216 0.71248736,-3.65211 0.10657888,-0.21318 0.1598942,-0.47814 0.15994614,-0.79488 -5.194e-5,-0.31659 -5.194e-5,-0.63486 0,-0.95483 -5.194e-5,-2.11638 -0.3708358,-4.15448 -1.1123527,-6.1143 -0.7416186,-1.95967 -1.8523545,-3.67949 -3.3322113,-5.15948 -0.7432308,-0.8465 -1.5914292,-1.42893 -2.5445977,-1.74729 -0.9532583,-0.31819 -1.9048561,-0.47733 -2.8547967,-0.47741 -0.529964,8e-5 -1.059886,0.0534 -1.589767,0.15994 -0.529963,0.10672 -1.059885,0.21174 -1.589768,0.31505 -1.906466,0.53001 -3.706262,1.35074 -5.399394,2.4622 -1.693199,1.11163 -3.228034,2.35565 -4.60451,3.73207 -0.846612,0.9533 -1.799825,2.03899 -2.859643,3.25709 -1.05987,1.21825 -2.171414,2.62061 -3.334635,4.20707 -1.376527,1.9065 -2.726374,3.99791 -4.049545,6.27425 -1.323208,2.27647 -2.46141,4.57953 -3.414608,6.90919 -1.5e-5,0.21332 -0.02667,0.39912 -0.07997,0.55739 -0.05333,0.15839 -0.133304,0.29087 -0.239919,0.39744 -0.316676,0.74001 -0.607487,1.55993 -0.872434,2.45978 -0.264975,0.89995 -0.450771,1.82651 -0.557388,2.77967 -1.3e-5,0.42334 -0.02586,0.81998 -0.07755,1.1899 -0.05171,0.37003 -0.07756,0.71496 -0.07755,1.0348 -1.3e-5,1.05667 0.131659,2.00907 0.395018,2.85722 0.263332,0.84825 0.713281,1.58901 1.349849,2.22228 0.423276,0.42334 0.873225,0.79413 1.349848,1.11236 0.476591,0.31832 1.03317,0.58409 1.669741,0.7973 1.693148,0.63337 3.439628,1.13583 5.239448,1.50737 1.799773,0.37164 3.599569,0.71577 5.399394,1.03238 0.316632,5e-5 0.607443,0.0267 0.872433,0.08 0.264932,0.0533 0.504043,0.13171 0.717335,0.23507 1.586504,0.2133 3.121339,0.45241 4.60451,0.71733 1.4831,0.26501 2.96462,0.60913 4.444564,1.03238 4.1294747,1.26992 7.2266105,3.49301 9.2914164,6.66927 2.0647085,3.17634 3.25703306,6.6176 3.57697728,10.3238 0.52986978,6.45925 -1.13825368,12.09775 -5.00437548,16.91551 -3.8662162,4.81778 -9.0273012,7.33168 -15.4832712,7.54171 -4.449438,0.10663 -8.57976,-1.03077 -12.390979,-3.41219 -3.811257,-2.38141 -6.140168,-5.95515 -6.986738,-10.72124 -0.106643,-0.42327 -0.159958,-0.81991 -0.159946,-1.1899 -1.2e-5,-0.36996 -1.2e-5,-0.76821 0,-1.19475 -1.2e-5,-0.21001 -1.2e-5,-0.39419 0,-0.55254 -1.2e-5,-0.15831 -1.2e-5,-0.34411 0,-0.55739 0.213249,-2.43633 1.060639,-4.71273 2.542174,-6.82921 1.481505,-2.11643 3.493755,-3.43962 6.036755,-3.96957 0.103379,2e-5 0.235051,-0.0266 0.395019,-0.08 0.159924,-0.0533 0.291597,-0.0799 0.395018,-0.08 0.106609,3e-5 0.239897,3e-5 0.399865,0 0.159924,3e-5 0.291597,3e-5 0.395019,0 1.059822,3e-5 2.039693,0.29165 2.939616,0.87486 0.899873,0.58326 1.668098,1.4565 2.304679,2.61972 0.210002,0.42332 0.368332,0.84661 0.474991,1.26988 0.106603,0.42331 0.159918,0.89992 0.159946,1.42982 -0.106659,1.58979 -0.609923,3.07292 -1.509794,4.44941 -0.899925,1.37652 -2.091442,2.32812 -3.574554,2.85479 0.423268,1.37652 1.296508,2.4089 2.619724,3.09714 1.323163,0.68827 2.726326,1.08571 4.209491,1.19233 0.213232,1e-5 0.399027,1e-5 0.557388,0 0.1583,1e-5 0.344096,1e-5 0.557388,0 0.846552,1e-5 1.61397,-0.0792 2.302255,-0.2375 0.688219,-0.15832 1.295691,-0.34411 1.822417,-0.55738 1.802992,-0.63331 3.23362,-1.82402 4.291888,-3.57214 1.058189,-1.74808 1.640619,-3.62704 1.747291,-5.63688 0.103358,-0.31988 0.155057,-0.66481 0.155099,-1.03481 -4.2e-5,-0.36995 -4.2e-5,-0.76659 0,-1.1899 -4.2e-5,-0.10661 -4.2e-5,-0.21243 0,-0.31747 -4.2e-5,-0.10499 -4.2e-5,-0.21081 0,-0.31747 -0.103441,-1.58974 -0.525925,-3.07288 -1.267452,-4.44941 -0.741608,-1.37648 -1.958975,-2.32807 -3.652104,-2.85479 -1.589802,-0.4265 -3.152103,-0.79809 -4.686906,-1.11478 -1.534867,-0.31663 -3.148868,-0.58159 -4.842006,-0.79488 -1.376532,-0.31663 -2.779694,-0.58079 -4.209492,-0.79247 -1.429843,-0.21161 -2.88632,-0.52908 -4.369437,-0.9524 -2.013076,-0.52989 -3.972011,-1.19148 -5.876809,-1.98479 -1.904824,-0.79323 -3.652113,-2.03806 -5.241872,-3.7345 -1.693172,-1.79975 -2.936389,-3.75869 -3.729653,-5.87681 -0.793271,-2.11802 -1.189905,-4.3403 -1.189902,-6.66684 -3e-6,-0.95316 0.0525,-1.90638 0.157523,-2.85965 0.105012,-0.95315 0.26415,-1.90637 0.477415,-2.85964 0.210027,-0.95315 0.47418,-1.87971 0.79246,-2.77967 0.318273,-0.89984 0.635741,-1.82639 0.952407,-2.77967 -5e-6,-0.10657 0.02665,-0.23905 0.07997,-0.39744 0.05331,-0.15827 0.133283,-0.29075 0.239919,-0.39744 1.056608,-2.85958 2.378989,-5.6651 3.967149,-8.41656 1.588141,-2.75132 3.1771,-5.29188 4.766879,-7.62168 1.376491,-1.79971 2.673023,-3.44118 3.8896,-4.9244 1.216541,-1.48305 2.354742,-2.75454 3.414608,-3.81447 2.542958,-2.53966 5.560929,-4.76275 9.05392,-6.66927 3.492932,-1.90633 7.039209,-2.96456 10.638842,-3.17469 0.319851,10e-5 0.58562,10e-5 0.797307,0 0.211605,10e-5 0.422442,10e-5 0.632515,0 2.3296757,10e-5 4.5802288,0.42339 6.7516656,1.26987 2.1713389,0.84668 4.20863063,2.22319 6.1118813,4.12952 2.5429245,2.53984 4.4493513,5.47784 5.7192863,8.814 1.2698133,3.33634 1.9047508,6.75094 1.9048128,10.24383 -6.2e-5,3.06974 -0.5291767,6.11356 -1.587344,9.13147 -1.0582896,3.01803 -2.6456323,5.74519 -4.7620328,8.18148 z"
         style="marker:none;font-family:BoyzRGross;-inkscape-font-specification:BoyzRGross"
         id="path4165"
         inkscape:connector-curvature="0" />
      <path
         d="m 39.641555,863.66835 c -0.106661,1.26989 -0.583268,2.40809 -1.429821,3.41461 -0.846612,1.00654 -2.064787,1.5098 -3.654527,1.5098 -0.103425,0 -0.20844,0 -0.315046,0 -0.106656,0 -0.159971,-0.0533 -0.159946,-0.15995 -0.106656,0 -0.212479,0 -0.317469,0 -0.10504,0 -0.210862,0 -0.317468,0 l -14.768361,-1.58977 c -1.799806,-0.10339 -3.097145,-0.71167 -3.892023,-1.82484 -0.794889,-1.11315 -1.19233,-2.30467 -1.192325,-3.57455 -5e-6,-0.10662 -5e-6,-0.18579 0,-0.2375 -5e-6,-0.0517 -5e-6,-0.13085 0,-0.23749 0.106626,-1.3765 0.715713,-2.56801 1.827263,-3.57456 1.111537,-1.00651 2.620523,-1.40314 4.526961,-1.1899 l 2.224705,0.15995 -0.95483,-20.17261 -1.749714,0.15995 c -2.009837,0.10667 -3.518014,-0.34328 -4.524537,-1.34985 -1.006535,-1.00649 -1.561499,-2.198 -1.664894,-3.57455 -4e-6,4e-5 -4e-6,-0.0266 0,-0.08 -4e-6,-0.0533 -4e-6,-0.13325 0,-0.23992 -4e-6,-0.10336 -4e-6,-0.18172 0,-0.23508 -4e-6,-0.0533 -4e-6,-0.0799 0,-0.08 -4e-6,-1.37646 0.449945,-2.56798 1.349849,-3.57455 0.899892,-1.00649 2.196424,-1.56145 3.889599,-1.6649 l 7.304207,-0.79488 c 1.483119,-0.10658 2.807116,0.39587 3.971996,1.50737 1.164838,1.11159 1.800583,2.40893 1.907237,3.89202 l 1.269875,27.47681 1.584921,0.15995 c 1.79977,0.10341 3.09711,0.68503 3.892023,1.74486 0.794853,1.05986 1.192295,2.22472 1.192325,3.49459 -3e-5,10e-6 -3e-5,0.0267 0,0.08 -3e-5,0.0533 -3e-5,0.13168 0,0.23507 -3e-5,0.10664 -3e-5,0.18661 0,0.23992 -3e-5,0.0533 -3e-5,0.08 0,0.08 z m -7.304207,-52.09397 c -2.3e-5,2.53981 -0.741591,4.68373 -2.224705,6.43177 -1.483157,1.74816 -3.282953,2.6222 -5.399394,2.62215 -2.013073,5e-5 -3.760362,-0.87399 -5.241871,-2.62215 -1.481531,-1.74804 -2.222291,-3.89196 -2.222282,-6.43177 -9e-6,-2.43629 0.740751,-4.5277 2.222282,-6.27425 1.481509,-1.74641 3.228798,-2.61965 5.241871,-2.61972 2.116441,7e-5 3.916237,0.87331 5.399394,2.61972 1.483114,1.74655 2.224682,3.83796 2.224705,6.27425 z"
         style="marker:none;font-family:BoyzRGross;-inkscape-font-specification:BoyzRGross"
         id="path4167"
         inkscape:connector-curvature="0" />
      <path
         d="m 84.130815,847.31023 c 0.316618,4.86949 -1.113202,9.26316 -4.289464,13.18101 -3.17634,3.91788 -7.305854,5.87682 -12.388556,5.87681 -6.98595,10e-6 -12.305365,-2.38222 -15.958263,-7.14668 -3.652918,-4.76444 -5.637702,-10.37628 -5.954358,-16.83555 -0.106635,-2.43632 -0.213266,-7.7832 -0.319892,-16.04066 -0.106635,-8.25736 -0.15995,-17.15214 -0.159947,-26.68434 -3e-6,-2.96297 -0.02666,-5.90016 -0.07997,-8.81158 -0.05332,-2.91126 -0.07998,-5.74343 -0.07997,-8.49654 l -20.642745,1.42983 c -1.79978,0.10349 -3.2296,-0.34727 -4.289465,-1.35228 -1.059823,-1.00482 -1.64306,-2.19553 -1.749714,-3.57213 -0.103377,-1.48304 0.268215,-2.80703 1.114776,-3.97199 0.846605,-1.16476 2.328125,-1.80051 4.444564,-1.90724 l 20.967485,-1.74487 c -4e-6,-4.76596 -4e-6,-8.63132 0,-11.59609 -4e-6,-2.96454 -4e-6,-4.44687 0,-4.44699 -4e-6,-1.90308 0.502453,-3.33128 1.507371,-4.28462 1.004908,-0.95309 2.090602,-1.48301 3.257085,-1.58976 0.103391,1.2e-4 0.181749,1.2e-4 0.235073,0 0.05331,1.2e-4 0.133279,1.2e-4 0.239919,0 1.483126,1.2e-4 2.780466,0.47673 3.892023,1.42982 1.111531,0.95333 1.667303,2.38315 1.667317,4.28946 -1.4e-5,0.10352 -1.4e-5,1.55838 0,4.36459 -1.4e-5,2.80644 -1.4e-5,6.48601 0,11.03871 l 17.153012,-1.26987 c 2.009794,-0.10653 3.54463,0.34342 4.60451,1.34984 1.059808,1.00664 1.643045,2.19815 1.749714,3.57456 0.103361,1.3766 -0.294888,2.67313 -1.194749,3.8896 -0.899935,1.21665 -2.303098,1.87825 -4.209492,1.98478 l -17.943049,1.42982 c -1.5e-5,2.75311 -1.5e-5,5.6386 0,8.65648 -1.5e-5,3.01806 -1.5e-5,6.00856 0,8.97153 0.103385,4.44948 0.181742,8.84476 0.235072,13.18586 0.0533,4.34122 0.07996,8.3633 0.07997,12.06624 0.106615,4.23619 0.186588,7.88991 0.239919,10.96116 0.0533,3.07132 0.07996,5.2419 0.07997,6.51175 0.210015,3.49299 1.109105,6.64263 2.697273,9.44893 1.588133,2.80635 4.39365,4.20951 8.41656,4.2095 1.059818,10e-6 2.013031,-0.26495 2.859643,-0.79489 0.846554,-0.5299 1.483106,-1.21815 1.90966,-2.06476 -0.426554,0.31668 -0.87731,0.52833 -1.352272,0.63494 -0.475021,0.10665 -0.977477,0.15997 -1.507371,0.15995 -2.543008,2e-5 -4.66108,-0.97905 -6.354224,-2.9372 -1.693187,-1.9581 -2.593085,-4.10202 -2.699697,-6.43177 -0.10665,-3.38953 0.739933,-6.30168 2.539751,-8.73645 1.799774,-2.4347 4.394454,-3.54705 7.784046,-3.33706 3.809592,0.10667 6.932578,1.69563 9.368966,4.76688 2.43631,3.07132 3.812815,6.46008 4.129518,10.16627 -4.3e-5,0.10343 -4.3e-5,0.18179 0,0.23508 -4.3e-5,0.0533 -4.3e-5,0.13331 0,0.23992 z"
         style="marker:none;font-family:BoyzRGross;-inkscape-font-specification:BoyzRGross"
         id="path4169"
         inkscape:connector-curvature="0" />
      <path
         d="m 103.22742,863.8283 c -2e-5,2.32973 -0.81994,4.31451 -2.45978,5.95436 -1.639861,1.63985 -3.57133,2.45978 -5.794408,2.45978 -2.329727,0 -4.315319,-0.81993 -5.956782,-2.45978 -1.641469,-1.63985 -2.462202,-3.62463 -2.462201,-5.95436 -10e-7,-2.32971 0.820732,-4.26199 2.462201,-5.79684 1.641463,-1.53482 3.627055,-2.30223 5.956782,-2.30225 2.223078,2e-5 4.154547,0.76743 5.794408,2.30225 1.63984,1.53485 2.45976,3.46713 2.45978,5.79684 z"
         style="marker:none;font-family:BoyzRGross;-inkscape-font-specification:BoyzRGross"
         id="path4171"
         inkscape:connector-curvature="0" />
      <path
         d="m 198.59893,815.86384 c -0.10668,0.10669 -0.21331,0.23917 -0.31989,0.39745 -0.10669,0.15838 -0.2117,0.29086 -0.31504,0.39744 -0.74324,0.74001 -1.64395,1.48077 -2.70212,2.22228 -1.05829,0.74162 -2.17064,1.37737 -3.33706,1.90724 -0.63337,0.21008 -1.2675,0.39426 -1.90239,0.55254 -0.63499,0.15838 -1.21742,0.23755 -1.74729,0.23749 -2.22314,6e-5 -3.91711,-0.71405 -5.08193,-2.1423 -1.1649,-1.42816 -1.69563,-3.14879 -1.59219,-5.1619 -4e-5,-0.20997 -4e-5,-0.39496 0,-0.55497 -4e-5,-0.15988 -4e-5,-0.29317 0,-0.39986 0.21322,-1.90314 1.03476,-3.54299 2.46463,-4.91956 1.42977,-1.37644 3.04458,-2.06469 4.84443,-2.06476 0.52987,7e-5 1.03314,0.0792 1.50979,0.2375 0.47656,0.15839 0.92651,0.34419 1.34985,0.55739 0.63327,-1.05978 1.13573,-2.17213 1.50737,-3.33706 0.37154,-1.16479 0.60904,-2.38216 0.71249,-3.65211 0.10658,-0.21318 0.15989,-0.47814 0.15994,-0.79488 -5e-5,-0.31659 -5e-5,-0.63486 0,-0.95483 -5e-5,-2.11638 -0.37083,-4.15448 -1.11235,-6.1143 -0.74162,-1.95967 -1.85235,-3.67949 -3.33221,-5.15948 -0.74323,-0.8465 -1.59143,-1.42893 -2.5446,-1.74729 -0.95326,-0.31819 -1.90485,-0.47733 -2.85479,-0.47741 -0.52997,8e-5 -1.05989,0.0534 -1.58977,0.15994 -0.52996,0.10672 -1.05989,0.21174 -1.58977,0.31505 -1.90647,0.53001 -3.70626,1.35074 -5.39939,2.4622 -1.6932,1.11163 -3.22804,2.35565 -4.60451,3.73207 -0.84662,0.9533 -1.79983,2.03899 -2.85965,3.25709 -1.05987,1.21825 -2.17141,2.62061 -3.33463,4.20707 -1.37653,1.9065 -2.72638,3.99791 -4.04955,6.27425 -1.32321,2.27647 -2.46141,4.57953 -3.41461,6.90919 -1e-5,0.21332 -0.0267,0.39912 -0.08,0.55739 -0.0533,0.15839 -0.1333,0.29087 -0.23992,0.39744 -0.31667,0.74001 -0.60748,1.55993 -0.87243,2.45978 -0.26498,0.89995 -0.45077,1.82651 -0.55739,2.77967 -1e-5,0.42334 -0.0259,0.81998 -0.0776,1.1899 -0.0517,0.37003 -0.0776,0.71496 -0.0776,1.0348 -1e-5,1.05667 0.13166,2.00907 0.39502,2.85722 0.26333,0.84825 0.71328,1.58901 1.34985,2.22228 0.42327,0.42334 0.87322,0.79413 1.34985,1.11236 0.47659,0.31832 1.03317,0.58409 1.66974,0.7973 1.69315,0.63337 3.43963,1.13583 5.23945,1.50737 1.79977,0.37164 3.59956,0.71577 5.39939,1.03238 0.31663,5e-5 0.60744,0.0267 0.87243,0.08 0.26493,0.0533 0.50405,0.13171 0.71734,0.23507 1.5865,0.2133 3.12134,0.45241 4.60451,0.71733 1.4831,0.26501 2.96462,0.60913 4.44456,1.03238 4.12948,1.26992 7.22661,3.49301 9.29142,6.66927 2.06471,3.17634 3.25703,6.6176 3.57698,10.3238 0.52987,6.45925 -1.13826,12.09775 -5.00438,16.91551 -3.86622,4.81778 -9.0273,7.33168 -15.48327,7.54171 -4.44944,0.10663 -8.57976,-1.03077 -12.39098,-3.41219 -3.81126,-2.38141 -6.14017,-5.95515 -6.98674,-10.72124 -0.10664,-0.42327 -0.15996,-0.81991 -0.15994,-1.1899 -2e-5,-0.36996 -2e-5,-0.76821 0,-1.19475 -2e-5,-0.21001 -2e-5,-0.39419 0,-0.55254 -2e-5,-0.15831 -2e-5,-0.34411 0,-0.55739 0.21324,-2.43633 1.06064,-4.71273 2.54217,-6.82921 1.4815,-2.11643 3.49375,-3.43962 6.03675,-3.96957 0.10338,2e-5 0.23506,-0.0266 0.39502,-0.08 0.15993,-0.0533 0.2916,-0.0799 0.39502,-0.08 0.10661,3e-5 0.2399,3e-5 0.39987,0 0.15992,3e-5 0.29159,3e-5 0.39502,0 1.05982,3e-5 2.03969,0.29165 2.93961,0.87486 0.89987,0.58326 1.6681,1.4565 2.30468,2.61972 0.21,0.42332 0.36833,0.84661 0.47499,1.26988 0.1066,0.42331 0.15992,0.89992 0.15995,1.42982 -0.10666,1.58979 -0.60993,3.07292 -1.5098,4.44941 -0.89992,1.37652 -2.09144,2.32812 -3.57455,2.85479 0.42327,1.37652 1.29651,2.4089 2.61972,3.09714 1.32317,0.68827 2.72633,1.08571 4.2095,1.19233 0.21323,1e-5 0.39902,1e-5 0.55738,0 0.1583,1e-5 0.3441,1e-5 0.55739,0 0.84655,1e-5 1.61397,-0.0792 2.30226,-0.2375 0.68822,-0.15832 1.29569,-0.34411 1.82241,-0.55738 1.803,-0.63331 3.23362,-1.82402 4.29189,-3.57214 1.05819,-1.74808 1.64062,-3.62704 1.74729,-5.63688 0.10336,-0.31988 0.15506,-0.66481 0.1551,-1.03481 -4e-5,-0.36995 -4e-5,-0.76659 0,-1.1899 -4e-5,-0.10661 -4e-5,-0.21243 0,-0.31747 -4e-5,-0.10499 -4e-5,-0.21081 0,-0.31747 -0.10344,-1.58974 -0.52592,-3.07288 -1.26745,-4.44941 -0.74161,-1.37648 -1.95898,-2.32807 -3.6521,-2.85479 -1.58981,-0.4265 -3.15211,-0.79809 -4.68691,-1.11478 -1.53487,-0.31663 -3.14887,-0.58159 -4.84201,-0.79488 -1.37653,-0.31663 -2.77969,-0.58079 -4.20949,-0.79247 -1.42984,-0.21161 -2.88632,-0.52908 -4.36944,-0.9524 -2.01307,-0.52989 -3.97201,-1.19148 -5.87681,-1.98479 -1.90482,-0.79323 -3.65211,-2.03806 -5.24187,-3.7345 -1.69317,-1.79975 -2.93639,-3.75869 -3.72965,-5.87681 -0.79327,-2.11802 -1.1899,-4.3403 -1.1899,-6.66684 0,-0.95316 0.0525,-1.90638 0.15752,-2.85965 0.10501,-0.95315 0.26415,-1.90637 0.47742,-2.85964 0.21002,-0.95315 0.47418,-1.87971 0.79246,-2.77967 0.31827,-0.89984 0.63574,-1.82639 0.9524,-2.77967 0,-0.10657 0.0267,-0.23905 0.08,-0.39744 0.0533,-0.15827 0.13328,-0.29075 0.23991,-0.39744 1.05661,-2.85958 2.37899,-5.6651 3.96715,-8.41656 1.58814,-2.75132 3.1771,-5.29188 4.76688,-7.62168 1.37649,-1.79971 2.67303,-3.44118 3.8896,-4.9244 1.21654,-1.48305 2.35475,-2.75454 3.41461,-3.81447 2.54296,-2.53966 5.56093,-4.76275 9.05392,-6.66927 3.49293,-1.90633 7.03921,-2.96456 10.63884,-3.17469 0.31985,10e-5 0.58562,10e-5 0.79731,0 0.2116,10e-5 0.42244,10e-5 0.63251,0 2.32968,10e-5 4.58023,0.42339 6.75167,1.26987 2.17134,0.84668 4.20863,2.22319 6.11188,4.12952 2.54293,2.53984 4.44935,5.47784 5.71929,8.814 1.26981,3.33634 1.90475,6.75094 1.90481,10.24383 -6e-5,3.06974 -0.52918,6.11356 -1.58734,9.13147 -1.05829,3.01803 -2.64564,5.74519 -4.76204,8.18148 z"
         style="marker:none;font-family:BoyzRGross;-inkscape-font-specification:BoyzRGross"
         id="path4173"
         inkscape:connector-curvature="0" />
      <path
         d="m 246.67488,847.31023 c 0.31661,4.86949 -1.11321,9.26316 -4.28947,13.18101 -3.17634,3.91788 -7.30585,5.87682 -12.38856,5.87681 -6.98594,10e-6 -12.30536,-2.38222 -15.95826,-7.14668 -3.65292,-4.76444 -5.6377,-10.37628 -5.95436,-16.83555 -0.10663,-2.43632 -0.21326,-7.7832 -0.31989,-16.04066 -0.10663,-8.25736 -0.15995,-17.15214 -0.15994,-26.68434 -1e-5,-2.96297 -0.0267,-5.90016 -0.08,-8.81158 -0.0533,-2.91126 -0.08,-5.74343 -0.08,-8.49654 l -20.64275,1.42983 c -1.79978,0.10349 -3.2296,-0.34727 -4.28946,-1.35228 -1.05982,-1.00482 -1.64306,-2.19553 -1.74972,-3.57213 -0.10337,-1.48304 0.26822,-2.80703 1.11478,-3.97199 0.84661,-1.16476 2.32813,-1.80051 4.44456,-1.90724 l 20.96749,-1.74487 c 0,-4.76596 0,-8.63132 0,-11.59609 0,-2.96454 0,-4.44687 0,-4.44699 0,-1.90308 0.50245,-3.33128 1.50737,-4.28462 1.00491,-0.95309 2.0906,-1.48301 3.25709,-1.58976 0.10339,1.2e-4 0.18174,1.2e-4 0.23507,0 0.0533,1.2e-4 0.13328,1.2e-4 0.23992,0 1.48312,1.2e-4 2.78046,0.47673 3.89202,1.42982 1.11153,0.95333 1.6673,2.38315 1.66732,4.28946 -2e-5,0.10352 -2e-5,1.55838 0,4.36459 -2e-5,2.80644 -2e-5,6.48601 0,11.03871 l 17.15301,-1.26987 c 2.00979,-0.10653 3.54463,0.34342 4.60451,1.34984 1.05981,1.00664 1.64304,2.19815 1.74971,3.57456 0.10336,1.3766 -0.29488,2.67313 -1.19475,3.8896 -0.89993,1.21665 -2.30309,1.87825 -4.20949,1.98478 l -17.94305,1.42982 c -1e-5,2.75311 -1e-5,5.6386 0,8.65648 -1e-5,3.01806 -1e-5,6.00856 0,8.97153 0.10339,4.44948 0.18175,8.84476 0.23508,13.18586 0.0533,4.34122 0.0799,8.3633 0.08,12.06624 0.10662,4.23619 0.18659,7.88991 0.23992,10.96116 0.0533,3.07132 0.08,5.2419 0.08,6.51175 0.21002,3.49299 1.10911,6.64263 2.69728,9.44893 1.58813,2.80635 4.39364,4.20951 8.41655,4.2095 1.05982,10e-6 2.01304,-0.26495 2.85965,-0.79489 0.84655,-0.5299 1.4831,-1.21815 1.90966,-2.06476 -0.42656,0.31668 -0.87731,0.52833 -1.35227,0.63494 -0.47502,0.10665 -0.97748,0.15997 -1.50738,0.15995 -2.543,2e-5 -4.66108,-0.97905 -6.35422,-2.9372 -1.69319,-1.9581 -2.59308,-4.10202 -2.6997,-6.43177 -0.10665,-3.38953 0.73994,-6.30168 2.53975,-8.73645 1.79978,-2.4347 4.39446,-3.54705 7.78405,-3.33706 3.80959,0.10667 6.93258,1.69563 9.36897,4.76688 2.43631,3.07132 3.81281,6.46008 4.12952,10.16627 -5e-5,0.10343 -5e-5,0.18179 0,0.23508 -5e-5,0.0533 -5e-5,0.13331 0,0.23992 z"
         style="marker:none;font-family:BoyzRGross;-inkscape-font-specification:BoyzRGross"
         id="path4175"
         inkscape:connector-curvature="0" />
      <path
         d="m 298.96755,853.81955 c -5e-5,0.42331 -0.0267,0.82075 -0.08,1.19232 -0.0534,0.37161 -0.13334,0.76906 -0.23992,1.19233 -0.31671,2.43313 -1.2158,4.62956 -2.69727,6.5893 -1.48157,1.95975 -3.59883,2.93962 -6.3518,2.93961 -1.37655,-0.10662 -2.62057,-0.53072 -3.73208,-1.2723 -1.11158,-0.74156 -1.98563,-1.64065 -2.62215,-2.69727 -1.16328,0.63333 -2.38064,1.1883 -3.6521,1.66489 -1.27152,0.47662 -2.59552,0.82155 -3.972,1.03481 -0.84661,0.21004 -1.69319,0.34171 -2.53975,0.39502 -0.8466,0.0533 -1.69319,0.08 -2.53975,0.08 -0.84983,10e-6 -1.7772,-0.0525 -2.78209,-0.15752 -1.00493,-0.10501 -1.984,-0.26415 -2.93719,-0.47742 -3.49298,-0.84657 -6.69594,-2.43472 -9.60889,-4.76446 -2.91296,-2.3297 -4.36944,-5.40099 -4.36944,-9.21386 0,-4.02286 1.45648,-7.19916 4.36944,-9.52891 2.91295,-2.32969 6.11591,-3.91784 9.60889,-4.76446 0.95319,-0.20999 1.93226,-0.36832 2.93719,-0.47499 1.00489,-0.1066 1.93226,-0.15991 2.78209,-0.15995 0.73993,4e-5 1.48069,0.0267 2.22228,0.08 0.74155,0.0534 1.48231,0.18665 2.22229,0.39987 1.05981,0.21007 2.06634,0.47422 3.01959,0.79246 0.95318,0.31831 1.90478,0.6891 2.85479,1.11235 -3e-5,-0.74315 -3e-5,-1.48471 0,-2.2247 -3e-5,-0.73992 -3e-5,-1.48148 0,-2.22471 -3e-5,-5.29272 -3e-5,-10.16299 0,-14.61084 -3e-5,-4.44773 -3e-5,-6.67163 0,-6.67169 -3e-5,-2.75295 -0.84661,-5.2935 -2.53975,-7.62167 -1.69319,-2.32804 -4.02291,-3.49209 -6.98916,-3.49216 -2.85643,7e-5 -5.15869,1.16412 -6.90677,3.49216 -1.74811,2.32817 -2.62216,4.86872 -2.62214,7.62167 -2e-5,0.10669 0.0533,0.345 0.15994,0.71491 0.10662,0.37004 0.21325,0.81999 0.3199,1.34985 0.10338,6e-5 0.18174,6e-5 0.23507,0 0.0533,6e-5 0.13327,-0.0516 0.23992,-0.1551 0.10661,6e-5 0.23909,6e-5 0.39744,0 0.15831,6e-5 0.29079,6e-5 0.39744,0 2.00981,6e-5 3.59715,0.76748 4.76203,2.30226 1.16484,1.53489 1.80059,3.2022 1.90724,5.00195 -2e-5,0.10668 -2e-5,0.18585 0,0.23749 -2e-5,0.0518 -2e-5,0.13092 0,0.2375 -2e-5,2.01311 -0.58245,3.81371 -1.74729,5.40182 -1.16488,1.58819 -2.80554,2.38227 -4.92198,2.38223 -2.54299,4e-5 -4.66107,-1.08565 -6.35422,-3.25709 -1.69318,-2.17134 -2.96305,-4.52691 -3.80963,-7.06671 -0.4233,-1.37645 -0.74157,-2.67379 -0.95483,-3.89202 -0.21326,-1.21812 -0.3199,-2.30381 -0.31989,-3.25709 -1e-5,-5.50596 1.82645,-10.32372 5.47937,-14.45331 3.65289,-4.12944 8.23236,-6.1942 13.7384,-6.19428 5.61263,8e-5 10.21875,2.06484 13.81838,6.19428 3.59955,4.12959 5.39935,8.94735 5.39939,14.45331 -4e-5,6e-5 -4e-5,2.14479 0,6.4342 -4e-5,4.28951 -4e-5,9.02731 0,14.21339 -4e-5,1.69321 -4e-5,3.38718 0,5.08193 -4e-5,1.69482 -4e-5,3.33709 0,4.92683 -4e-5,1.37653 -4e-5,2.6464 0,3.80962 -4e-5,1.16327 -4e-5,2.2215 0,3.17469 0.42325,-0.21001 0.92651,-0.42084 1.5098,-0.63251 0.58319,-0.21163 1.2981,-0.31745 2.14473,-0.31747 2.4363,0.10342 3.83946,0.68504 4.20949,1.74486 0.36992,1.05987 0.55491,2.17141 0.55496,3.33464 z m -18.10784,-3.49458 c -3e-5,-1.16322 -0.58165,-2.08897 -1.74487,-2.77725 -1.16327,-0.68823 -2.43314,-1.244 -3.80962,-1.66732 -0.95324,-0.21323 -1.85395,-0.37237 -2.70212,-0.47741 -0.84822,-0.10499 -1.53567,-0.1575 -2.06234,-0.15752 -0.52994,2e-5 -1.219,0.0525 -2.06718,0.15752 -0.84822,0.10504 -1.74892,0.31749 -2.70212,0.63736 -1.37652,0.31669 -2.62055,0.81914 -3.73208,1.50737 -1.11155,0.68828 -1.66733,1.61403 -1.66731,2.77725 -2e-5,1.05986 0.55576,1.93391 1.66731,2.62214 1.11153,0.68828 2.35556,1.19073 3.73208,1.50738 0.9532,0.31991 1.8539,0.53236 2.70212,0.63736 0.84818,0.10503 1.53724,0.15754 2.06718,0.15752 0.52667,2e-5 1.21412,-0.0525 2.06234,-0.15752 0.84817,-0.105 1.74888,-0.26414 2.70212,-0.47742 1.37648,-0.42327 2.64635,-0.97904 3.80962,-1.66732 1.16322,-0.68823 1.74484,-1.56228 1.74487,-2.62214 z"
         style="marker:none;font-family:BoyzRGross;-inkscape-font-specification:BoyzRGross"
         id="path4177"
         inkscape:connector-curvature="0" />
      <path
         d="m 354.39618,810.14456 c -5e-5,1.37657 -0.47666,2.59393 -1.42982,3.6521 -0.95327,1.05829 -2.38309,1.5874 -4.28947,1.58735 l -3.17468,0 -3.01959,104.34789 c -0.10667,3.91621 -1.43067,7.19833 -3.972,9.84638 -2.5414,2.64794 -5.82352,3.97194 -9.84638,3.972 -0.31669,-6e-5 -0.66081,-6e-5 -1.03238,0 -0.37162,-6e-5 -0.76906,-0.0534 -1.19233,-0.15995 -5.29278,-0.63661 -10.10974,-3.07215 -14.45089,-7.30663 -4.34117,-4.23458 -7.51828,-8.8399 -9.53133,-13.81595 -0.1034,-0.42333 -0.23508,-0.82078 -0.39502,-1.19233 -0.15995,-0.37163 -0.29162,-0.76907 -0.39502,-1.19233 -0.21326,-1.05665 -0.39906,-2.08822 -0.55739,-3.09471 -0.15833,-1.00656 -0.23749,-1.98643 -0.23749,-2.93962 0.1034,-2.53978 0.6317,-4.81537 1.58492,-6.82679 0.95321,-2.01147 2.43634,-3.54711 4.44941,-4.60693 0.84658,-0.42331 1.71982,-0.71412 2.61972,-0.87244 0.89989,-0.15835 1.87976,-0.23751 2.93962,-0.23749 0.9532,-2e-5 1.95892,0.0791 3.01716,0.23749 1.05822,0.15832 2.11725,0.39581 3.17712,0.71249 0.21001,0.10661 0.4475,0.21244 0.71248,0.31747 0.26495,0.105 0.50406,0.21082 0.71734,0.31747 2.22307,0.95319 4.23451,2.38301 6.03433,4.28946 1.79977,1.90641 2.64635,4.02448 2.53975,6.35423 -3e-5,0.10337 -3e-5,0.18172 0,0.23507 -3e-5,0.0533 -3e-5,0.13326 0,0.23992 -3e-5,-3e-5 -3e-5,0.0266 0,0.08 -3e-5,0.0533 -3e-5,0.13326 0,0.23992 -0.31669,1.79977 -1.18993,3.38792 -2.61972,4.76446 -1.42985,1.37647 -3.09797,2.11642 -5.00438,2.21986 -0.10665,-4e-5 -0.23913,-4e-5 -0.39744,0 -0.15835,-4e-5 -0.34253,-4e-5 -0.55254,0 -1.90645,-4e-5 -3.62708,-0.66164 -5.1619,-1.98479 -1.53485,-1.32323 -2.51553,-2.93803 -2.94204,-4.84443 -0.10341,-0.21006 -0.15511,-0.4209 -0.1551,-0.63251 -10e-6,-0.21168 -10e-6,-0.42413 0,-0.63737 -10e-6,-0.10666 -10e-6,-0.18582 0,-0.23749 -10e-6,-0.0517 0.0517,-0.1309 0.1551,-0.2375 -10e-6,-0.10666 -10e-6,-0.18663 0,-0.23992 -10e-6,-0.0533 -10e-6,-0.1317 0,-0.23507 l -0.1551,0.1551 c -0.10664,0.1066 -0.18661,0.26574 -0.23992,0.47742 -0.0533,0.21161 -0.08,0.47576 -0.08,0.79246 -10e-6,0.42649 0.0533,0.87725 0.15994,1.35227 0.10662,0.47496 0.21164,0.97741 0.31505,1.50737 0.21325,0.74315 0.47902,1.48472 0.79731,2.2247 0.31826,0.73992 0.68905,1.48149 1.11235,2.22471 1.58652,2.75297 3.62381,5.29434 6.11188,7.6241 2.48803,2.32967 5.10856,3.65286 7.8616,3.96957 0.21323,-5e-5 0.37237,-5e-5 0.47741,0 0.10499,-5e-5 0.21081,-5e-5 0.31747,0 1.16645,-5e-5 1.96133,-0.29167 2.38465,-0.87486 0.42326,-0.58328 0.63491,-1.45652 0.63494,-2.61972 l 1.74487,-57.17832 c -0.84662,0.63656 -1.6932,1.24646 -2.53975,1.82969 -0.84662,0.58324 -1.6932,1.08651 -2.53976,1.50979 -0.95324,0.4233 -1.85394,0.76743 -2.70212,1.03238 -0.84822,0.26497 -1.69561,0.39745 -2.54217,0.39744 -4.12954,0.21004 -7.06753,-1.19393 -8.814,-4.21191 -1.7465,-3.01796 -2.77807,-6.38006 -3.09472,-10.0863 -0.21327,-1.58652 -0.3199,-3.12135 -0.31989,-4.60451 -10e-6,-1.48311 -10e-6,-2.85962 0,-4.12952 l 0.31989,-19.37772 -2.38465,-0.31504 c -1.7998,-0.10659 -3.14965,-0.71567 -4.04954,-1.82727 -0.89991,-1.11149 -1.34986,-2.3022 -1.34985,-3.57213 -10e-6,-0.10657 -10e-6,-0.18655 0,-0.23992 -10e-6,-0.0533 -10e-6,-0.13162 0,-0.23507 0.10663,-1.37645 0.68906,-2.59462 1.74729,-3.65453 1.05822,-1.05978 2.59387,-1.48307 4.60693,-1.26987 l 13.33854,1.26987 c 1.79977,0.10669 3.14962,0.71578 4.04955,1.82727 0.89987,1.1116 1.29812,2.35562 1.19474,3.73207 -2e-5,0.10346 -2e-5,0.18181 0,0.23508 -2e-5,0.0534 -2e-5,0.13334 0,0.23991 -0.10665,1.26993 -0.68989,2.40813 -1.74971,3.41461 -1.05987,1.00658 -2.54139,1.45653 -4.44456,1.34985 l -0.63494,18.58283 c -2e-5,0.21006 0.0258,0.92417 0.0776,2.14231 0.0517,1.2182 0.13084,2.51554 0.23749,3.89203 0.10661,1.48315 0.26575,2.85966 0.47742,4.12951 0.21162,1.2699 0.42246,1.90483 0.63251,1.90482 0.63653,1e-5 1.3781,-0.34411 2.22471,-1.03238 0.84656,-0.68824 1.74646,-1.50897 2.6997,-2.4622 0.31986,-0.42327 0.63814,-0.81991 0.95483,-1.18991 0.31663,-0.36995 0.68661,-0.76658 1.10993,-1.1899 0.84655,-1.16645 1.64062,-2.22549 2.38222,-3.17711 0.74154,-0.95157 1.21895,-1.69233 1.43225,-2.22228 -3e-5,3e-5 0.0258,3e-5 0.0776,0 0.0517,3e-5 0.0775,-0.0533 0.0775,-0.15995 -3e-5,3e-5 -3e-5,3e-5 0,0 -3e-5,3e-5 -3e-5,3e-5 0,0 l 0.79488,-29.06657 -1.10993,0 c -1.90646,5e-5 -3.33628,-0.55572 -4.28946,-1.66732 -0.95324,-1.11149 -1.42985,-2.35551 -1.42982,-3.73208 -3e-5,-1.37644 0.47658,-2.62046 1.42982,-3.73207 0.95318,-1.11148 2.383,-1.66725 4.28946,-1.66732 l 15.08825,0 c 1.79975,7e-5 3.17626,0.52999 4.12952,1.58977 0.95317,1.05991 1.48309,2.22477 1.58977,3.49458 -5e-5,0.10669 -5e-5,0.18586 0,0.23749 -5e-5,0.0518 -5e-5,0.13093 0,0.2375 z"
         style="marker:none;font-family:BoyzRGross;-inkscape-font-specification:BoyzRGross"
         id="path4179"
         inkscape:connector-curvature="0" />
      <path
         d="m 373.41038,863.8283 c -2e-5,2.32973 -0.81995,4.31451 -2.45978,5.95436 -1.63987,1.63985 -3.57134,2.45978 -5.79441,2.45978 -2.32973,0 -4.31532,-0.81993 -5.95679,-2.45978 -1.64147,-1.63985 -2.4622,-3.62463 -2.4622,-5.95436 0,-2.32971 0.82073,-4.26199 2.4622,-5.79684 1.64147,-1.53482 3.62706,-2.30223 5.95679,-2.30225 2.22307,2e-5 4.15454,0.76743 5.79441,2.30225 1.63983,1.53485 2.45976,3.46713 2.45978,5.79684 z"
         style="marker:none;font-family:BoyzRGross;-inkscape-font-specification:BoyzRGross"
         id="path4181"
         inkscape:connector-curvature="0" />
      <path
         d="m 473.06652,798.71083 c 0.2132,8.04584 -2.69814,14.58343 -8.73403,19.61279 -6.03599,5.02947 -12.65355,8.33906 -19.85271,9.92878 -1.2699,0.21008 -2.54059,0.42091 -3.81205,0.63251 -1.27152,0.21169 -2.5422,0.31752 -3.81205,0.31747 l 0.3199,31.44638 6.98916,0.3199 c 1.90316,0.10664 3.30471,0.71573 4.20464,1.82726 0.89986,1.11155 1.34981,2.40889 1.34985,3.89202 -0.10344,1.37328 -0.6584,2.6165 -1.66489,3.72966 -1.00657,1.11316 -2.46305,1.61642 -4.36944,1.50979 l -23.34729,-1.26988 c -1.9032,-0.10662 -3.30475,-0.68905 -4.20465,-1.74729 -0.8999,-1.05822 -1.40316,-2.22389 -1.50979,-3.497 0,-0.10339 0,-0.18175 0,-0.23507 0,-0.0533 0,-0.13328 0,-0.23992 0,-0.10662 0,-0.18579 0,-0.2375 0,-0.0517 0,-0.13085 0,-0.23749 0.31666,-1.16647 0.97825,-2.25216 1.98479,-3.25709 1.00652,-1.0049 2.40968,-1.45566 4.20949,-1.35227 l 5.55934,0.15995 -0.95483,-76.2313 -4.76446,0 c -1.90643,0.10349 -3.33625,-0.40059 -4.28946,-1.51222 -0.95322,-1.11145 -1.53484,-2.35548 -1.74487,-3.73208 0,-1.37641 0.4766,-2.62043 1.42982,-3.73207 0.95321,-1.11145 2.38142,-1.72054 4.28462,-1.82727 l 16.04308,-0.47499 c 9.10559,-0.10653 17.39047,1.95823 24.85466,6.19428 7.4641,4.23624 11.40782,10.90712 11.83117,20.01265 z m -10.95873,0.31505 c -0.21008,-5.29269 -2.61816,-9.13058 -7.22424,-11.5137 -4.60616,-2.38295 -9.60892,-3.7328 -15.00828,-4.04955 -0.63658,9e-5 -1.21901,9e-5 -1.74729,0 -0.52833,9e-5 -1.05744,9e-5 -1.58734,0 l -0.31989,0 0.31989,34.78102 c 1.16322,5e-5 2.38058,-0.10577 3.6521,-0.31747 1.27146,-0.21159 2.59546,-0.47574 3.972,-0.79246 4.55277,-1.26982 8.73479,-3.38708 12.54608,-6.3518 3.81119,-2.96459 5.61018,-6.88327 5.39697,-11.75604 z"
         style="marker:none;font-family:BoyzRGross;-inkscape-font-specification:BoyzRGross"
         id="path4183"
         inkscape:connector-curvature="0" />
      <path
         d="m 527.31734,819.19848 c -0.10668,0.52998 -0.23916,1.03324 -0.39744,1.50979 -0.15838,0.47666 -0.34256,0.97831 -0.55254,1.50495 -0.84987,2.54303 -2.22718,4.82024 -4.13194,6.83164 -1.90486,2.01149 -4.12876,2.96389 -6.67169,2.85722 -1.79984,4e-5 -3.46716,-0.58239 -5.00196,-1.74729 -1.53487,-1.16482 -2.46062,-2.64714 -2.77724,-4.44699 -0.10667,-0.42324 -0.18664,-0.81988 -0.23992,-1.1899 -0.0533,-0.36993 -0.08,-0.71325 -0.08,-1.02996 -3e-5,-1.48308 0.3441,-2.80708 1.03238,-3.97199 0.68822,-1.16481 1.56227,-2.11721 2.62215,-2.85722 -0.74322,0.31672 -1.48479,0.71335 -2.2247,1.1899 -0.73999,0.47666 -1.53326,1.08494 -2.37981,1.82484 -0.10666,0.10669 -0.23914,0.23917 -0.39744,0.39744 -0.15836,0.15839 -0.34416,0.29087 -0.55739,0.39744 -2.32975,2.22314 -4.28868,4.49955 -5.87681,6.82922 -1.58817,2.32976 -2.32893,5.13609 -2.22228,8.41898 l 0.15995,21.59758 3.64968,0 c 1.9064,2e-5 3.33622,0.55579 4.28946,1.66732 0.95318,1.11155 1.42979,2.35558 1.42982,3.73207 -3e-5,1.37652 -0.47664,2.6472 -1.42982,3.81205 -0.95324,1.16487 -2.38306,1.7473 -4.28946,1.74729 l -18.58284,0 c -1.9032,10e-6 -3.3314,-0.58242 -4.28461,-1.74729 -0.95322,-1.16485 -1.42983,-2.43553 -1.42983,-3.81205 0,-1.37649 0.47661,-2.62052 1.42983,-3.73207 0.95321,-1.11153 2.38141,-1.6673 4.28461,-1.66732 l 4.12952,0 -0.47499,-36.52588 -4.60451,0 c -1.90643,5e-5 -3.33625,-0.55653 -4.28946,-1.66974 -0.95322,-1.11311 -1.42983,-2.35794 -1.42983,-3.7345 0,-0.10335 0,-0.23502 0,-0.39502 0,-0.15989 0,-0.29156 0,-0.39502 0.21326,-1.16642 0.7965,-2.22626 1.74972,-3.17954 0.95321,-0.95315 2.2764,-1.42975 3.96957,-1.42982 l 10.0039,0 c 0.10662,7e-5 0.21244,7e-5 0.31747,0 0.105,7e-5 0.21082,7e-5 0.31747,0 0.9532,0.21333 1.8531,0.69074 2.6997,1.43225 0.84656,0.74163 1.4298,1.58902 1.74971,2.54217 0.21001,-0.2132 0.42085,-0.42565 0.63252,-0.63736 0.21162,-0.21159 0.42407,-0.42404 0.63736,-0.63736 0.21001,-0.20997 0.4475,-0.42081 0.71249,-0.63252 0.26493,-0.21158 0.50404,-0.42403 0.71733,-0.63736 1.58651,-1.37644 3.22717,-2.56715 4.92198,-3.57213 1.69475,-1.00484 3.38872,-1.77226 5.08192,-2.30225 0.95318,-0.31659 1.85308,-0.5549 2.6997,-0.71491 0.84655,-0.15988 1.69474,-0.23985 2.5446,-0.23992 3.80958,-0.10656 6.90591,0.95247 9.28899,3.17711 2.38299,2.22477 3.5745,5.0836 3.57456,8.57651 -6e-5,0.42334 -0.0267,0.87329 -0.08,1.34984 -0.0534,0.47667 -0.13334,0.97993 -0.23992,1.5098 z"
         style="marker:none;font-family:BoyzRGross;-inkscape-font-specification:BoyzRGross"
         id="path4185"
         inkscape:connector-curvature="0" />
      <path
         d="m 573.82287,839.52618 c -4e-5,0.84662 -0.0534,1.74651 -0.15994,2.6997 -0.10668,0.95324 -0.21331,1.85314 -0.31989,2.69969 -0.95326,5.39942 -3.20301,10.29635 -6.74925,14.69081 -3.54631,4.39449 -8.23079,6.59173 -14.05345,6.59172 -5.92933,1e-5 -10.66793,-2.19723 -14.21582,-6.59172 -3.5479,-4.39446 -5.79845,-9.29139 -6.75166,-14.69081 -0.1034,-0.84655 -0.20842,-1.74645 -0.31505,-2.69969 -0.10663,-0.95319 -0.15995,-1.85308 -0.15994,-2.6997 -10e-6,-0.84655 0.0267,-1.71979 0.08,-2.61972 0.0533,-0.89987 0.18499,-1.77311 0.39502,-2.61973 0.84658,-5.29595 3.07047,-10.16703 6.67169,-14.61326 3.6012,-4.44612 8.36646,-6.66921 14.29579,-6.66927 5.82266,6e-5 10.5338,2.22315 14.13343,6.66927 3.59955,4.44623 5.82264,9.31731 6.66927,14.61326 0.21321,0.84662 0.3465,1.71986 0.39986,2.61973 0.0533,0.89993 0.0799,1.77317 0.08,2.61972 z m -10.80363,0 c -3e-5,-0.84655 -0.0792,-1.77311 -0.2375,-2.77967 -0.15836,-1.00649 -0.39586,-2.03806 -0.71248,-3.09472 -0.74322,-2.43631 -1.88223,-4.68686 -3.41704,-6.75166 -1.53486,-2.06471 -3.57215,-3.09709 -6.11188,-3.09714 -2.543,5e-5 -4.60856,1.03243 -6.1967,3.09714 -1.58817,2.0648 -2.6989,4.31535 -3.33221,6.75166 -0.3199,1.05666 -0.55902,2.08823 -0.71733,3.09472 -0.15835,1.00656 -0.23751,1.93312 -0.2375,2.77967 -10e-6,0.84662 0.0792,1.77317 0.2375,2.77967 0.15831,1.00656 0.34411,1.98643 0.55738,2.93962 0.73994,2.53977 1.87734,4.84202 3.41219,6.90676 1.53482,2.06478 3.62704,3.09716 6.27667,3.09714 2.53973,2e-5 4.60368,-1.03236 6.19186,-3.09714 1.58812,-2.06474 2.75379,-4.36699 3.497,-6.90676 0.21,-0.95319 0.39418,-1.93306 0.55254,-2.93962 0.1583,-1.0065 0.23747,-1.93305 0.2375,-2.77967 z"
         style="marker:none;font-family:BoyzRGross;-inkscape-font-specification:BoyzRGross"
         id="path4187"
         inkscape:connector-curvature="0" />
      <path
         d="m 619.70807,852.07468 c 0.21322,4.23617 -0.84501,8.2332 -3.17469,11.99112 -2.32976,3.75793 -6.08929,6.37846 -11.27862,7.86159 -0.84662,0.21003 -1.77317,0.39502 -2.77967,0.55496 -1.00656,0.15995 -2.09145,0.23992 -3.25467,0.23992 -0.52994,0 -1.08571,-0.0267 -1.66731,-0.08 -0.58165,-0.0533 -1.19073,-0.13329 -1.82727,-0.23992 -2.32973,-0.31666 -4.60614,-0.9516 -6.82921,-1.90481 -2.2231,-0.95321 -4.07621,-2.17139 -5.55934,-3.65453 -0.73996,-0.73994 -1.40156,-1.63903 -1.98479,-2.69727 -0.58324,-1.05822 -0.97987,-2.17057 -1.1899,-3.33706 -0.10664,-0.42328 -0.18661,-0.87323 -0.23992,-1.34985 -0.0533,-0.47659 -0.08,-0.92654 -0.08,-1.34985 -10e-6,-0.10661 -10e-6,-0.21244 0,-0.31747 -10e-6,-0.105 0.0533,-0.26413 0.15994,-0.47741 0,-0.10662 0,-0.21244 0,-0.31747 0,-0.105 0,-0.21082 0,-0.31747 0.31666,-2.11644 1.26907,-3.9954 2.85722,-5.63689 1.58815,-1.64144 3.44207,-2.46217 5.56177,-2.4622 0.10338,3e-5 0.18174,3e-5 0.23507,0 0.0533,3e-5 0.13327,3e-5 0.23992,0 -2e-5,3e-5 0.0266,3e-5 0.08,0 0.0533,3e-5 0.13328,3e-5 0.23992,0 1.79978,0.31669 3.2288,1.0841 4.28704,2.30226 1.05821,1.21819 1.64064,2.67386 1.74729,4.36701 -2e-5,0.10665 -2e-5,0.21328 0,0.31989 -2e-5,0.10665 0.0517,0.21167 0.1551,0.31505 -2e-5,0.10665 -2e-5,0.21328 0,0.31989 -2e-5,0.10665 -2e-5,0.21166 0,0.31505 -2e-5,0.7432 -0.10584,1.48476 -0.31747,2.2247 -0.21166,0.73997 -0.52913,1.48154 -0.9524,2.22471 0.42327,0.10664 0.87322,0.21246 1.34984,0.31747 0.47659,0.10502 0.92654,0.21084 1.34985,0.31746 0.42327,2e-5 0.87322,0.0267 1.34985,0.08 0.47659,0.0533 0.92653,0.08 1.34985,0.08 0.5299,10e-6 1.03316,-0.0267 1.50979,-0.08 0.47659,-0.0533 0.92653,-0.13328 1.34985,-0.23992 2.22306,-0.63331 3.86453,-1.77071 4.92441,-3.41219 1.05981,-1.64145 1.58973,-3.41539 1.58976,-5.32184 -3e-5,-0.10661 -3e-5,-0.21243 0,-0.31747 -3e-5,-0.10499 -3e-5,-0.21082 0,-0.31747 -3e-5,-0.10661 -3e-5,-0.21243 0,-0.31747 -3e-5,-0.10499 -3e-5,-0.21081 0,-0.31747 -0.31992,-1.9064 -1.03564,-3.68035 -2.14715,-5.32184 -1.11158,-1.64144 -2.77889,-2.72713 -5.00195,-3.25709 -1.16327,-0.31663 -2.35398,-0.6866 -3.57214,-1.10992 -1.21819,-0.42326 -2.4089,-0.89987 -3.57213,-1.42983 -0.52994,-0.21322 -1.0332,-0.42568 -1.50979,-0.63736 -0.47662,-0.21161 -0.97989,-0.42245 -1.5098,-0.63251 -0.73996,-0.31663 -1.45407,-0.60744 -2.1423,-0.87244 -0.68827,-0.26492 -1.40399,-0.55735 -2.14716,-0.87728 -2.64639,-1.1632 -4.86948,-2.7772 -6.66927,-4.842 -1.7998,-2.06472 -2.64638,-5.05522 -2.53975,-8.97153 0,-0.74313 0.0267,-1.51136 0.08,-2.30467 0.0533,-0.79322 0.13167,-1.56145 0.23508,-2.30468 0.21325,-1.05656 0.47822,-2.19396 0.79488,-3.41219 0.31666,-1.21811 0.73995,-2.40882 1.26987,-3.57213 1.05984,-2.22626 2.33053,-4.39764 3.81205,-6.51417 1.48152,-2.11639 3.17549,-4.02281 5.08193,-5.71928 2.11967,-2.11639 4.42354,-3.7837 6.91161,-5.00196 2.48803,-1.21809 5.05524,-1.82718 7.70165,-1.82726 0.52989,8e-5 1.0065,0.0267 1.42982,0.08 0.42326,0.0534 0.89987,0.13337 1.42982,0.23992 0.42326,8e-5 0.87321,0.0793 1.34985,0.2375 0.47658,0.15841 0.92653,0.3442 1.34985,0.55739 3.49293,1.37658 6.11346,3.78546 7.8616,7.22665 1.74805,3.44134 2.6221,7.06678 2.62214,10.87634 -4e-5,1.69646 -0.18584,3.33873 -0.55739,4.92683 -0.37163,1.5882 -0.9274,3.12223 -1.66731,4.60208 -0.95326,2.01311 -2.30391,3.62873 -4.05197,4.84686 -1.74814,1.21822 -3.78543,1.82731 -6.11188,1.82726 -2.54301,0.10344 -4.84688,-0.61227 -6.91161,-2.14716 -2.06479,-1.53478 -3.09717,-3.62539 -3.09714,-6.27182 0.10661,-2.11641 0.92734,-3.96871 2.4622,-5.55692 1.53481,-1.58809 3.41377,-2.27715 5.63689,-2.06718 0.74315,0.10669 1.3789,0.26583 1.90723,0.47741 0.52828,0.21171 1.00569,0.42255 1.43225,0.63252 -3e-5,-0.20997 -3e-5,-0.44747 0,-0.71249 -3e-5,-0.2649 -3e-5,-0.5024 0,-0.71249 -3e-5,-0.42646 -0.0267,-0.85137 -0.08,-1.27472 -0.0533,-0.42323 -0.08,-0.84652 -0.08,-1.26988 -0.21329,-1.05654 -0.61073,-2.11477 -1.19232,-3.17468 -0.58166,-1.05978 -1.34907,-1.80135 -2.30226,-2.22471 -0.10666,-0.10656 -0.23914,-0.18573 -0.39744,-0.2375 -0.15836,-0.0516 -0.29084,-0.0775 -0.39744,-0.0775 -0.21329,6e-5 -0.37243,6e-5 -0.47742,0 -0.10504,6e-5 -0.26418,6e-5 -0.47741,0 -0.42332,6e-5 -0.89912,0.0792 -1.4274,0.23749 -0.52833,0.1584 -1.00413,0.34258 -1.4274,0.55254 -1.05987,0.52999 -2.0664,1.21905 -3.01959,2.06718 -0.95323,0.84827 -1.85313,1.80068 -2.69969,2.85722 -0.42331,0.52999 -0.82076,1.05991 -1.19233,1.58977 -0.37161,0.52999 -0.76905,1.05991 -1.19233,1.58977 -0.95323,1.5866 -1.77315,3.09477 -2.45977,4.52454 -0.68665,1.42987 -1.08329,2.62139 -1.18991,3.57455 -0.10664,0.21008 -0.15996,0.44758 -0.15994,0.71249 -2e-5,0.26501 -2e-5,0.50412 0,0.71733 -2e-5,1.26993 0.31745,2.3015 0.9524,3.09472 0.63493,0.79331 1.429,1.50822 2.38223,2.14473 0.9532,0.52997 1.98558,1.05989 3.09714,1.58977 1.11153,0.52996 2.25054,1.00657 3.41703,1.42982 1.05659,0.42333 2.08816,0.81997 3.09472,1.1899 1.0065,0.37002 1.93306,0.66164 2.77967,0.87486 4.76604,1.37654 8.4456,3.9171 11.03871,7.62167 2.59302,3.70465 3.94287,7.72834 4.04954,12.07109 z"
         style="marker:none;font-family:BoyzRGross;-inkscape-font-specification:BoyzRGross"
         id="path4189"
         inkscape:connector-curvature="0" />
      <path
         d="m 675.76677,837.78131 c -5e-5,6.35264 -2.17063,11.91117 -6.51175,16.6756 -4.34121,4.76447 -9.79472,7.1467 -16.36055,7.14668 -1.47993,2e-5 -2.96145,-0.18497 -4.44456,-0.55496 -1.48317,-0.36996 -2.91299,-0.81991 -4.28947,-1.34985 l 0,40.02046 2.06476,0 c 1.79977,-0.10665 3.17628,0.36995 4.12952,1.42983 0.95318,1.05981 1.48311,2.22467 1.58977,3.49458 -3e-5,0.1066 -3e-5,0.18657 0,0.23992 -3e-5,0.0533 -3e-5,0.13164 0,0.23507 -3e-5,0.1066 -3e-5,0.18657 0,0.23992 -3e-5,0.0533 -3e-5,0.13325 0,0.23992 -0.10666,1.16321 -0.63659,2.24809 -1.58977,3.25466 -0.95324,1.00649 -2.32975,1.50976 -4.12952,1.50979 l -15.88314,0.1551 c -1.7998,-0.10344 -3.1755,-0.6584 -4.12709,-1.66489 -0.9516,-1.00657 -1.48072,-2.09145 -1.58734,-3.25466 -10e-6,-0.10667 -10e-6,-0.18664 0,-0.23992 -10e-6,-0.0534 -10e-6,-0.13332 0,-0.23992 -10e-6,-0.10343 -10e-6,-0.18179 0,-0.23507 -10e-6,-0.0533 -10e-6,-0.13332 0,-0.23992 0.10662,-1.26991 0.63574,-2.43477 1.58734,-3.49458 0.95159,-1.05988 2.32729,-1.5898 4.12709,-1.58977 l 2.85965,0.15994 0,-79.09094 -3.01474,0 c -1.90644,5e-5 -3.36292,-0.58238 -4.36944,-1.74729 -1.00653,-1.1648 -1.5098,-2.43549 -1.5098,-3.81205 0,-1.37645 0.50327,-2.62047 1.5098,-3.73208 1.00652,-1.11148 2.463,-1.66725 4.36944,-1.66731 l 8.41413,0 c 0.10662,6e-5 0.18659,6e-5 0.23992,0 0.0533,6e-5 0.13327,6e-5 0.23992,0 1.26986,0.10669 2.43391,0.71578 3.49216,1.82726 1.05821,1.11161 1.58732,2.30231 1.58734,3.57213 l 0,0.95483 c 1.37648,-0.63649 2.8063,-1.11391 4.28947,-1.43224 1.48311,-0.31822 2.96463,-0.47736 4.44456,-0.47742 6.56583,6e-5 12.01934,2.38229 16.36055,7.14669 4.34112,4.7645 6.5117,10.27133 6.51175,16.52049 z m -10.79879,0 c -4e-5,-3.38952 -1.13824,-6.38084 -3.41461,-8.97395 -2.27644,-2.59301 -5.16274,-3.88955 -8.6589,-3.88959 -1.6932,4e-5 -3.3072,0.39668 -4.84201,1.1899 -1.53486,0.79331 -2.8322,1.8782 -3.89202,3.25466 l 0,16.99307 c 1.05982,1.37653 2.35716,2.43556 3.89202,3.17711 1.53481,0.74159 3.14881,1.11237 4.84201,1.11235 3.49616,2e-5 6.38246,-1.32317 8.6589,-3.96957 2.27637,-2.64635 3.41457,-5.61101 3.41461,-8.89398 z"
         style="marker:none;font-family:BoyzRGross;-inkscape-font-specification:BoyzRGross"
         id="path4191"
         inkscape:connector-curvature="0" />
      <path
         d="m 714.47854,834.12679 c -4e-5,0.10667 -0.0267,0.21249 -0.08,0.31746 -0.0533,0.10506 -0.08,0.2642 -0.08,0.47742 -0.21007,0.84662 -0.76504,1.66735 -1.6649,2.4622 -0.89993,0.79492 -1.8798,1.19236 -2.93961,1.19233 l -21.43763,0.94998 c -2e-5,0.84662 0.10581,2.01148 0.31746,3.49458 0.21164,1.48317 0.52911,3.018 0.95241,4.60451 0.63331,2.32974 1.55906,4.50032 2.77725,6.51175 1.21816,2.01146 2.88547,3.07049 5.00195,3.17711 0.95319,2e-5 1.90641,-0.21163 2.85964,-0.63494 0.95319,-0.42327 1.79978,-1.0049 2.53975,-1.74487 -1.37653,-0.63653 -2.43476,-1.56389 -3.17468,-2.78209 -0.73998,-1.21815 -1.10996,-2.51549 -1.10993,-3.89202 -3e-5,-0.10338 -3e-5,-0.18173 0,-0.23507 -3e-5,-0.0533 0.0517,-0.13327 0.1551,-0.23992 -3e-5,-0.10661 -3e-5,-0.21243 0,-0.31747 -3e-5,-0.10499 -3e-5,-0.21081 0,-0.31747 0.31987,-1.79977 1.16806,-3.33461 2.54459,-4.60451 1.37648,-1.26984 2.96463,-1.90478 4.76446,-1.90481 0.1066,3e-5 0.21242,3e-5 0.31747,0 0.10498,3e-5 0.21081,3e-5 0.31747,0 0.1066,3e-5 0.21242,0.0259 0.31747,0.0776 0.10498,0.0517 0.2108,0.0776 0.31746,0.0775 1.79977,0.31992 3.33461,1.1148 4.60451,2.38465 1.26984,1.2699 2.11643,2.80474 2.53976,4.60451 -4e-5,0.21328 0.0266,0.42574 0.08,0.63736 0.0533,0.21167 0.0799,0.42251 0.08,0.63251 0.10659,0.21329 0.15991,0.42574 0.15995,0.63736 -4e-5,0.21167 -4e-5,0.42251 0,0.63252 -4e-5,0.21328 -4e-5,0.45239 0,0.71733 -4e-5,0.26498 -0.0534,0.50248 -0.15995,0.71249 -0.10667,1.58979 -0.50411,3.09958 -1.19232,4.52938 -0.68829,1.42984 -1.45571,2.72637 -2.30226,3.8896 -1.6932,2.01307 -3.75715,3.6812 -6.19185,5.00438 -2.43476,1.3232 -5.08195,1.87816 -7.94157,1.66489 -5.08275,-0.21002 -8.97396,-2.40645 -11.67365,-6.58929 -2.6997,-4.18282 -4.52615,-8.76228 -5.47936,-13.73841 -0.31667,-1.79977 -0.55497,-3.54706 -0.71491,-5.24187 -0.15995,-1.69475 -0.23993,-3.28209 -0.23992,-4.76203 -10e-6,-0.84978 0.0267,-1.69798 0.08,-2.5446 0.0533,-0.84654 0.13329,-1.63981 0.23992,-2.37981 0.21326,-1.90638 0.6107,-4.18278 1.19232,-6.82921 0.58162,-2.64633 1.29573,-5.34603 2.14231,-8.09909 1.69316,-5.08267 4.04873,-9.74211 7.06671,-13.97832 3.01796,-4.23608 6.90998,-6.35415 11.67607,-6.35423 3.7062,8e-5 6.53838,2.09149 8.49654,6.27425 1.95809,4.1829 3.30713,8.76237 4.04712,13.73841 0.52988,3.59965 0.8215,7.01425 0.87485,10.24382 0.0533,3.22966 0.0266,5.74437 -0.08,7.54413 z m -9.52891,-4.92441 c -3e-5,-1.26983 0.0266,-2.69884 0.08,-4.28704 0.0533,-1.5881 0.0266,-3.17706 -0.08,-4.76688 -0.10666,-3.59954 -0.45079,-6.88166 -1.03238,-9.84638 -0.58165,-2.96459 -1.5074,-4.44692 -2.77725,-4.44699 -1.90645,7e-5 -3.62708,1.29741 -5.1619,3.89203 -1.53485,2.59474 -2.83219,5.42691 -3.89202,8.49653 -0.8466,2.32977 -1.53485,4.58033 -2.06476,6.75167 -0.52993,2.17143 -0.84821,3.73373 -0.95483,4.6869 l 15.88314,-0.47984 z"
         style="marker:none;font-family:BoyzRGross;-inkscape-font-specification:BoyzRGross"
         id="path4193"
         inkscape:connector-curvature="0" />
      <path
         d="m 768.96206,819.19848 c -0.10669,0.52998 -0.23917,1.03324 -0.39744,1.50979 -0.15839,0.47666 -0.34257,0.97831 -0.55255,1.50495 -0.84986,2.54303 -2.22717,4.82024 -4.13194,6.83164 -1.90486,2.01149 -4.12875,2.96389 -6.67169,2.85722 -1.79984,4e-5 -3.46715,-0.58239 -5.00195,-1.74729 -1.53487,-1.16482 -2.46062,-2.64714 -2.77725,-4.44699 -0.10666,-0.42324 -0.18664,-0.81988 -0.23992,-1.1899 -0.0533,-0.36993 -0.08,-0.71325 -0.08,-1.02996 -3e-5,-1.48308 0.34409,-2.80708 1.03238,-3.97199 0.68822,-1.16481 1.56227,-2.11721 2.62215,-2.85722 -0.74322,0.31672 -1.48479,0.71335 -2.22471,1.1899 -0.73999,0.47666 -1.53325,1.08494 -2.3798,1.82484 -0.10667,0.10669 -0.23915,0.23917 -0.39745,0.39744 -0.15836,0.15839 -0.34415,0.29087 -0.55738,0.39744 -2.32975,2.22314 -4.28869,4.49955 -5.87681,6.82922 -1.58818,2.32976 -2.32894,5.13609 -2.22228,8.41898 l 0.15994,21.59758 3.64968,0 c 1.9064,2e-5 3.33622,0.55579 4.28947,1.66732 0.95318,1.11155 1.42979,2.35558 1.42982,3.73207 -3e-5,1.37652 -0.47664,2.6472 -1.42982,3.81205 -0.95325,1.16487 -2.38307,1.7473 -4.28947,1.74729 l -18.58283,0 c -1.90321,10e-6 -3.33141,-0.58242 -4.28462,-1.74729 -0.95322,-1.16485 -1.42982,-2.43553 -1.42982,-3.81205 0,-1.37649 0.4766,-2.62052 1.42982,-3.73207 0.95321,-1.11153 2.38141,-1.6673 4.28462,-1.66732 l 4.12952,0 -0.475,-36.52588 -4.60451,0 c -1.90643,5e-5 -3.33625,-0.55653 -4.28946,-1.66974 -0.95322,-1.11311 -1.42982,-2.35794 -1.42982,-3.7345 0,-0.10335 0,-0.23502 0,-0.39502 0,-0.15989 0,-0.29156 0,-0.39502 0.21326,-1.16642 0.7965,-2.22626 1.74971,-3.17954 0.95321,-0.95315 2.2764,-1.42975 3.96957,-1.42982 l 10.00391,0 c 0.10661,7e-5 0.21244,7e-5 0.31747,0 0.105,7e-5 0.21082,7e-5 0.31747,0 0.95319,0.21333 1.85309,0.69074 2.69969,1.43225 0.84657,0.74163 1.4298,1.58902 1.74972,2.54217 0.21001,-0.2132 0.42084,-0.42565 0.63251,-0.63736 0.21162,-0.21159 0.42408,-0.42404 0.63736,-0.63736 0.21001,-0.20997 0.44751,-0.42081 0.71249,-0.63252 0.26494,-0.21158 0.50405,-0.42403 0.71733,-0.63736 1.58651,-1.37644 3.22717,-2.56715 4.92198,-3.57213 1.69475,-1.00484 3.38873,-1.77226 5.08193,-2.30225 0.95318,-0.31659 1.85308,-0.5549 2.6997,-0.71491 0.84654,-0.15988 1.69474,-0.23985 2.54459,-0.23992 3.80959,-0.10656 6.90591,0.95247 9.289,3.17711 2.38298,2.22477 3.5745,5.0836 3.57455,8.57651 -5e-5,0.42334 -0.0267,0.87329 -0.08,1.34984 -0.0534,0.47667 -0.13334,0.97993 -0.23992,1.5098 z"
         style="marker:none;font-family:BoyzRGross;-inkscape-font-specification:BoyzRGross"
         id="path4195"
         inkscape:connector-curvature="0" />
      <path
         d="m 788.14588,863.8283 c -2e-5,2.32973 -0.81994,4.31451 -2.45978,5.95436 -1.63986,1.63985 -3.57133,2.45978 -5.79441,2.45978 -2.32973,0 -4.31532,-0.81993 -5.95678,-2.45978 -1.64147,-1.63985 -2.4622,-3.62463 -2.4622,-5.95436 0,-2.32971 0.82073,-4.26199 2.4622,-5.79684 1.64146,-1.53482 3.62705,-2.30223 5.95678,-2.30225 2.22308,2e-5 4.15455,0.76743 5.79441,2.30225 1.63984,1.53485 2.45976,3.46713 2.45978,5.79684 z"
         style="marker:none;font-family:BoyzRGross;-inkscape-font-specification:BoyzRGross"
         id="path4197"
         inkscape:connector-curvature="0" />
    </g>
    <g
       style="font-size:35.02584076px;font-style:normal;font-variant:normal;font-weight:normal;font-stretch:normal;text-indent:0;text-align:start;text-decoration:none;line-height:125%;letter-spacing:0px;word-spacing:0px;text-transform:none;direction:ltr;block-progression:tb;writing-mode:lr-tb;text-anchor:start;baseline-shift:baseline;color:#000000;fill:#000000;fill-opacity:1;fill-rule:nonzero;stroke:none;stroke-width:1px;marker:none;visibility:visible;display:inline;overflow:visible;enable-background:accumulate;font-family:Arial;-inkscape-font-specification:Arial"
       id="text4199">
      <path
         d="m 792.46697,801.84436 0,-22.11348 -8.26049,0 0,-2.95873 19.87306,0 0,2.95873 -8.2947,0 0,22.11348 z"
         style="marker:none"
         id="path4204"
         inkscape:connector-curvature="0" />
      <path
         d="m 807.39741,801.84436 0,-25.07221 4.99392,0 5.93456,17.75236 c 0.54726,1.65324 0.94632,2.89032 1.19717,3.71123 0.28503,-0.91213 0.72969,-2.25182 1.33399,-4.01908 l 6.00297,-17.44451 4.46374,0 0,25.07221 -3.19816,0 0,-20.98472 -7.28565,20.98472 -2.99293,0 -7.25145,-21.34387 0,21.34387 z"
         style="marker:none"
         id="path4206"
         inkscape:connector-curvature="0" />
    </g>
  </g>
</svg>
