<?xml version="1.0" encoding="UTF-8" standalone="no"?>
<!-- Created with Inkscape (http://www.inkscape.org/) -->

<svg
   xmlns:dc="http://purl.org/dc/elements/1.1/"
   xmlns:cc="http://creativecommons.org/ns#"
   xmlns:rdf="http://www.w3.org/1999/02/22-rdf-syntax-ns#"
   xmlns:svg="http://www.w3.org/2000/svg"
   xmlns="http://www.w3.org/2000/svg"
   xmlns:sodipodi="http://sodipodi.sourceforge.net/DTD/sodipodi-0.dtd"
   xmlns:inkscape="http://www.inkscape.org/namespaces/inkscape"
   width="1145.6047"
   height="277.02856"
   id="svg2"
   version="1.1"
   inkscape:version="0.48.4 r9939"
   sodipodi:docname="JustLeashTime.pdf">
  <defs
     id="defs4">
    <clipPath
       clipPathUnits="userSpaceOnUse"
       id="clipPath2998">
      <rect
         style="color:#000000;fill:#ffffff;fill-opacity:1;fill-rule:nonzero;stroke:none;stroke-width:1.29808891;marker:none;visibility:visible;display:inline;overflow:visible;enable-background:accumulate"
         id="rect3000"
         width="1602.8572"
         height="571.42859"
         x="-1082.8572"
         y="909.50507" />
    </clipPath>
  </defs>
  <sodipodi:namedview
     id="base"
     pagecolor="#ffffff"
     bordercolor="#666666"
     borderopacity="1.0"
     inkscape:pageopacity="0.0"
     inkscape:pageshadow="2"
     inkscape:zoom="0.56347994"
     inkscape:cx="786.1815"
     inkscape:cy="5.6372215"
     inkscape:document-units="px"
     inkscape:current-layer="layer1"
     showgrid="false"
     inkscape:window-width="1280"
     inkscape:window-height="658"
     inkscape:window-x="1272"
     inkscape:window-y="479"
     inkscape:window-maximized="1"
     fit-margin-top="0"
     fit-margin-left="0"
     fit-margin-right="0"
     fit-margin-bottom="0" />
  <metadata
     id="metadata7">
    <rdf:RDF>
      <cc:Work
         rdf:about="">
        <dc:format>image/svg+xml</dc:format>
        <dc:type
           rdf:resource="http://purl.org/dc/dcmitype/StillImage" />
        <dc:title></dc:title>
      </cc:Work>
    </rdf:RDF>
  </metadata>
  <g
     inkscape:label="Layer 1"
     inkscape:groupmode="layer"
     id="layer1"
     transform="translate(88.958947,-464.89817)">
    <path
       style="color:#000000;fill:#000000;fill-opacity:1;fill-rule:nonzero;stroke:none;stroke-width:15;marker:none;visibility:visible;display:inline;overflow:visible;enable-background:accumulate"
       d="m 916.375,115.625 c -0.6137,0.0269 -1.23122,0.0814 -1.84375,0.15625 -9.74969,-0.77394 -17.76093,7.27218 -20.6875,15.65625 -25.81948,2.0772 -51.95177,0.4793 -77.875,1 -5.9537,-1.28282 -15.33021,3.42955 -17.5625,-4.34375 -8.87994,-15.751 -37.37541,-12.71071 -40.6875,5.78125 -1.50029,17.40568 -3.79163,35.20793 -1.34375,52.59375 5.8094,18.38418 37.0815,17.85131 42.34375,-0.90625 1.2901,-3.40453 1.29343,-7.12017 1.25,-10.71875 l 31.75,0 0,169.71875 c -9.65282,-0.17279 -20.22144,3.54806 -23.9375,13.21875 -4.83649,11.9394 2.89894,26.8329 15.9375,28.53125 19.03542,1.55903 38.28797,-0.3686 57.34375,-1.3125 10.19878,-0.38712 18.01687,-10.02644 19.125,-19.28125 11.67506,6.80613 26.13318,5.16775 39.09375,7.3125 11.0166,0.43162 26.13221,4.54969 33.46875,-6.4375 2.22479,-1.09286 2.8122,-8.76362 4.46875,-6.21875 3.54051,8.24593 12.51128,10.78746 20.78125,10.46875 12.1897,0.46057 24.398,0.39826 36.5938,0.59375 3.74,6.02255 9.4031,11.65682 16,13.90625 14.6593,-1.21672 30.8359,2.23706 44.3437,-4.875 4.0265,-2.76782 6.5847,-9.35105 12.5937,-6.8125 13.163,0.37127 26.904,-0.31614 39.4376,-4.5 7.5108,-4.18276 12.7046,-12.39362 10.8124,-21.21875 0.163,-8.60577 -8.1739,-13.42406 -14.5624,-17.1875 2.5096,-21.91408 4.6621,-44.87436 -0.375,-66.65625 -3.6849,-15.57007 -14.6816,-31.79124 -32.0313,-32.9375 -11.0411,-1.10866 -22.687,-1.03413 -32.25,5.34375 -4.992,3.54064 -9.501,-3.98641 -15.125,-3.21875 -5.038,-0.48691 -10.1339,-0.19708 -15.1875,-0.28125 -0.6462,-10.98839 -10.8587,-20.83597 -22.2188,-19.40625 -14.8893,0.18925 -30.19586,-1.71012 -44.8437,1.28125 -12.82117,4.79169 -17.16882,23.21443 -7.125,32.96875 4.79592,5.26791 12.12822,6.56958 18.875,7.28125 -0.34483,24.81954 1.50909,49.81467 -0.40625,74.53125 -7.9303,0.92135 -14.87795,7.3703 -17.0625,15.03125 -2.91299,-5.93799 -8.89385,-10.79449 -15.34375,-11.59375 -2.40489,-21.044 -0.74619,-42.60341 -5.03125,-63.375 -1.14523,-5.3762 -7.10888,-9.01914 -9.46875,-12.5625 9.12093,-8.03121 15.40213,-20.65165 11.5,-32.875 -3.4649,-15.76911 -21.64476,-26.38977 -36.8125,-19.65625 -11.83067,4.60102 -19.30765,17.46901 -17.15625,30.09375 -0.43421,8.66879 4.88812,15.88044 10.9375,21.46875 -11.96499,0.48516 -23.4612,10.89929 -21.71875,23.4375 0.59411,10.37175 10.32527,18.23557 20.03125,19.15625 2.59271,9.63561 1.37609,20.28931 2.375,30.28125 -11.6912,-1.43734 -20.22171,9.07286 -22.5,19.4375 -4.41324,-2.84684 -9.70149,-3.83605 -14.78125,-4.84375 l 0,-168.8125 c 5.63606,0.69065 11.85877,-1.16326 17.15625,-0.625 1.95105,11.9157 13.6354,20.85959 25.71875,19.3125 9.78311,-0.63879 19.45506,-8.28472 18.53125,-18.90625 0.24244,-15.0033 1.5098,-30.44451 -1.5,-45.1875 -2.68643,-9.26152 -11.82568,-14.21603 -21.03125,-13.8125 z m -273.90625,26.84375 c -8.41539,-0.0325 -17.35023,2.12983 -21.375,10.21875 -6.33068,11.2106 1.41416,26.49164 14.15625,28.1875 8.38791,-0.25484 2.66315,11.21729 4.34375,16.53125 l 0,133.78125 c -5.35986,1.07961 -10.73291,3.15966 -14.53125,7.21875 3.89734,-23.78863 -9.23202,-49.01595 -30.21875,-59.96875 20.1923,-4.14689 32.17516,-26.43918 31.4375,-46.03125 0.32316,-22.91929 -14.31664,-47.13033 -37.875,-51.53125 -20.25492,-4.48059 -41.19965,3.30791 -56.03125,17.15625 -21.52266,18.05433 -37.06718,47.49937 -29.59375,76.03125 5.28261,18.90592 26.24227,25.56577 42.625,31.96875 9.67237,4.2592 20.62476,5.63885 29.78125,10.84375 7.19279,6.0316 7.7675,19.84555 -2.28125,23.28125 -3.11589,1.05181 -8.35754,2.118 -10.90625,0.6875 3.13641,-16.43576 -12.86497,-31.69467 -29.03125,-29.65625 -11.39182,0.90214 -21.24965,9.19341 -25.25,19.71875 0.0907,-8.81921 -5.13039,-18.25729 -14.6875,-19.03125 -8.0976,1.04341 -8.67733,-4.21716 -7.65625,-11.125 -0.60754,-27.27355 1.38559,-54.71868 -1.59375,-81.875 -5.95724,-24.37326 -29.64648,-43.25642 -54.96875,-42.78125 -17.85223,-0.58319 -35.73671,6.9605 -46.65625,21.25 -20.50479,22.81197 -15.18511,62.31883 8.90625,80.3125 4.20122,2.59775 8.92685,4.1776 13.84375,4.6875 -14.32899,4.12936 -28.69387,12.03248 -36.09375,25.40625 -0.21335,2.8885 -1.60125,-3.35071 -2.875,-3.4375 -6.12917,-3.71127 1.17838,-6.89444 3.28125,-10.6875 4.47714,-7.75655 1.85562,-17.66167 2.59375,-26.25 -0.14775,-24.06221 -4.62367,-49.53569 -19.09375,-69.25 -10.10593,-12.12041 -28.1412,-11.85499 -41.78125,-7 -20.92228,10.43273 -32.07951,33.22174 -39.84375,54.21875 -11.94856,33.19124 -12.23128,72.94906 7.8125,103.03125 8.05725,11.72647 20.45359,21.81157 35.46875,21.1875 10.66251,0.69282 21.96649,0.861 31,-5.78125 10.3779,-5.72476 18.70592,-14.26234 24.0625,-24.84375 9.00006,15.56493 27.33764,23.42778 44.5,26.15625 14.1782,1.80877 28.87626,0.0497 42.21875,-4.53125 10.73065,9.09344 28.04,9.90558 38.65625,0.0312 5.47066,-4.26297 8.30631,-10.79005 10.875,-17 0.0788,19.40542 18.46928,32.94552 35.8125,37.21875 26.2746,7.9341 59.70056,1.66814 75.53125,-22.25 0.71006,-1.25456 3.39086,-6.58236 3.75,-2.375 2.44944,10.09423 13.60284,15.98826 23.59375,14 9.64726,-0.55422 19.3068,-1.14646 28.90625,-2.28125 -2.51528,14.79406 13.22056,28.00137 27.34375,24 15.59573,-2.92374 31.725,-4.24302 46.875,-8.875 8.96119,-5.29001 14.61747,-18.20863 7.15625,-27.15625 -3.89004,-6.45201 -11.41202,-9.64565 -18.71875,-10.09375 -0.72627,-31.08904 1.68488,-62.44362 -2.46875,-93.34375 -1.26594,-13.26079 -15.15826,-24.3051 -28.34375,-19.46875 -8.96882,2.52509 -16.20294,8.67338 -23.59375,14.0625 -1.31083,-21.59797 -0.36133,-43.27307 -0.625,-64.90625 11.68735,1.44131 25.93648,-5.33209 26.59375,-18.3125 0.6657,-11.5534 -10.11575,-22.60434 -22.03125,-20.78125 -13.13432,-0.55232 -26.2946,-0.53414 -39.4375,-0.40625 -1.16537,-0.0831 -2.3603,-0.1516 -3.5625,-0.15625 z m -464.8125,24.46875 c -0.94781,0.008 -1.88812,0.0331 -2.8125,0.0625 -15.06439,0.62106 -30.26355,0.53163 -45.1875,2.625 -10.13045,1.72885 -17.87124,11.72006 -16.40625,22 0.99575,10.49811 10.47525,18.5771 20.6875,19.53125 1.97725,1.57452 0.1343,5.37149 0.90625,7.59375 1.69077,47.67475 2.05866,95.43041 4.46875,143.0625 3.04393,10.25617 14.24464,16.89333 24.75,15.21875 19.76305,-1.43897 39.70475,-4.42866 59.25,-6.15625 3.82961,11.9898 18.70171,18.27161 30.15625,13.3125 6.05216,-2.02815 11.39153,-6.81179 13.34375,-12.84375 -0.54772,-19.2885 0.68736,-38.76948 -2.125,-57.90625 -2.24688,-8.70054 -10.85242,-16.20418 -20.1875,-15.15625 -6.68073,-0.50922 -14.00943,0.7531 -18.28125,6.5 -6.32668,6.15168 -4.74425,15.73535 -5.46875,23.6875 -12.55477,1.35488 -25.03043,2.90624 -37.59375,3.9375 -1.45171,-40.91597 -2.70409,-81.84607 -3.46875,-122.78125 7.34017,-0.59642 14.73305,-3.45313 18.9375,-9.78125 5.94786,-7.81262 4.83222,-20.39587 -2.78125,-26.84375 -4.54218,-5.38618 -11.5528,-6.11792 -18.1875,-6.0625 z m 1038.28125,20.5 c -0.7414,9.7e-4 -1.5,0.0354 -2.25,0.0937 -14.8531,-0.0516 -28.5439,8.34608 -36.875,20.3125 -15.2591,19.98974 -23.3865,44.54525 -26.8125,69.25 -2.8786,25.02809 1.2864,51.57829 15.875,72.5 8.6266,14.06339 25.2246,21.92788 41.5625,21 16.0847,0.1934 31.5797,-8.56173 41.5,-20.78125 9.9199,-11.95944 13.6152,-30.42445 4.625,-44.0625 -0.738,-2.25781 -4.302,-4.14338 -3.9687,-5.8125 5.0671,-3.57049 9.0511,-8.95367 8.6562,-15.4375 0.931,-27.61029 -0.5981,-57.17032 -15.4688,-81.21875 -5.6941,-9.52586 -15.7232,-15.85829 -26.8437,-15.84375 z M 428.5,215.46875 c 9.5216,0.0966 15.99098,10.20299 14.9375,19.25 -0.013,15.25173 1.55565,30.68312 0,45.84375 -1.98078,3.18771 -6.96003,-1.08537 -9.96875,-0.375 -5.3233,-0.50666 -10.66899,-0.35905 -16,-0.0625 10.90793,-4.31834 16.28447,-16.55401 14.46875,-27.8125 -0.39827,-9.71901 -7.86124,-19.52026 -17.1875,-22.125 -5.71936,0.48022 -1.37674,-6.31856 0.21875,-8.53125 2.93543,-4.03905 7.70415,-6.11817 12.59375,-6.15625 0.31335,-0.018 0.63035,-0.0344 0.9375,-0.0312 z m 147.03125,6.09375 c 2.66251,0.29354 5.70354,4.03037 0.625,3.375 -17.53451,1.4615 -29.44531,22.04305 -21.96875,37.90625 -0.37316,1.52939 -4.95318,-2.10202 -6.5,-3.25 -4.50577,-5.70668 2.21321,-12.69986 4.75,-17.8125 5.72098,-8.12455 12.63479,-18.09796 23.09375,-20.21875 z m -248.5,6.125 c 3.9495,11.75829 2.69723,24.75658 3.84375,37.03125 -7.42131,0.1619 -15.51151,2.06367 -22.65625,1.0625 4.44047,-13.1403 9.10888,-27.77271 18.5,-38 0.0981,-0.0434 0.19899,-0.0787 0.3125,-0.0937 z M 1213.625,227.75 c 3.0966,12.05636 2.9901,24.69165 3.5938,37.0625 -7.4196,1.17241 -15.0188,0.85493 -22.5,0.5625 3.6585,-11.93426 8.2116,-24.02077 15.3437,-34.28125 1.0151,-1.04677 2.2635,-3.19645 3.5625,-3.34375 z m -113.75,46.84375 c 1.9128,18.43035 0.4236,37.35164 -2.1875,55.71875 -0.1945,5.34097 -3.7119,9.77289 -6.9063,13.34375 -1.9702,-19.77167 -0.3958,-39.98164 -0.9062,-59.90625 3.3323,-2.81716 6.4595,-7.25916 10,-9.15625 z m -55.75,14.9375 c 2.1394,-0.28948 2.3519,3.86868 1.8438,9.65625 0.021,1.31135 0.041,2.59489 0.062,3.90625 -0.049,11.00522 0.047,23.89347 -1.4062,33.75 -4.8477,-2.94284 -8.0914,-6.16128 -6.4375,-12.40625 0.5346,-10.00177 -1.1475,-21.02829 0.8125,-30.40625 2.3544,-2.97585 4.0044,-4.34837 5.125,-4.5 z m -351.46875,0.875 c 0.80497,0.0377 1.16979,0.98583 0.84375,3.40625 l 0,16.5 c -0.20864,6.97396 0.31747,15.01737 -0.375,21.40625 -3.40383,-2.29295 -8.29246,-3.05669 -11.71875,-4.15625 -1.19275,-9.197 -0.19634,-18.6579 -0.5,-27.9375 3.03029,-1.25067 9.33509,-9.33175 11.75,-9.21875 z m -377.75,14.34375 c 3.27834,0.0815 1.50749,3.04795 0.0312,6.6875 -2.41583,6.02922 0.66103,14.22574 1.21875,18.6875 -6.90788,-6.2176 -9.57384,-16.01018 -10.71875,-24.9375 l 6.34375,0 c 1.3621,-0.3147 2.36846,-0.45631 3.125,-0.4375 z m 887.71875,0.53125 c 1.1168,0.0178 1.7754,0.25743 0.5312,1.4375 -4.361,7.17559 -3.3423,17.16631 0.031,23.96875 -6.6423,-4.84928 -8.9315,-13.63326 -11.0313,-21.1875 -2.7465,-4.75122 3.1097,-3.76885 6.1876,-4.15625 0.3317,0.0284 0.6375,-0.0349 0.9687,-0.0312 0.6074,0.17951 2.1957,-0.049 3.3125,-0.0312 z M 425.5,320.46875 c 5.21559,0.051 10.70766,0.0835 15.4375,2.5625 -9.64799,3.8813 -21.8902,4.65524 -31.25,-0.0937 4.24833,-2.45682 10.78585,-2.15628 15.8125,-2.46875 z"
       transform="translate(-202.0305,349.29602)"
       id="path3829"
       inkscape:connector-curvature="0" />
    <path
       style="font-size:392.38153076px;font-style:normal;font-variant:normal;font-weight:normal;font-stretch:normal;text-indent:0;text-align:start;text-decoration:none;line-height:125%;letter-spacing:0px;word-spacing:0px;text-transform:none;direction:ltr;block-progression:tb;writing-mode:lr-tb;text-anchor:start;color:#000000;fill:#ffd401;fill-opacity:1;fill-rule:nonzero;stroke:none;stroke-width:1px;marker:none;visibility:visible;font-family:BoyzRGross;-inkscape-font-specification:BoyzRGross"
       d="m 713.6875,472.6875 c -3.58283,2.6e-4 -6.82584,1.18657 -9.71875,3.5625 -2.89321,2.37642 -4.20676,5.81976 -3.9375,10.3125 l 0,3 -109.125,0.375 0,-0.375 c 0.54662,-4.50039 -0.60696,-7.99771 -3.5,-10.5 -2.8931,-2.50179 -6.1361,-3.8494 -9.71875,-4.09375 -0.27757,2.4e-4 -0.49046,2.4e-4 -0.625,0 -0.13459,2.4e-4 -0.3475,2.4e-4 -0.625,0 -3.30518,0.24435 -6.33527,1.46869 -9.09375,3.71875 -2.75851,2.25056 -4.12503,5.50135 -4.125,9.75 l -2.0625,38.625 c -0.26915,4.50081 1.01317,7.99816 3.90625,10.5 2.89305,2.50223 6.13603,3.75018 9.71875,3.75 0.26909,1.8e-4 0.48621,1.8e-4 0.625,0 0.13875,1.8e-4 0.34745,1.8e-4 0.625,0 3.30513,1.8e-4 6.33521,-1.12451 9.09375,-3.375 2.75846,-2.25012 4.2621,-5.50091 4.53125,-9.75 l 0.4375,-12.75 47.9375,0 0,186.71875 -11.15625,0 c -4.95359,0.25174 -8.67534,1.68843 -11.15625,4.3125 -2.48104,2.62411 -3.71881,5.56291 -3.71875,8.8125 0.27748,3.24962 1.6482,6.18842 4.125,8.8125 2.47671,2.62409 6.19423,3.9375 11.15625,3.9375 l 47.5625,-1.5 c 4.68428,0 8.24185,-1.18633 10.71875,-3.5625 2.47664,-2.37618 3.84733,-5.06462 4.125,-8.0625 -1.5e-4,-0.25172 -1.5e-4,-0.44044 0,-0.5625 -1.5e-4,-0.12204 -1.5e-4,-0.31076 0,-0.5625 -1.5e-4,-0.25172 -1.5e-4,-0.43662 0,-0.5625 -1.5e-4,-0.12586 -1.5e-4,-0.31838 0,-0.5625 -0.27767,-2.75375 -1.6971,-5.31511 -4.3125,-7.6875 -2.61566,-2.37234 -6.28447,-3.56248 -10.96875,-3.5625 l -7.84375,0 0,-185.96875 34.71875,-0.375 0,6.375 c 0.26895,4.74494 1.85256,8.18444 4.75,10.3125 2.8971,2.12846 6.1359,3.18769 9.71875,3.1875 3.85164,1.9e-4 7.14758,-1.18612 9.90625,-3.5625 2.75834,-2.37597 3.9961,-5.81167 3.71875,-10.3125 l -0.8125,-35.25 c -0.26929,-4.24865 -1.80416,-7.49944 -4.5625,-9.75 -2.75865,-2.25006 -5.78876,-3.37474 -9.09375,-3.375 -0.27769,2.6e-4 -0.45936,2.6e-4 -0.59375,0 -0.13474,2.6e-4 -0.34762,2.6e-4 -0.625,0 z m -275.15625,27 c -4.40689,2.4e-4 -7.80986,1.18655 -10.15625,3.5625 -2.3464,2.3764 -3.50001,4.94157 -3.5,7.6875 -10e-6,3.00571 1.10484,5.62871 3.3125,7.875 2.20762,2.24671 5.49936,3.49848 9.90625,3.75 l 7.4375,0 0,165.71875 -7.4375,0.75 c -3.86023,0.5035 -6.81033,1.81308 -8.875,3.9375 -2.06468,2.12447 -3.09375,4.56639 -3.09375,7.3125 l 0,0.1875 0,0.5625 0,0.5625 0,0.1875 c 0.54665,2.50206 1.78863,4.75143 3.71875,6.75 1.9301,1.99859 4.66731,3.00002 8.25,3 0.55506,2e-5 1.05664,2e-5 1.46875,0 0.41207,2e-5 0.75371,2e-5 1.03125,0 l 38.4375,-3.375 c 3.86017,-0.49582 6.75733,-1.75139 8.6875,-3.75 1.93004,-1.99856 3.01205,-4.24792 3.28125,-6.75 -6e-5,-0.25169 -6e-5,-0.43661 0,-0.5625 -6e-5,-0.12583 -6e-5,-0.31836 0,-0.5625 -0.2692,-0.25169 -0.40631,-0.4366 -0.40625,-0.5625 -6e-5,-0.12582 -6e-5,-0.31073 0,-0.5625 -0.27759,-2.7461 -1.38246,-5.06093 -3.3125,-6.9375 -1.93018,-1.87649 -4.66737,-2.81246 -8.25,-2.8125 -0.2776,4e-5 -0.61921,4e-5 -1.03125,0 -0.41215,4e-5 -0.91376,4e-5 -1.46875,0 l -6.1875,0.375 0,-40.875 29.75,-24.375 0,88.125 -9.5,1.875 c -3.58275,0.49585 -6.31995,1.74761 -8.25,3.75 -1.93016,2.0024 -2.90631,4.25559 -2.90625,6.75 -6e-5,0.25172 -6e-5,0.49827 0,0.75 -6e-5,0.25172 -6e-5,0.375 0,0.375 -6e-5,0.24411 0.0799,0.49826 0.21875,0.75 0.13886,0.25173 0.18743,0.49826 0.1875,0.75 0.54659,2.25031 1.86857,4.31479 3.9375,6.1875 2.0688,1.87272 4.75727,2.93577 8.0625,3.1875 l 0.8125,0 0.84375,0 c 0.27746,0 0.5391,-0.0616 0.8125,-0.1875 0.27326,-0.12586 0.56614,-0.0642 0.84375,0.1875 l 41.34375,-6.75 c 3.58256,-0.50346 6.27102,-1.81305 8.0625,-3.9375 1.79121,-2.12445 2.81609,-4.44308 3.09375,-6.9375 -1.4e-4,-0.25172 -1.4e-4,-0.43662 0,-0.5625 -1.4e-4,-0.12585 -1.4e-4,-0.31076 0,-0.5625 -0.27766,-0.24408 -0.40639,-0.43662 -0.40625,-0.5625 -1.4e-4,-0.12586 -1.4e-4,-0.31075 0,-0.5625 -0.27766,-2.50202 -1.46251,-4.68976 -3.53125,-6.5625 -2.06901,-1.8727 -4.89459,-2.93575 -8.46875,-3.1875 -0.27765,3e-5 -0.56634,3e-5 -0.84375,0 -0.27766,3e-5 -0.53509,3e-5 -0.8125,0 -0.26924,0.25175 -0.53507,0.37503 -0.8125,0.375 -0.27765,3e-5 -0.56633,3e-5 -0.84375,0 l -6.625,1.5 0,-85.46875 c -1.1e-4,-0.74745 -1.1e-4,-1.43688 0,-2.0625 -1.1e-4,-0.62541 -1.1e-4,-1.18394 0,-1.6875 -0.27764,-4.50052 -0.88091,-8.81436 -1.84375,-12.9375 -0.96306,-4.1229 -2.54666,-7.43533 -4.75,-9.9375 -1.10182,-1.24325 -2.3396,-2.24849 -3.71875,-3 -1.37937,-0.75124 -3.04292,-1.12486 -4.96875,-1.125 -2.20351,1.4e-4 -4.812,0.62412 -7.84375,1.875 -3.03191,1.25116 -6.48362,3.37726 -10.34375,6.375 l -21.5,16.875 0,-91.875 2.0625,0 10.75,0.75 c 4.12929,2.1e-4 7.37647,-0.9974 9.71875,-3 2.34213,-2.0022 3.78861,-4.1321 4.34375,-6.375 -8e-5,-0.25152 -8e-5,-0.55969 0,-0.9375 -8e-5,-0.37738 -8e-5,-0.69319 0,-0.9375 -8e-5,-3.00529 -1.10914,-5.75155 -3.3125,-8.25 -2.20351,-2.498 -5.52229,-3.74977 -9.9375,-3.75 l -45.4375,-0.375 z M -21.8125,524.40625 c -0.585742,-0.0135 -1.192266,-1.9e-4 -1.8125,0.0312 l -42.59375,1.875 c -4.961953,0.25193 -8.67529,1.68862 -11.15625,4.3125 -2.480974,2.62429 -3.590035,5.68636 -3.3125,9.1875 0.55506,3.24979 2.081526,6.12696 4.5625,8.625 2.480962,2.49841 6.331426,3.62692 11.5625,3.375 l 5.375,-0.375 4.15625,154.84375 c -2.8e-5,3.24961 1.450657,6.06514 4.34375,8.4375 2.893028,2.37237 6.104772,3.56251 9.6875,3.5625 l 0.21875,0 0.625,0 0.625,0 0.1875,0 67.8125,-7.5 0,3 c 0.546541,4.50063 2.258868,7.81305 5.15625,9.9375 2.897148,2.12444 6.135939,3.1875 9.71875,3.1875 3.582558,-0.25173 6.825552,-1.43805 9.71875,-3.5625 2.892923,-2.12445 4.18364,-5.56013 3.90625,-10.3125 l -1.625,-44.625 c -0.277671,-4.24884 -1.80834,-7.49962 -4.5625,-9.75 -2.754428,-2.25025 -5.780312,-3.37493 -9.09375,-3.375 -0.269247,7e-5 -0.486361,7e-5 -0.625,0 -0.13889,7e-5 -0.347594,7e-5 -0.625,0 -3.58281,7e-5 -6.74582,1.25184 -9.5,3.75 -2.754409,2.49829 -3.996392,5.99943 -3.71875,10.5 l 0.40625,15.75 -54.96875,6 -3.71875,-140.96875 8.65625,0 c 4.684341,-0.25156 8.216021,-1.56496 10.5625,-3.9375 2.3463346,-2.37219 3.6370515,-4.93354 3.90625,-7.6875 -7.61e-5,-0.25154 -7.61e-5,-0.56353 0,-0.9375 -7.61e-5,-0.37359 -7.61e-5,-0.68557 0,-0.9375 -7.61e-5,-3.24941 -1.3707776,-6.18822 -4.125,-8.8125 -2.41007,-2.29591 -5.649806,-3.49933 -9.75,-3.59375 z m 247.15625,9.03125 c -14.33081,1.9e-4 -26.2737,4.87637 -35.78125,14.625 -9.50759,9.74897 -14.25001,21.12673 -14.25,34.125 -1e-5,2.25045 0.28867,4.81182 0.84375,7.6875 0.55506,2.87595 1.36701,5.93802 2.46875,9.1875 2.20342,5.99587 5.49935,11.56148 9.90625,16.6875 4.40684,5.12625 9.94374,7.68761 16.5625,7.6875 5.50855,1.1e-4 9.78061,-1.87564 12.8125,-5.625 3.03177,-3.74913 4.53118,-7.99753 4.53125,-12.75 -7e-5,-0.25161 -7e-5,-0.44033 0,-0.5625 -7e-5,-0.12193 -7e-5,-0.31066 0,-0.5625 -0.27759,-4.24878 -1.93698,-8.18899 -4.96875,-11.8125 -3.03188,-3.62325 -7.14398,-5.43735 -12.375,-5.4375 -0.27757,1.5e-4 -0.61919,1.5e-4 -1.03125,0 -0.41214,1.5e-4 -0.78502,1.5e-4 -1.0625,0 -0.27758,0.24425 -0.48628,0.37513 -0.625,0.375 -0.13882,1.3e-4 -0.32467,1.3e-4 -0.59375,0 -0.27757,-1.25088 -0.56625,-2.31394 -0.84375,-3.1875 -0.27757,-0.87329 -0.40629,-1.43563 -0.40625,-1.6875 -4e-5,-6.49906 2.2626,-12.50373 6.8125,-18 4.54979,-5.49593 10.56544,-8.24983 18,-8.25 7.72037,1.7e-4 13.78054,2.75407 18.1875,8.25 4.40678,5.49627 6.59367,11.50094 6.59375,18 -8e-5,1.4e-4 -8e-5,5.24996 0,15.75 -8e-5,10.50032 -8e-5,21.9739 0,34.46875 -8e-5,1.75457 -8e-5,3.53448 0,5.28125 -8e-5,1.74693 -8e-5,3.49561 0,5.25 -2.47264,-0.9992 -4.95661,-1.87353 -7.4375,-2.625 -2.48104,-0.75128 -5.08532,-1.37909 -7.84375,-1.875 -1.92598,-0.50338 -3.85121,-0.81155 -5.78125,-0.9375 -1.93018,-0.1259 -3.85541,-0.21867 -5.78125,-0.21875 -2.21191,8e-5 -4.63451,0.1546 -7.25,0.40625 -2.61558,0.25181 -5.17532,0.59802 -7.65625,1.09375 -9.09132,1.99867 -17.41835,5.75016 -25,11.25 -7.58168,5.49998 -11.375,13.00298 -11.375,22.5 0,9.0013 3.79332,16.25012 11.375,21.75 7.58165,5.49995 15.90868,9.25144 25,11.25 2.48093,0.50347 5.04067,0.87711 7.65625,1.125 2.61549,0.24795 5.03809,0.37502 7.25,0.375 2.20338,2e-5 4.39025,-0.0616 6.59375,-0.1875 2.20338,-0.12585 4.42149,-0.44166 6.625,-0.9375 3.58262,-0.50344 7.03431,-1.31232 10.34375,-2.4375 3.30927,-1.12513 6.47228,-2.44236 9.5,-3.9375 1.65669,2.49444 3.91935,4.62436 6.8125,6.375 2.89297,1.75069 6.13596,2.74828 9.71875,3 7.16526,2e-5 12.6751,-2.31099 16.53125,-6.9375 3.85589,-4.62646 6.20694,-9.81845 7.03125,-15.5625 0.27741,-0.99925 0.4861,-1.93522 0.625,-2.8125 0.13874,-0.8772 0.18736,-1.81316 0.1875,-2.8125 -1.4e-4,-2.74609 -0.47467,-5.37291 -1.4375,-7.875 -0.96309,-2.50199 -4.59643,-3.88084 -10.9375,-4.125 -2.20355,6e-5 -4.07585,0.25041 -5.59375,0.75 -1.51814,0.4997 -2.83588,1.00422 -3.9375,1.5 -10e-5,-2.25025 -10e-5,-4.75379 0,-7.5 -10e-5,-2.74607 -10e-5,-5.71908 0,-8.96875 -10e-5,-3.75298 -10e-5,-7.65519 0,-11.65625 -10e-5,-4.00088 -10e-5,-7.9715 0,-11.96875 -10e-5,-12.24312 -10e-5,-23.43597 0,-33.5625 -10e-5,-10.12628 -10e-5,-15.18736 0,-15.1875 -10e-5,-12.99827 -4.69378,-24.37603 -14.0625,-34.125 -9.3689,-9.74863 -21.32929,-14.62481 -35.9375,-14.625 z m 149.09375,3.375 c -6.8879,1.9e-4 -13.58681,1.43687 -20.0625,4.3125 -6.47579,2.876 -12.45178,6.81622 -17.96875,11.8125 -4.96197,4.00496 -9.36277,8.5037 -13.21875,13.5 -3.85605,4.9966 -7.17901,10.11934 -9.9375,15.375 -1.37925,2.74629 -2.48835,5.56182 -3.3125,8.4375 -0.82421,2.87596 -1.50744,5.56821 -2.0625,8.0625 -0.26912,1.7546 -0.45501,3.5649 -0.59375,5.4375 -0.13876,1.87283 -0.21876,3.68313 -0.21875,5.4375 -0.27754,9.24545 1.90933,16.31319 6.59375,21.1875 4.68439,4.87451 10.48714,8.66019 17.375,11.40625 1.93429,0.75528 3.80238,1.46832 5.59375,2.09375 1.7913,0.62559 3.63654,1.31502 5.5625,2.0625 1.3792,0.49592 2.69697,0.96919 3.9375,1.46875 1.24043,0.49973 2.55821,0.99663 3.9375,1.5 3.02758,1.2511 6.11061,2.40703 9.28125,3.40625 3.17054,0.99936 6.28482,1.84626 9.3125,2.59375 5.78605,1.25109 10.10686,3.81244 13,7.6875 2.89298,3.87517 4.76105,8.06193 5.59375,12.5625 -10e-5,0.25179 -10e-5,0.50213 0,0.75 -10e-5,0.24796 -10e-5,0.49832 0,0.75 -10e-5,0.25178 -10e-5,0.50213 0,0.75 -10e-5,0.24797 -10e-5,0.49832 0,0.75 -10e-5,4.50068 -1.36659,8.68743 -4.125,12.5625 -2.75856,3.87515 -7.02647,6.5674 -12.8125,8.0625 -1.1018,0.25175 -2.29082,0.43667 -3.53125,0.5625 -1.24055,0.12591 -2.5583,0.18752 -3.9375,0.1875 -1.10177,2e-5 -2.25958,-0.0616 -3.5,-0.1875 -1.24055,-0.12589 -2.39834,-0.18748 -3.5,-0.1875 -1.10177,-0.2517 -2.29081,-0.50205 -3.53125,-0.75 -1.24053,-0.24789 -2.39833,-0.49824 -3.5,-0.75 1.10167,-1.75445 1.91785,-3.50312 2.46875,-5.25 0.55083,-1.74682 0.81245,-3.49549 0.8125,-5.25 -5e-5,-0.24407 -5e-5,-0.49823 0,-0.75 -5e-5,-0.25169 -5e-5,-0.49823 0,-0.75 -0.26918,-0.24406 -0.37504,-0.49823 -0.375,-0.75 -4e-5,-0.25169 -4e-5,-0.49823 0,-0.75 -0.27759,-3.99713 -1.80826,-7.43663 -4.5625,-10.3125 -2.75434,-2.87577 -6.47188,-4.68988 -11.15625,-5.4375 -0.27756,5e-5 -0.48627,5e-5 -0.625,0 -0.13874,5e-5 -0.21879,5e-5 -0.21875,0 -0.27758,5e-5 -0.48626,5e-5 -0.625,0 -0.13879,5e-5 -0.32467,5e-5 -0.59375,0 -5.51703,5e-5 -10.36649,1.93744 -14.5,5.8125 -4.13357,3.87517 -6.58208,8.31608 -7.40625,13.3125 l 0,0.75 0,0.75 c -0.27756,0.5035 -0.43751,0.87713 -0.4375,1.125 l 0,0.75 c -10e-6,0.99934 0.08,2.06239 0.21875,3.1875 0.13875,1.12519 0.34745,2.18823 0.625,3.1875 0.54665,2.7538 1.57571,5.37679 3.09375,7.875 1.51799,2.49824 3.23033,4.62817 5.15625,6.375 3.86019,3.50135 8.68258,6.3747 14.46875,8.625 5.78607,2.25032 11.71754,3.75245 17.78125,4.5 1.65672,0.25174 3.23613,0.43664 4.75,0.5625 1.51376,0.1259 2.96445,0.1875 4.34375,0.1875 3.02757,0 5.84894,-0.18491 8.46875,-0.5625 2.61966,-0.37759 5.04649,-0.81666 7.25,-1.3125 13.50648,-3.50133 23.27999,-9.69092 29.34375,-18.5625 6.06355,-8.87154 8.80494,-18.31192 8.25,-28.3125 -0.27764,-10.25221 -3.78228,-19.72297 -10.53125,-28.46875 -6.74917,-8.74562 -16.31399,-14.75031 -28.71875,-18 -2.20352,-0.50336 -4.63034,-1.18897 -7.25,-2.0625 -2.6198,-0.87332 -5.28122,-1.81309 -8.03125,-2.8125 -3.03609,-0.99917 -6.01324,-2.12388 -8.90625,-3.375 -2.89311,-1.25091 -5.58156,-2.49887 -8.0625,-3.75 -2.48099,-1.50264 -4.53497,-3.18967 -6.1875,-5.0625 -1.65262,-1.87261 -2.50004,-4.31451 -2.5,-7.3125 -4e-5,-0.50334 -4e-5,-1.06188 0,-1.6875 -4e-5,-0.6254 0.15993,-1.19154 0.4375,-1.6875 0.27749,-2.25019 1.30656,-5.0619 3.09375,-8.4375 1.78709,-3.37534 3.92524,-6.94192 6.40625,-10.6875 1.10167,-1.25088 2.12654,-2.49884 3.09375,-3.75 0.9671,-1.25088 1.99199,-2.49883 3.09375,-3.75 2.2034,-2.49426 4.55022,-4.74744 7.03125,-6.75 2.4809,-2.00223 5.11643,-3.62381 7.875,-4.875 1.10166,-0.49566 2.3124,-0.93855 3.6875,-1.3125 1.37499,-0.37362 2.61695,-0.56233 3.71875,-0.5625 0.555,1.7e-4 0.97659,1.7e-4 1.25,0 0.27323,1.7e-4 0.69486,1.7e-4 1.25,0 0.27746,1.7e-4 0.61908,0.0656 1.03125,0.1875 0.41203,0.12222 0.75365,0.31093 1.03125,0.5625 2.48088,0.99945 4.48609,2.74812 6,5.25 1.51372,2.50221 2.53859,5.00574 3.09375,7.5 -10e-5,0.99944 0.0799,2.00086 0.21875,3 0.13875,0.99944 0.1874,1.99322 0.1875,3 -10e-5,0.49598 -10e-5,1.06214 0,1.6875 -10e-5,0.62565 -10e-5,1.19182 0,1.6875 -1.11023,-0.49568 -2.3438,-1.00021 -3.71875,-1.5 -1.37515,-0.4995 -3.0345,-0.87312 -4.96875,-1.125 -5.78619,-0.49569 -10.66153,1.1259 -14.65625,4.875 -3.99483,3.74939 -6.12878,8.12868 -6.40625,13.125 -4e-5,6.24759 2.68841,11.18924 8.0625,14.8125 5.37396,3.6235 11.34995,5.30671 17.96875,5.0625 6.05516,10e-5 11.35631,-1.43655 15.90625,-4.3125 4.54975,-2.87571 8.08144,-6.68502 10.5625,-11.4375 1.92581,-3.49358 3.37648,-7.12562 4.34375,-10.875 0.96705,-3.74911 1.4374,-7.62007 1.4375,-11.625 -10e-5,-8.99348 -2.26276,-17.56332 -6.8125,-25.6875 -4.54995,-8.12382 -11.37756,-13.81271 -20.46875,-17.0625 -1.1018,-0.50327 -2.25961,-0.93853 -3.5,-1.3125 -1.24058,-0.37359 -2.42962,-0.56231 -3.53125,-0.5625 -1.37934,-0.25154 -2.61711,-0.43645 -3.71875,-0.5625 -1.1018,-0.1257 -2.33956,-0.18731 -3.71875,-0.1875 z m -247.375,8.25 c -12.4049,1.8e-4 -22.52005,4.99963 -30.375,15 -7.855025,10.0007 -13.999388,21.00102 -18.40625,33 -2.203448,6.49934 -4.048699,12.87765 -5.5625,19.125 -1.513818,6.24758 -2.538691,11.62448 -3.09375,16.125 -0.277536,1.74696 -0.486238,3.59526 -0.625,5.59375 -0.138769,1.99867 -0.218754,4.02513 -0.21875,6.03125 -4e-6,3.49378 0.208697,7.21785 0.625,11.21875 0.416291,4.00105 1.050807,8.12617 1.875,12.375 2.480962,11.74745 7.223372,22.56287 14.25,32.4375 7.026585,9.87471 17.14593,15.06668 30.375,15.5625 7.44285,0.50347 14.35045,-0.81374 20.6875,-3.9375 6.33692,-3.12371 11.68678,-7.06012 16.09375,-11.8125 2.20334,-2.7461 4.20855,-5.81199 6,-9.1875 1.79124,-3.37543 2.81613,-6.93438 3.09375,-10.6875 0.27742,-0.49578 0.43739,-1.06194 0.4375,-1.6875 -1.1e-4,-0.62546 -1.1e-4,-1.18398 0,-1.6875 -1.1e-4,-0.49578 -1.1e-4,-1.00029 0,-1.5 -1.1e-4,-0.49958 -0.16008,-0.99649 -0.4375,-1.5 -1.1e-4,-0.49577 -0.0488,-0.96904 -0.1875,-1.46875 -0.13884,-0.49958 -0.21886,-1.02773 -0.21875,-1.53125 -1.10183,-4.24884 -3.2887,-7.8458 -6.59375,-10.84375 -3.30525,-2.9978 -7.31567,-4.90099 -12,-5.65625 -0.2776,7e-5 -0.53925,-0.0341 -0.8125,-0.15625 -0.2734,-0.12187 -0.56628,-0.18743 -0.84375,-0.1875 -0.2776,7e-5 -0.53924,7e-5 -0.8125,0 -0.2734,7e-5 -0.56631,7e-5 -0.84375,0 -4.68448,7e-5 -8.82364,1.50221 -12.40625,4.5 -3.58274,2.99794 -5.76121,6.59492 -6.59375,10.84375 -5e-5,0.25179 -5e-5,0.50215 0,0.75 -5e-5,0.24799 -5e-5,0.49833 0,0.75 -0.26919,0.25179 -0.4063,0.4367 -0.40625,0.5625 -5e-5,0.12594 -5e-5,0.31845 0,0.5625 -5e-5,3.24966 0.94904,6.31173 2.875,9.1875 1.92586,2.87587 4.66726,5.05979 8.25,6.5625 -1.92595,1.7469 -4.11283,3.12575 -6.59375,4.125 -2.48102,0.99933 -4.95658,1.50004 -7.4375,1.5 -5.50863,-0.25169 -9.86069,-2.75141 -13.03125,-7.5 -3.17064,-4.74849 -5.570414,-9.87504 -7.21875,-15.375 -1.101751,-3.74538 -1.917931,-7.3736 -2.46875,-10.875 -0.550897,-3.50126 -0.843783,-6.25134 -0.84375,-8.25 l 55.8125,-2.21875 c 2.75841,9e-5 5.2827,-0.93589 7.625,-2.8125 2.3421,-1.87645 3.79699,-3.81382 4.34375,-5.8125 -1.1e-4,-0.50336 0.0799,-0.877 0.21875,-1.125 0.13875,-0.24782 0.18739,-0.49819 0.1875,-0.75 0.27745,-4.2488 0.3574,-10.18805 0.21875,-17.8125 -0.13887,-7.62425 -0.90209,-15.68958 -2.28125,-24.1875 -1.92599,-11.74724 -5.43486,-22.56267 -10.53125,-32.4375 -5.09658,-9.8745 -12.47873,-14.81232 -22.125,-14.8125 z m 886.3437,0 c -12.405,1.8e-4 -22.51999,4.99963 -30.37495,15 -7.85504,10.0007 -13.9994,21.00102 -18.40625,33 -2.20345,6.49934 -4.04869,12.87765 -5.5625,19.125 -1.51381,6.24758 -2.56992,11.62448 -3.125,16.125 -0.27752,1.74696 -0.48622,3.59526 -0.625,5.59375 -0.13875,1.99867 -0.1875,4.02513 -0.1875,6.03125 0,3.49378 0.20871,7.21785 0.625,11.21875 0.41631,4.00105 1.01955,8.12617 1.84375,12.375 2.48095,11.74745 7.25463,22.56287 14.28125,32.4375 7.02658,9.87471 17.14588,15.06668 30.375,15.5625 7.4427,0.50347 14.3192,-0.81374 20.6562,-3.9375 6.337,-3.12371 11.7181,-7.06012 16.125,-11.8125 2.2033,-2.7461 4.2086,-5.81199 6,-9.1875 1.7914,-3.37543 2.8161,-6.93438 3.0938,-10.6875 0.2773,-0.49578 0.4062,-1.06194 0.4062,-1.6875 0,-0.62546 0,-1.18398 0,-1.6875 0,-0.49578 0,-1.00029 0,-1.5 -10e-5,-0.49958 -0.1289,-0.99649 -0.4062,-1.5 -10e-5,-0.49577 -0.08,-0.96904 -0.2188,-1.46875 -0.1391,-0.49958 -0.1875,-1.02773 -0.1874,-1.53125 -1.102,-4.24884 -3.32,-7.8458 -6.625,-10.84375 -3.3054,-2.9978 -7.2845,-4.90099 -11.9688,-5.65625 -0.2777,7e-5 -0.5704,-0.0341 -0.8438,-0.15625 -0.2733,-0.12187 -0.5351,-0.18743 -0.8124,-0.1875 -0.2777,7e-5 -0.5706,7e-5 -0.8438,0 -0.2735,7e-5 -0.535,7e-5 -0.8125,0 -4.6845,7e-5 -8.8237,1.50221 -12.4063,4.5 -3.5828,2.99794 -5.7924,6.59492 -6.625,10.84375 l 0,0.75 0,0.75 c -0.269,0.25179 -0.4062,0.4367 -0.4062,0.5625 l 0,0.5625 c 0,3.24966 0.9802,6.31173 2.9062,9.1875 1.926,2.87587 4.6672,5.05979 8.25,6.5625 -1.926,1.7469 -4.1128,3.12575 -6.5937,4.125 -2.4811,0.99933 -4.9878,1.50004 -7.4687,1.5 -5.50863,-0.25169 -9.8295,-2.75141 -13.00005,-7.5 -3.17064,-4.74849 -5.60166,-9.87504 -7.25,-15.375 -1.10174,-3.74538 -1.91792,-7.3736 -2.46875,-10.875 -0.55088,-3.50126 -0.81253,-6.25134 -0.8125,-8.25 l 55.7813,-2.21875 c 2.7584,9e-5 5.3138,-0.93589 7.6562,-2.8125 2.342,-1.87645 3.797,-3.81382 4.3438,-5.8125 -1e-4,-0.50336 0.049,-0.877 0.1874,-1.125 0.1393,-0.24782 0.2187,-0.49819 0.2188,-0.75 0.2772,-4.2488 0.3574,-10.18805 0.2188,-17.8125 -0.139,-7.62425 -0.902,-15.68958 -2.2813,-24.1875 -1.926,-11.74724 -5.435,-22.56267 -10.5313,-32.4375 -5.0966,-9.8745 -12.4787,-14.81232 -22.125,-14.8125 z m -285.31245,15 c -5.2395,1.7e-4 -9.76901,2.06463 -13.625,6.1875 -3.85603,4.12318 -5.78127,9.061 -5.78125,14.8125 -2e-5,5.99588 1.92522,11.06078 5.78125,15.1875 3.85599,4.12697 8.3855,6.18762 13.625,6.1875 5.50855,1.2e-4 10.20222,-2.06053 14.0625,-6.1875 3.86016,-4.12672 5.78118,-9.19162 5.78125,-15.1875 -7e-5,-5.7515 -1.92109,-10.68932 -5.78125,-14.8125 -3.86028,-4.12287 -8.55395,-6.18733 -14.0625,-6.1875 z m -601.03125,7.5 c 3.3051,1.7e-4 5.73612,3.5013 7.25,10.5 1.51373,6.99899 2.40991,14.75235 2.6875,23.25 0.27736,3.75319 0.32618,7.50085 0.1875,11.25 -0.13886,3.74935 -0.18757,7.12723 -0.1875,10.125 l -41.34375,1.125 c 0.277487,-2.2502 1.089456,-5.93626 2.46875,-11.0625 1.379214,-5.12602 3.17152,-10.43745 5.375,-15.9375 2.75846,-7.24663 6.16143,-13.93692 10.15625,-20.0625 3.99474,-6.12526 8.44425,-9.18733 13.40625,-9.1875 z m 886.3437,0 c 3.3049,1.7e-4 5.705,3.5013 7.2188,10.5 1.5137,6.99899 2.41,14.75235 2.6875,23.25 0.2771,3.75319 0.3575,7.50085 0.2187,11.25 -0.139,3.74935 -0.2187,7.12723 -0.2187,10.125 L 982,623.8125 c 0.27749,-2.2502 1.08947,-5.93626 2.46875,-11.0625 1.37923,-5.12602 3.17153,-10.43745 5.375,-15.9375 2.75847,-7.24663 6.13012,-13.93692 10.125,-20.0625 3.99475,-6.12526 8.47555,-9.18733 13.43745,-9.1875 z m -225.31245,2.96875 c -3.85786,0.0669 -6.86042,1.14307 -9.03125,3.21875 -2.48098,2.37252 -3.9846,5.18803 -4.53125,8.4375 l 0,0.1875 0,0.5625 c -10e-6,3.24974 1.23779,6.18855 3.71875,8.8125 2.48098,2.62422 6.33142,4.06089 11.5625,4.3125 l 9.9375,0 -0.4375,90.71875 -3.71875,0 c -4.96195,4e-5 -8.6753,1.31344 -11.15625,3.9375 -2.48099,2.62412 -3.71876,5.56292 -3.71875,8.8125 l 0,0.5625 0,0.5625 c 0.2775,2.9979 1.64402,5.74797 4.125,8.25 2.48095,2.50205 6.06558,3.75002 10.75,3.75 l 28.9375,0 c 4.95346,0.24412 8.75519,-1.00004 11.375,-3.75 2.61966,-2.74994 3.90618,-5.75038 3.90625,-9 -7e-5,-0.24408 -7e-5,-0.55988 0,-0.9375 -7e-5,-0.37757 -0.12879,-0.81664 -0.40625,-1.3125 -0.2776,-2.25028 -1.43539,-4.37638 -3.5,-6.375 -2.06474,-1.99854 -4.88612,-3.2465 -8.46875,-3.75 l 0.40625,-47.25 23.96875,-21.34375 c 0.55498,6.24757 0.84366,13.00332 0.84375,20.25 -9e-5,7.24686 -9e-5,14.49567 0,21.75 -0.27762,1.99865 -0.43758,3.97022 -0.4375,5.96875 -8e-5,1.99863 -8e-5,4.00148 0,6 -0.27761,5.00413 -0.45928,9.87651 -0.59375,14.625 -0.13456,4.74858 -0.21881,9.3744 -0.21875,13.875 -3.58275,0.99931 -6.39994,2.69015 -8.46875,5.0625 -2.06894,2.37238 -2.96511,5.06465 -2.6875,8.0625 -7e-5,0.25174 -7e-5,0.43665 0,0.5625 -7e-5,0.12588 -7e-5,0.31078 0,0.5625 0.27745,2.74616 1.72813,5.24968 4.34375,7.5 2.61545,2.25031 6.25301,3.375 10.9375,3.375 l 23.96875,-0.75 c 4.9618,-0.49584 8.71062,-2.06339 11.1875,-4.6875 2.47664,-2.62408 3.55023,-5.56289 3.28125,-8.8125 -1.2e-4,-3.24959 -1.2379,-6.12293 -3.71875,-8.625 -2.48108,-2.50202 -6.06572,-3.74998 -10.75,-3.75 l 0.4375,-70.46875 c 0.82408,-0.74747 1.64445,-1.68724 2.46875,-2.8125 0.82407,-1.12506 1.79601,-2.18811 2.90625,-3.1875 0.82406,-0.75509 1.56025,-1.50233 2.25,-2.25 0.68951,-0.74746 1.45692,-1.50233 2.28125,-2.25 1.92578,-1.50264 3.7181,-2.81224 5.375,-3.9375 1.65667,-1.12505 3.16028,-1.68739 4.53125,-1.6875 3.03591,1.1e-4 5.11691,2.93892 6.21875,8.8125 1.10159,5.87379 1.65611,12.68736 1.65625,20.4375 -1.4e-4,5.49999 -0.29303,10.90727 -0.84375,16.28125 -0.55101,5.37411 -1.23845,10.68938 -2.0625,15.9375 -1.2e-4,0.99935 -0.0489,1.93913 -0.1875,2.8125 -0.13895,0.87348 -0.21888,1.68236 -0.21875,2.4375 -0.27767,1.99862 -0.5393,3.87438 -0.8125,5.625 -0.27346,1.75071 -0.56636,3.50319 -0.84375,5.25 -2.48112,1.25106 -4.40213,2.81482 -5.78125,4.6875 -1.37938,1.87275 -2.06263,3.93722 -2.0625,6.1875 -1.3e-4,0.25176 -1.3e-4,0.56375 0,0.9375 -1.3e-4,0.37381 -1.3e-4,0.6858 0,0.9375 0.27741,3.24963 1.85682,6.06134 4.75,8.4375 2.89292,2.37619 6.81918,3.43924 11.78125,3.1875 l 22.71875,-2.25 c 4.68424,-0.2441 8.22013,-1.68458 10.5625,-4.3125 2.34201,-2.62789 3.49981,-5.4396 3.5,-8.4375 -1.9e-4,-0.2517 -1.9e-4,-0.44042 0,-0.5625 -1.9e-4,-0.12203 -1.9e-4,-0.31074 0,-0.5625 -0.27771,-2.99784 -1.64842,-5.62465 -4.125,-7.875 -2.47696,-2.25028 -5.79993,-3.37496 -9.9375,-3.375 -0.27771,4e-5 -0.61931,4e-5 -1.03125,0 -0.41225,4e-5 -0.891,4e-5 -1.4375,0 0.26896,-0.99926 0.48608,-2.0623 0.625,-3.1875 0.13875,-1.12511 0.21858,-2.31143 0.21875,-3.5625 0.82402,-6.49916 1.6402,-12.9391 2.46875,-19.3125 0.82823,-6.37327 1.24985,-12.78197 1.25,-19.28125 -1.5e-4,-14.50107 -2.50697,-27.31552 -7.46875,-38.4375 -4.9621,-11.12176 -14.60689,-16.68737 -28.9375,-16.6875 -5.23118,1.3e-4 -10.02654,1.06319 -14.4375,3.1875 -4.41119,2.12458 -8.54613,4.81303 -12.40625,8.0625 -0.82427,-1.25089 -1.8846,-2.43722 -3.125,-3.5625 -1.24057,-1.12503 -2.66424,-2.06481 -4.3125,-2.8125 -1.65687,-0.74743 -3.31627,-1.30977 -4.96875,-1.6875 -1.65265,-0.37746 -3.44077,-0.69326 -5.375,-0.9375 -3.85189,1.3e-4 -7.70236,0.87828 -11.5625,2.625 -3.8603,1.74699 -7.31619,3.99636 -10.34375,6.75 l -5.375,5.25 0,-8.625 c 3.58262,-0.99917 6.14238,-2.62455 7.65625,-4.875 1.51374,-2.25017 2.24992,-4.75371 2.25,-7.5 -8e-5,-0.25159 -8e-5,-0.56358 0,-0.9375 -8e-5,-0.37363 -8e-5,-0.68563 0,-0.9375 -0.27761,-2.75362 -1.64829,-5.25336 -4.125,-7.5 -2.47682,-2.24634 -6.06566,-3.37484 -10.75,-3.375 l -33.0625,0 c -0.58555,-0.0314 -1.16763,-0.0408 -1.71875,-0.0312 z m -55.65625,41.625 c -0.46958,-0.0135 -0.95498,-2e-4 -1.4375,0.0312 l -19.03125,1.875 c -4.40689,0.2442 -7.75158,1.56143 -10.09375,3.9375 -2.34223,2.37628 -3.53126,5.188 -3.53125,8.4375 l 0,0.1875 0,0.53125 0,0.59375 0,0.1875 c 0.2691,3.24971 1.724,6.06142 4.34375,8.4375 2.61973,2.37627 6.55016,3.43932 11.78125,3.1875 l 4.53125,-0.375 2.5,47.59375 -5.78125,-0.375 c -4.96197,-0.50342 -8.88819,0.43637 -11.78125,2.8125 -2.89306,2.37622 -4.50374,5.18792 -4.78125,8.4375 -2e-5,0.25176 -2e-5,0.44048 0,0.5625 -2e-5,0.12209 -2e-5,0.31079 0,0.5625 -2e-5,2.99789 1.0561,5.80961 3.125,8.4375 2.06885,2.62792 5.44057,4.06841 10.125,4.3125 l 38.4375,3.75 0.8125,0 0.84375,0 c -5e-5,0.25174 0.12866,0.37501 0.40625,0.375 l 0.8125,0 c 4.13768,10e-6 7.32774,-1.18631 9.53125,-3.5625 2.20336,-2.37616 3.44113,-5.0646 3.71875,-8.0625 -9e-5,3e-5 -9e-5,-0.0616 0,-0.1875 -9e-5,-0.12584 -9e-5,-0.31074 0,-0.5625 -9e-5,-0.24407 -9e-5,-0.43662 0,-0.5625 -9e-5,-0.1259 -9e-5,-0.18748 0,-0.1875 -9e-5,-2.99785 -1.05619,-5.74792 -3.125,-8.25 -2.06894,-2.502 -5.44065,-3.88087 -10.125,-4.125 l -4.125,-0.375 -3.28125,-64.84375 c -0.27759,-3.50123 -1.93697,-6.56329 -4.96875,-9.1875 -2.65288,-2.29598 -5.6192,-3.4994 -8.90625,-3.59375 z M 223.28125,660.5625 c 1.37078,7e-5 3.16729,0.0959 5.375,0.34375 2.20756,0.24798 4.55021,0.62161 7.03125,1.125 3.58262,0.99936 6.87856,2.31276 9.90625,3.9375 3.02754,1.62486 4.53117,3.81641 4.53125,6.5625 -8e-5,2.5021 -1.50371,4.56274 -4.53125,6.1875 -3.02769,1.62485 -6.32363,2.93825 -9.90625,3.9375 -2.48104,0.50351 -4.82369,0.87712 -7.03125,1.125 -2.20771,0.24795 -4.00422,0.37503 -5.375,0.375 -1.37931,3e-5 -3.16742,-0.12705 -5.375,-0.375 -2.2077,-0.24788 -4.55034,-0.74476 -7.03125,-1.5 -3.58274,-0.74751 -6.82573,-1.93765 -9.71875,-3.5625 -2.89311,-1.62476 -4.34377,-3.6854 -4.34375,-6.1875 -2e-5,-2.74609 1.45064,-4.93764 4.34375,-6.5625 2.89302,-1.62474 6.13601,-2.78362 9.71875,-3.53125 2.48091,-0.75512 4.82355,-1.28327 7.03125,-1.53125 2.20758,-0.24785 3.99569,-0.34368 5.375,-0.34375 z"
       id="path4134"
       inkscape:connector-curvature="0" />
  </g>
</svg>
