<svg id="Layer_1" data-name="Layer 1" xmlns="http://www.w3.org/2000/svg" viewBox="0 0 19.59 15.84"><defs><style>.cls-1{fill:#989aaa;}.cls-1,.cls-10,.cls-11,.cls-12,.cls-13,.cls-3,.cls-4,.cls-5,.cls-7{fill-rule:evenodd;}.cls-2{fill:#4b2530;}.cls-3{fill:#7b5c62;}.cls-4{fill:#67444d;}.cls-5{fill:#b8b9c2;}.cls-6,.cls-7{fill:#8bccd2;}.cls-8{fill:#978b9c;}.cls-10,.cls-9{fill:#e0e2e2;}.cls-11{fill:#bce4e3;}.cls-12{fill:#554e64;}.cls-13{fill:#756e83;}</style></defs><title>Untitled-18</title><path class="cls-1" d="M10,16.75h0a0.23,0.23,0,0,0,.23-0.23V14.77A0.23,0.23,0,0,0,10,14.54h0a0.23,0.23,0,0,0-.23.23v1.75A0.23,0.23,0,0,0,10,16.75Z" transform="translate(-0.25 -1.42)"/><path class="cls-2" d="M10,16.85a0.33,0.33,0,0,1-.33-0.33V14.77a0.33,0.33,0,1,1,.65,0v1.75A0.33,0.33,0,0,1,10,16.85Zm0-2.21a0.13,0.13,0,0,0-.12.13v1.75a0.12,0.12,0,1,0,.25,0V14.77A0.13,0.13,0,0,0,10,14.65Z" transform="translate(-0.25 -1.42)"/><path class="cls-3" d="M9.31,15.73h0a0.5,0.5,0,0,1,.49.5v0.44a0.5,0.5,0,0,1-.49.5h0a0.5,0.5,0,0,1-.49-0.5V16.22A0.5,0.5,0,0,1,9.31,15.73Z" transform="translate(-0.25 -1.42)"/><path class="cls-4" d="M9.31,15.73h0a0.5,0.5,0,0,1,.49.5v0.44a0.5,0.5,0,0,1-.49.5h0a0.5,0.5,0,0,1-.49-0.5V16.22A0.5,0.5,0,0,1,9.31,15.73Z" transform="translate(-0.25 -1.42)"/><path class="cls-3" d="M9.31,15.73h0a0.42,0.42,0,1,1,0,.83h0A0.42,0.42,0,1,1,9.31,15.73Z" transform="translate(-0.25 -1.42)"/><path class="cls-2" d="M9.31,17.26a0.6,0.6,0,0,1-.59-0.6V16.22a0.59,0.59,0,1,1,1.19,0v0.44A0.6,0.6,0,0,1,9.31,17.26Zm0-1.44a0.39,0.39,0,0,0-.39.4v0.44a0.39,0.39,0,0,0,.39.4h0a0.39,0.39,0,0,0,.39-0.4V16.22A0.39,0.39,0,0,0,9.31,15.83Z" transform="translate(-0.25 -1.42)"/><path class="cls-3" d="M10.74,15.73h0a0.5,0.5,0,0,1,.49.5v0.44a0.5,0.5,0,0,1-.49.5h0a0.5,0.5,0,0,1-.49-0.5V16.22A0.5,0.5,0,0,1,10.74,15.73Z" transform="translate(-0.25 -1.42)"/><path class="cls-4" d="M10.74,15.73h0a0.5,0.5,0,0,1,.49.5v0.44a0.5,0.5,0,0,1-.49.5h0a0.5,0.5,0,0,1-.49-0.5V16.22A0.5,0.5,0,0,1,10.74,15.73Z" transform="translate(-0.25 -1.42)"/><path class="cls-3" d="M10.74,15.73h0a0.42,0.42,0,1,1,0,.83h0A0.42,0.42,0,1,1,10.74,15.73Z" transform="translate(-0.25 -1.42)"/><path class="cls-2" d="M10.74,17.26a0.6,0.6,0,0,1-.59-0.6V16.22a0.59,0.59,0,1,1,1.19,0v0.44A0.6,0.6,0,0,1,10.74,17.26Zm0-1.44a0.39,0.39,0,0,0-.39.4v0.44a0.39,0.39,0,1,0,.78,0V16.22A0.39,0.39,0,0,0,10.74,15.83Z" transform="translate(-0.25 -1.42)"/><path class="cls-5" d="M0.88,8.89L5.69,9.62a5.51,5.51,0,0,0-.12,1.11s0,0.06,0,.09L0.76,9.75A0.43,0.43,0,0,1,.88,8.89Z" transform="translate(-0.25 -1.42)"/><path class="cls-5" d="M10,5c2.46,0,4.46,3.23,4.46,5.73a4.46,4.46,0,1,1-8.93,0C5.57,8.24,7.57,5,10,5Z" transform="translate(-0.25 -1.42)"/><path class="cls-1" d="M3.69,10.4v0.51a1.48,1.48,0,0,0-.68,0V10.25Z" transform="translate(-0.25 -1.42)"/><path class="cls-2" d="M3,11.06a0.15,0.15,0,0,1-.09,0,0.15,0.15,0,0,1-.06-0.12V10.25a0.15,0.15,0,0,1,.06-0.12,0.15,0.15,0,0,1,.13,0l0.68,0.15a0.15,0.15,0,0,1,.12.15v0.51a0.15,0.15,0,0,1-.06.12,0.15,0.15,0,0,1-.13,0,1.34,1.34,0,0,0-.62,0H3Zm0.15-.62v0.29a1.64,1.64,0,0,1,.38,0v-0.2Z" transform="translate(-0.25 -1.42)"/><ellipse class="cls-6" cx="3.1" cy="10.95" rx="1.49" ry="1.51"/><path class="cls-2" d="M3.35,14A1.66,1.66,0,1,1,5,12.37,1.65,1.65,0,0,1,3.35,14Zm0-3a1.36,1.36,0,1,0,1.34,1.36A1.35,1.35,0,0,0,3.35,11Z" transform="translate(-0.25 -1.42)"/><path class="cls-7" d="M4.77,5.66L7.6,6.09a5.94,5.94,0,0,0-.69.79l-2.25-.5a0.37,0.37,0,0,1,.11-0.72h0Zm10.53,0-2.84.43a5.94,5.94,0,0,1,.69.79l2.25-.5a0.37,0.37,0,0,0-.11-0.72h0ZM10,1.57h0a0.45,0.45,0,0,1,.44.45V5a2.82,2.82,0,0,0-.88,0V2A0.45,0.45,0,0,1,10,1.57Z" transform="translate(-0.25 -1.42)"/><path class="cls-5" d="M19.2,8.89l-4.81.73a5.51,5.51,0,0,1,.12,1.11s0,0.06,0,.09l4.81-1.07A0.43,0.43,0,0,0,19.2,8.89Z" transform="translate(-0.25 -1.42)"/><path class="cls-1" d="M16.39,10.4v0.51a1.48,1.48,0,0,1,.68,0V10.25Z" transform="translate(-0.25 -1.42)"/><path class="cls-2" d="M17.08,11.06h0a1.34,1.34,0,0,0-.62,0,0.15,0.15,0,0,1-.13,0,0.15,0.15,0,0,1-.06-0.12V10.4a0.15,0.15,0,0,1,.12-0.15L17,10.1a0.15,0.15,0,0,1,.13,0,0.15,0.15,0,0,1,.06.12v0.66a0.15,0.15,0,0,1-.06.12A0.15,0.15,0,0,1,17.08,11.06Zm-0.34-.35h0.19V10.44l-0.38.09v0.2h0.19Z" transform="translate(-0.25 -1.42)"/><ellipse class="cls-6" cx="16.49" cy="10.95" rx="1.49" ry="1.51"/><path class="cls-2" d="M16.73,14a1.66,1.66,0,1,1,1.64-1.66A1.65,1.65,0,0,1,16.73,14Zm0-3a1.36,1.36,0,1,0,1.34,1.36A1.35,1.35,0,0,0,16.73,11Z" transform="translate(-0.25 -1.42)"/><ellipse class="cls-8" cx="3.1" cy="10.95" rx="0.91" ry="0.92"/><path class="cls-2" d="M3.35,13.4a1,1,0,1,1,1-1A1,1,0,0,1,3.35,13.4Zm0-1.85a0.82,0.82,0,1,0,.81.82A0.82,0.82,0,0,0,3.35,11.55Z" transform="translate(-0.25 -1.42)"/><ellipse class="cls-9" cx="3.1" cy="10.95" rx="0.47" ry="0.47"/><path class="cls-2" d="M3.35,12.95a0.57,0.57,0,1,1,.57-0.57A0.57,0.57,0,0,1,3.35,12.95Zm0-.94a0.37,0.37,0,1,0,.37.37A0.37,0.37,0,0,0,3.35,12Z" transform="translate(-0.25 -1.42)"/><ellipse class="cls-8" cx="16.49" cy="10.95" rx="0.91" ry="0.92"/><path class="cls-2" d="M16.73,13.4a1,1,0,1,1,1-1A1,1,0,0,1,16.73,13.4Zm0-1.85a0.82,0.82,0,1,0,.81.82A0.82,0.82,0,0,0,16.73,11.55Z" transform="translate(-0.25 -1.42)"/><ellipse class="cls-9" cx="16.49" cy="10.95" rx="0.47" ry="0.47"/><path class="cls-2" d="M16.73,12.95a0.57,0.57,0,1,1,.57-0.57A0.57,0.57,0,0,1,16.73,12.95Zm0-.94a0.37,0.37,0,1,0,.37.37A0.37,0.37,0,0,0,16.73,12Z" transform="translate(-0.25 -1.42)"/><path class="cls-10" d="M10,5c2.46,0,4.46,3.23,4.46,5.73v0c0-2.17-2-5-4.46-5s-4.46,2.8-4.46,5v0C5.57,8.24,7.57,5,10,5Z" transform="translate(-0.25 -1.42)"/><path class="cls-1" d="M14.43,11.49a4.45,4.45,0,0,1-8.8,0A4.8,4.8,0,0,0,14.43,11.49Z" transform="translate(-0.25 -1.42)"/><path class="cls-2" d="M10,15.4a4.65,4.65,0,0,1-4.61-4.67A7,7,0,0,1,6.76,6.84a4.18,4.18,0,0,1,3.28-2,4.18,4.18,0,0,1,3.28,2,7,7,0,0,1,1.34,3.89A4.65,4.65,0,0,1,10,15.4ZM10,5.15c-2.32,0-4.31,3.07-4.31,5.58a4.31,4.31,0,1,0,8.62,0C14.35,8.22,12.36,5.15,10,5.15Z" transform="translate(-0.25 -1.42)"/><path class="cls-10" d="M10,12.5c-1.53,0-4.08-1.8-3.5-3.42,0,1,1.57,1.9,3.5,1.9s3.5-.85,3.5-1.9C14.11,10.71,11.56,12.5,10,12.5Z" transform="translate(-0.25 -1.42)"/><path class="cls-10" d="M0.88,8.89L5.69,9.62q0,0.16-.06.31L0.88,9.21a0.4,0.4,0,0,0-.46.26A0.42,0.42,0,0,1,.88,8.89h0Zm18.32,0-4.81.73q0,0.16.06,0.31l4.75-.72a0.4,0.4,0,0,1,.46.26A0.42,0.42,0,0,0,19.2,8.89Z" transform="translate(-0.25 -1.42)"/><path class="cls-2" d="M5.57,11h0L0.73,9.9A0.59,0.59,0,0,1,.25,9.24a0.56,0.56,0,0,1,.65-0.5L5.71,9.47a0.15,0.15,0,0,1,.1.06,0.15,0.15,0,0,1,0,.12,5.35,5.35,0,0,0-.12,1.08v0.09a0.15,0.15,0,0,1-.15.15h0ZM0.81,9a0.25,0.25,0,0,0-.25.24,0.29,0.29,0,0,0,.24.32l4.63,1a5.62,5.62,0,0,1,.09-0.88L0.86,9H0.81Z" transform="translate(-0.25 -1.42)"/><path class="cls-11" d="M4.77,5.73L7.6,6.16l-0.17.17-2.67-.4a0.34,0.34,0,0,0-.4.26,0.35,0.35,0,0,1,.4-0.45h0Zm10.53,0-2.84.43,0.17,0.17,2.67-.4a0.34,0.34,0,0,1,.4.26,0.35,0.35,0,0,0-.4-0.45h0ZM10,1.64h0a0.45,0.45,0,0,1,.44.45V2.28A0.45,0.45,0,0,0,10,1.83h0a0.45,0.45,0,0,0-.44.45V2.09A0.45,0.45,0,0,1,10,1.64Z" transform="translate(-0.25 -1.42)"/><path class="cls-2" d="M13.16,7A0.15,0.15,0,0,1,13,7a5.8,5.8,0,0,0-.68-0.77,0.15,0.15,0,0,1,0-.16,0.15,0.15,0,0,1,.12-0.11l2.84-.43a0.49,0.49,0,0,1,.58.45,0.52,0.52,0,0,1-.42.58L13.19,7h0ZM12.79,6.2a6.23,6.23,0,0,1,.44.52l2.15-.48A0.22,0.22,0,0,0,15.56,6a0.19,0.19,0,0,0-.19-0.18h0ZM6.91,7h0l-2.25-.5A0.52,0.52,0,0,1,4.21,6a0.49,0.49,0,0,1,.58-0.45L7.63,5.94A0.15,0.15,0,0,1,7.75,6a0.15,0.15,0,0,1,0,.16A5.79,5.79,0,0,0,7,7,0.15,0.15,0,0,1,6.91,7ZM4.7,5.81A0.19,0.19,0,0,0,4.51,6a0.22,0.22,0,0,0,.18.25L6.85,6.72A6.23,6.23,0,0,1,7.28,6.2L4.75,5.81h0Zm4.89-.62a0.15,0.15,0,0,1-.1,0A0.15,0.15,0,0,1,9.44,5V2a0.59,0.59,0,1,1,1.19,0V5a0.15,0.15,0,0,1-.05.12,0.15,0.15,0,0,1-.12,0,2.68,2.68,0,0,0-.84,0h0ZM10,4.85h0.29V2a0.29,0.29,0,1,0-.58,0V4.86H10Z" transform="translate(-0.25 -1.42)"/><path class="cls-12" d="M13,8a1.78,1.78,0,0,1,.5,1.12c0,1-1.57,1.9-3.5,1.9s-3.5-.85-3.5-1.9A1.78,1.78,0,0,1,7,8a0.16,0.16,0,0,1,.16,0A11.45,11.45,0,0,0,10,8.24a11.45,11.45,0,0,0,2.84-.33A0.16,0.16,0,0,1,13,8Z" transform="translate(-0.25 -1.42)"/><path class="cls-2" d="M10,11.08c-2,0-3.61-.9-3.61-2A1.88,1.88,0,0,1,7,7.9a0.26,0.26,0,0,1,.26-0.08A11.44,11.44,0,0,0,10,8.14a11.43,11.43,0,0,0,2.81-.32,0.26,0.26,0,0,1,.26.08,1.88,1.88,0,0,1,.53,1.19C13.64,10.19,12,11.08,10,11.08ZM7.15,8l0,0a1.68,1.68,0,0,0-.48,1.05c0,1,1.53,1.8,3.4,1.8s3.4-.81,3.4-1.8A1.68,1.68,0,0,0,13,8a0.06,0.06,0,0,0-.06,0A11.64,11.64,0,0,1,10,8.34,11.64,11.64,0,0,1,7.17,8h0Z" transform="translate(-0.25 -1.42)"/><path class="cls-13" d="M12.3,8.33a1.34,1.34,0,0,1,.38.84c0,0.79-1.18,1.43-2.64,1.43S7.39,10,7.39,9.17a1.34,1.34,0,0,1,.38-0.84,0.12,0.12,0,0,1,.12,0A8.64,8.64,0,0,0,10,8.54a8.64,8.64,0,0,0,2.14-.25A0.12,0.12,0,0,1,12.3,8.33Z" transform="translate(-0.25 -1.42)"/><path class="cls-2" d="M14.51,11a0.15,0.15,0,0,1-.1,0,0.15,0.15,0,0,1-.06-0.12s0-.06,0-0.09a5.35,5.35,0,0,0-.12-1.08,0.15,0.15,0,0,1,0-.12,0.15,0.15,0,0,1,.1-0.06l4.81-.73a0.56,0.56,0,0,1,.65.5,0.59,0.59,0,0,1-.47.65L14.55,11h0Zm0.06-1.22a5.63,5.63,0,0,1,.09.88l4.63-1a0.29,0.29,0,0,0,.24-0.32A0.25,0.25,0,0,0,19.28,9H19.22Z" transform="translate(-0.25 -1.42)"/><path class="cls-1" d="M6.53,14.63h0a0.23,0.23,0,0,0,.23-0.23V13.8a4.53,4.53,0,0,1-.45-0.58V14.4A0.23,0.23,0,0,0,6.53,14.63Z" transform="translate(-0.25 -1.42)"/><path class="cls-2" d="M6.53,14.73a0.33,0.33,0,0,1-.33-0.33V13.21a0.1,0.1,0,0,1,.07-0.1,0.1,0.1,0,0,1,.11,0,4.44,4.44,0,0,0,.44.57,0.1,0.1,0,0,1,0,.07V14.4A0.33,0.33,0,0,1,6.53,14.73Zm-0.12-1.2V14.4a0.12,0.12,0,1,0,.25,0V13.84Z" transform="translate(-0.25 -1.42)"/><path class="cls-3" d="M5.81,13.6h0a0.5,0.5,0,0,1,.49.5v0.44a0.5,0.5,0,0,1-.49.5h0a0.5,0.5,0,0,1-.49-0.5V14.1A0.5,0.5,0,0,1,5.81,13.6Z" transform="translate(-0.25 -1.42)"/><path class="cls-4" d="M5.81,13.6h0a0.5,0.5,0,0,1,.49.5v0.44a0.5,0.5,0,0,1-.49.5h0a0.5,0.5,0,0,1-.49-0.5V14.1A0.5,0.5,0,0,1,5.81,13.6Z" transform="translate(-0.25 -1.42)"/><path class="cls-3" d="M5.81,13.6h0A0.5,0.5,0,0,1,6.3,14a0.5,0.5,0,0,1-.49.42h0A0.5,0.5,0,0,1,5.33,14,0.5,0.5,0,0,1,5.81,13.6Z" transform="translate(-0.25 -1.42)"/><path class="cls-2" d="M5.81,15.14a0.6,0.6,0,0,1-.59-0.6V14.1a0.59,0.59,0,1,1,1.19,0v0.44A0.6,0.6,0,0,1,5.81,15.14Zm0-1.44a0.39,0.39,0,0,0-.39.4v0.44a0.39,0.39,0,1,0,.78,0V14.1A0.39,0.39,0,0,0,5.81,13.71Z" transform="translate(-0.25 -1.42)"/><path class="cls-3" d="M7.73,14.6a0.5,0.5,0,0,1-.49.44h0a0.5,0.5,0,0,1-.49-0.5V14.1a0.5,0.5,0,0,1,.06-0.24A4.5,4.5,0,0,0,7.73,14.6Z" transform="translate(-0.25 -1.42)"/><path class="cls-4" d="M7.73,14.6a0.5,0.5,0,0,1-.49.44h0a0.5,0.5,0,0,1-.49-0.5V14.1a0.5,0.5,0,0,1,.06-0.24A4.5,4.5,0,0,0,7.73,14.6Z" transform="translate(-0.25 -1.42)"/><path class="cls-3" d="M7.43,14.4a0.48,0.48,0,0,1-.19,0h0A0.5,0.5,0,0,1,6.76,14a0.5,0.5,0,0,1,.06-0.16A4.51,4.51,0,0,0,7.43,14.4Z" transform="translate(-0.25 -1.42)"/><path class="cls-2" d="M7.24,15.14a0.6,0.6,0,0,1-.59-0.6V14.1a0.6,0.6,0,0,1,.08-0.29,0.1,0.1,0,0,1,.16,0,4.4,4.4,0,0,0,.9.73,0.1,0.1,0,0,1,0,.1A0.6,0.6,0,0,1,7.24,15.14ZM6.85,14a0.41,0.41,0,0,0,0,.06v0.44a0.39,0.39,0,0,0,.77.11A4.6,4.6,0,0,1,6.85,14Z" transform="translate(-0.25 -1.42)"/><path class="cls-1" d="M13.54,14.63h0a0.23,0.23,0,0,0,.23-0.23V13.2a4.53,4.53,0,0,1-.45.59V14.4A0.23,0.23,0,0,0,13.54,14.63Z" transform="translate(-0.25 -1.42)"/><path class="cls-2" d="M13.54,14.73a0.33,0.33,0,0,1-.33-0.33V13.79a0.1,0.1,0,0,1,0-.07,4.44,4.44,0,0,0,.44-0.57,0.1,0.1,0,0,1,.11,0,0.1,0.1,0,0,1,.07.1v1.2A0.33,0.33,0,0,1,13.54,14.73Zm-0.12-.9V14.4a0.12,0.12,0,1,0,.25,0V13.52Z" transform="translate(-0.25 -1.42)"/><path class="cls-3" d="M13.26,13.86a0.5,0.5,0,0,1,.06.24v0.44a0.5,0.5,0,0,1-.49.5h0a0.5,0.5,0,0,1-.49-0.44A4.49,4.49,0,0,0,13.26,13.86Z" transform="translate(-0.25 -1.42)"/><path class="cls-4" d="M13.26,13.86a0.5,0.5,0,0,1,.06.24v0.44a0.5,0.5,0,0,1-.49.5h0a0.5,0.5,0,0,1-.49-0.44A4.49,4.49,0,0,0,13.26,13.86Z" transform="translate(-0.25 -1.42)"/><path class="cls-3" d="M13.26,13.86a0.5,0.5,0,0,1,.06.16,0.5,0.5,0,0,1-.49.42h0a0.48,0.48,0,0,1-.19,0A4.51,4.51,0,0,0,13.26,13.86Z" transform="translate(-0.25 -1.42)"/><path class="cls-2" d="M12.83,15.14a0.6,0.6,0,0,1-.59-0.53,0.1,0.1,0,0,1,0-.1,4.39,4.39,0,0,0,.9-0.73,0.1,0.1,0,0,1,.16,0,0.6,0.6,0,0,1,.08.29v0.44A0.6,0.6,0,0,1,12.83,15.14Zm-0.38-.49a0.39,0.39,0,0,0,.77-0.11V14.1a0.41,0.41,0,0,0,0-.06A4.59,4.59,0,0,1,12.45,14.65Z" transform="translate(-0.25 -1.42)"/><path class="cls-3" d="M14.25,13.6h0a0.5,0.5,0,0,1,.49.5v0.44a0.5,0.5,0,0,1-.49.5h0a0.5,0.5,0,0,1-.49-0.5V14.1A0.5,0.5,0,0,1,14.25,13.6Z" transform="translate(-0.25 -1.42)"/><path class="cls-4" d="M14.25,13.6h0a0.5,0.5,0,0,1,.49.5v0.44a0.5,0.5,0,0,1-.49.5h0a0.5,0.5,0,0,1-.49-0.5V14.1A0.5,0.5,0,0,1,14.25,13.6Z" transform="translate(-0.25 -1.42)"/><path class="cls-3" d="M14.25,13.6h0a0.5,0.5,0,0,1,.49.42,0.5,0.5,0,0,1-.49.42h0A0.5,0.5,0,0,1,13.77,14,0.5,0.5,0,0,1,14.25,13.6Z" transform="translate(-0.25 -1.42)"/><path class="cls-2" d="M14.25,15.14a0.6,0.6,0,0,1-.59-0.6V14.1a0.59,0.59,0,1,1,1.19,0v0.44A0.6,0.6,0,0,1,14.25,15.14Zm0-1.44a0.39,0.39,0,0,0-.39.4v0.44a0.39,0.39,0,1,0,.78,0V14.1A0.39,0.39,0,0,0,14.25,13.71Z" transform="translate(-0.25 -1.42)"/></svg>