<svg id="Layer_1" data-name="Layer 1" xmlns="http://www.w3.org/2000/svg" viewBox="0 0 19.23 19.4"><defs><style>.cls-1{fill:#383938;}.cls-2{fill:#010101;}.cls-3{fill:#1e1e1e;}.cls-10,.cls-4{fill:#fff;}.cls-5{fill:#c8bcb7;}.cls-6{fill:#b77c82;}.cls-7{fill:#bcbb4c;}.cls-8{fill:#ddd972;}.cls-9{fill:#dbdcdc;}.cls-10{fill-rule:evenodd;}</style></defs><title>Untitled-19</title><path class="cls-1" d="M13.2,19c0-.39-0.57-0.28-0.75-0.47a1,1,0,0,1-.21-0.74A4.58,4.58,0,0,1,12.43,17a8.71,8.71,0,0,0,.22-2.32l-1.5-.53q0.11,2.1.29,4.2a1.66,1.66,0,0,0,.17.71,0.86,0.86,0,0,0,1,.38C12.92,19.31,13.24,19.34,13.2,19Z" transform="translate(-0.38 -0.15)"/><path class="cls-1" d="M5.79,15.3a1.37,1.37,0,0,0,.22,1,4.07,4.07,0,0,0,.73.79,0.47,0.47,0,0,1,.62,0,0.56,0.56,0,0,1,.07.64,0.86,0.86,0,0,1-.7.21,1,1,0,0,1-.82-0.34A13.2,13.2,0,0,1,4.16,15.5c0.5-.51.46-1.41,1-1.85A3.07,3.07,0,0,1,7,13.38C6.93,14.14,6,14.55,5.79,15.3Z" transform="translate(-0.38 -0.15)"/><path class="cls-2" d="M18.13,7.74C18,8.8,16.47,11,15.81,11.89c-0.26.36-.61,0.64-0.87,1a3.42,3.42,0,0,0-.52,2.56A10.16,10.16,0,0,0,15.29,18a0.68,0.68,0,0,0,.42.46,2.83,2.83,0,0,0,.35,0,0.51,0.51,0,0,1,.44.6,0.7,0.7,0,0,1-.6.52,1.09,1.09,0,0,1-.79-0.25,2.67,2.67,0,0,1-.55-0.64c-0.92-1.36-1.55-3-2.89-4a5.48,5.48,0,0,0-2.88-.91c-1-.06-2.73-0.52-3.48.5A13.57,13.57,0,0,0,3.81,16.5,2.27,2.27,0,0,0,4.13,18a6.89,6.89,0,0,1,.56.7c0.18,0.52-.4.63-0.65,0.63a0.68,0.68,0,0,1-.74-0.69c-0.2-1.24-.72-2.15-0.56-2.94a5.91,5.91,0,0,0,0-2.43,8.51,8.51,0,0,0-.7-1.13,5.15,5.15,0,0,1-.37-3C1.85,7,.5,7.43.38,2.88A5.28,5.28,0,0,1,.62,1.17C0.92,0.24,2-.26,1.69.59a8.45,8.45,0,0,0-.3,3.59c0.19,1.43,1.06,3.1,1.84,3.51S7.43,7.1,9.56,7.3a15.32,15.32,0,0,0,2.62.16,3.12,3.12,0,0,0,2.3-1.11A13.61,13.61,0,0,0,18.13,7.74Z" transform="translate(-0.38 -0.15)"/><path class="cls-3" d="M8.17,11.45A2.86,2.86,0,0,0,6.77,9.69,1.06,1.06,0,0,1,6.2,9.22a0.58,0.58,0,0,1,.14-0.56,1.29,1.29,0,0,1,.52-0.31,8.9,8.9,0,0,1,3.43-.23,4.62,4.62,0,0,0,3.27-.83,0.91,0.91,0,0,1,.72-0.36,0.77,0.77,0,0,1,.36.26l1.83,2A4.68,4.68,0,0,0,15,10.83,8.85,8.85,0,0,1,13.8,12.7a2.31,2.31,0,0,1-2,.77A7.91,7.91,0,0,0,10,12.93,3.41,3.41,0,0,1,9,13a1,1,0,0,1-.62-0.66C8.28,12.06,8.25,11.75,8.17,11.45Z" transform="translate(-0.38 -0.15)"/><path class="cls-4" d="M16.06,18.42a2.83,2.83,0,0,1-.35,0h0a0.38,0.38,0,0,1-.11.14,0.41,0.41,0,0,1-.25,0l-0.83,0,0,0.07a2.67,2.67,0,0,0,.55.64,1.09,1.09,0,0,0,.79.25A0.7,0.7,0,0,0,16.5,19,0.51,0.51,0,0,0,16.06,18.42Z" transform="translate(-0.38 -0.15)"/><path class="cls-5" d="M13.2,19c0-.39-0.57-0.28-0.75-0.47a0.74,0.74,0,0,1-.16-0.27l-0.19.09a1.23,1.23,0,0,1-.68-0.08v0.11a1.66,1.66,0,0,0,.17.71,0.86,0.86,0,0,0,1,.38C12.92,19.31,13.24,19.34,13.2,19Z" transform="translate(-0.38 -0.15)"/><path class="cls-5" d="M6.74,17.12A4.07,4.07,0,0,1,6,16.33a1.5,1.5,0,0,1-.25-0.77,1.18,1.18,0,0,0-.34.26,1.84,1.84,0,0,1-.47.4,0.58,0.58,0,0,1-.25.06,9.84,9.84,0,0,0,1.2,1.39,1,1,0,0,0,.82.34,0.86,0.86,0,0,0,.7-0.21,0.56,0.56,0,0,0-.07-0.64A0.47,0.47,0,0,0,6.74,17.12Z" transform="translate(-0.38 -0.15)"/><path class="cls-4" d="M4.13,18a2.27,2.27,0,0,1-.32-1.48,0.54,0.54,0,0,1,0-.11,3.62,3.62,0,0,0-.63-0.09,1.48,1.48,0,0,1-.5-0.13c0.05,0.68.42,1.46,0.58,2.46a0.68,0.68,0,0,0,.74.69c0.25,0,.83-0.11.65-0.63A6.89,6.89,0,0,0,4.13,18Z" transform="translate(-0.38 -0.15)"/><path class="cls-4" d="M17.16,9a1.85,1.85,0,0,0-.93-0.42,0.94,0.94,0,0,0-.86.08,0.94,0.94,0,0,0-.22.44,10.55,10.55,0,0,0-.65,4.64,2.76,2.76,0,0,1,.43-0.89c0.26-.35.61-0.63,0.87-1A29.14,29.14,0,0,0,17.4,9.44,1,1,0,0,0,17.16,9Z" transform="translate(-0.38 -0.15)"/><path class="cls-2" d="M13.9,4.23a2.07,2.07,0,0,1,1.41,1.2,8,8,0,0,1,1.54,0s1-1.26,1.36-1.13c0.52,0.18,0,1.94-.05,2.35a2.46,2.46,0,0,1-.26,1.65,3,3,0,0,1-1.58,1.09c-0.87.11-2.38-.73-2.49-1.6s0.11-1.47,0-1.84S13.48,4.36,13.9,4.23Z" transform="translate(-0.38 -0.15)"/><path class="cls-6" d="M14.77,5.15a1.41,1.41,0,0,0-.66-0.7,0.27,0.27,0,0,0-.3,0,0.29,0.29,0,0,0-.06.24,5.27,5.27,0,0,0,.14,1,0.7,0.7,0,0,0,.25.44,0.44,0.44,0,0,0,.47,0,0.6,0.6,0,0,0,.24-0.42A1,1,0,0,0,14.77,5.15Z" transform="translate(-0.38 -0.15)"/><path class="cls-6" d="M17.32,6.05a0.45,0.45,0,0,1-.11-0.32,1.62,1.62,0,0,1,.53-1,0.65,0.65,0,0,1,.48-0.33,1.21,1.21,0,0,1,.11.74,4.09,4.09,0,0,1-.17.74A0.46,0.46,0,0,1,18,6.2a0.5,0.5,0,0,1-.39,0A0.63,0.63,0,0,1,17.32,6.05Z" transform="translate(-0.38 -0.15)"/><path class="cls-7" d="M16.66,7.42a0.47,0.47,0,0,0,.42.21,0.43,0.43,0,0,0,.42-0.42A0.37,0.37,0,0,0,17,6.89,0.56,0.56,0,0,0,16.66,7.42Z" transform="translate(-0.38 -0.15)"/><path class="cls-8" d="M16.79,7.48a0.29,0.29,0,0,1,0-.26,0.16,0.16,0,0,1,0-.07,0.06,0.06,0,0,1,.07,0,0.07,0.07,0,0,1,0,.07,0.37,0.37,0,0,0,0,.07,0.15,0.15,0,0,0,.13.11,0.41,0.41,0,0,0,.41-0.17,0.42,0.42,0,0,1-.51.34A0.24,0.24,0,0,1,16.79,7.48Z" transform="translate(-0.38 -0.15)"/><ellipse class="cls-2" cx="16.68" cy="7.08" rx="0.09" ry="0.33"/><ellipse class="cls-4" cx="16.82" cy="6.96" rx="0.08" ry="0.09"/><path class="cls-7" d="M15.6,7.42a0.47,0.47,0,0,1-.42.21,0.43,0.43,0,0,1-.42-0.42,0.37,0.37,0,0,1,.45-0.32A0.56,0.56,0,0,1,15.6,7.42Z" transform="translate(-0.38 -0.15)"/><path class="cls-8" d="M14.82,7.32a0.27,0.27,0,0,1,.06-0.21A0.1,0.1,0,0,1,15,7.05a0.07,0.07,0,0,1,0,.06,0.8,0.8,0,0,1,0,.08,0.27,0.27,0,0,0,.16.22,0.7,0.7,0,0,0,.28.06,0.44,0.44,0,0,1-.57,0A0.24,0.24,0,0,1,14.82,7.32Z" transform="translate(-0.38 -0.15)"/><ellipse class="cls-2" cx="14.79" cy="7.05" rx="0.09" ry="0.31"/><ellipse class="cls-4" cx="14.92" cy="6.96" rx="0.08" ry="0.09"/><path class="cls-9" d="M15.35,9.13A1,1,0,0,1,15,8.85a0.5,0.5,0,0,1-.08-0.45,0.79,0.79,0,0,1,.32-0.34l0.49-.35a0.88,0.88,0,0,1,.38-0.19,0.65,0.65,0,0,1,.49.18c0.14,0.12.25,0.26,0.38,0.38a3.51,3.51,0,0,1,.29.27,0.48,0.48,0,0,1,.13.36,0.56,0.56,0,0,1-.32.38A1.88,1.88,0,0,1,15.35,9.13Z" transform="translate(-0.38 -0.15)"/><path class="cls-10" d="M16.65,9c-0.19,0-.37-0.12-0.56-0.09a1.8,1.8,0,0,0-.31.11,0.55,0.55,0,0,1-.57-0.16,0.47,0.47,0,0,1,0-.58A0.76,0.76,0,0,1,15.69,8a3.47,3.47,0,0,1,.56,0,1.31,1.31,0,0,1,.71.17,0.54,0.54,0,0,1,.18.19,0.33,0.33,0,0,1,0,.26,0.48,0.48,0,0,1-.19.22A0.65,0.65,0,0,1,16.65,9Z" transform="translate(-0.38 -0.15)"/><path class="cls-2" d="M16.18,8.57a0.64,0.64,0,0,1-.33-0.42c0.08-.15.72-0.13,0.68,0A0.93,0.93,0,0,1,16.18,8.57Z" transform="translate(-0.38 -0.15)"/><path class="cls-2" d="M15.6,9a0.42,0.42,0,0,0,.28-0.08,0.76,0.76,0,0,1,.24-0.07h0V8.5s0.1,0,.1,0V8.86l0.1,0a0.39,0.39,0,0,0,.31.07s0.12,0,.08,0a0.37,0.37,0,0,1-.25,0,0.68,0.68,0,0,0-.34-0.09,1.19,1.19,0,0,1-.54.14C15.53,9,15.54,9,15.6,9Z" transform="translate(-0.38 -0.15)"/><path class="cls-10" d="M19.2,8.44L19,8.39l-0.09,0-0.09,0-0.35-.06-0.32,0H17.46l-0.21,0H17.06l-0.2,0h0.35l0.2,0,0.45,0a5.33,5.33,0,0,1,.66.06l0.12,0,0.13,0L19,8.41h0.06l0.06,0,0.11,0,0.13,0h0l-0.07,0-0.05,0Z" transform="translate(-0.38 -0.15)"/><path class="cls-10" d="M19.39,9.14l-0.08,0-0.09,0L19,9l-0.19-.07-0.17-.06L18,8.7l-0.43-.09-0.44-.06h0.16l0.1,0,0.11,0,0.11,0,0.12,0,0.12,0h0.06l0.06,0c0.23,0.05.49,0.13,0.69,0.19L19.23,9.1l0.24,0.09L19.6,9.24h0Z" transform="translate(-0.38 -0.15)"/><path class="cls-10" d="M18.83,9.43L18.56,9.3l-0.15-.07-0.13-.06-0.07,0-0.06,0L18,9.07,17.9,9,17.76,9,17.6,8.92l-0.18-.05-0.18,0-0.08,0-0.08,0-0.17,0,0.16,0.06,0.06,0h0.07l0.16,0.05,0.18,0.05,0.09,0,0.1,0L17.88,9,18,9.09l0.13,0.06L18.28,9.2l0.21,0.09,0.22,0.1,0.05,0,0,0,0.09,0L19,9.53Z" transform="translate(-0.38 -0.15)"/><path class="cls-10" d="M13.09,8.34l0.08,0,0.09,0,0.09,0,0.1,0,0.36,0h0.65l0.19,0,0.11,0,0.11,0,0.21,0,0.1,0,0.09,0,0.2,0.06s0,0,0,0l-0.07,0-0.1,0-0.07,0H15.12L15,8.29l-0.1,0a3.85,3.85,0,0,0-.45-0.06l-0.34,0H13.66l-0.14,0-0.28.06-0.07,0-0.06,0L13,8.35l-0.13,0h0l0.08,0H13Z" transform="translate(-0.38 -0.15)"/><path class="cls-10" d="M13,9l0.07,0,0.08,0,0.09,0,0.09,0,0.19-.07,0,0h0l0.08,0L14,8.62l0.16,0,0.17,0,0.2,0h0.65l0.21,0s0,0,0,0l-0.07,0-0.11,0H14.79a3.78,3.78,0,0,0-.47,0L14,8.59l-0.17,0-0.16,0-0.13,0-0.14,0-0.14.06h0l0,0-0.07,0L13,8.91,13,8.94,12.87,9l-0.12.07h0l0.07,0,0.05,0Z" transform="translate(-0.38 -0.15)"/><path class="cls-10" d="M13.68,9.16l0.25-.1,0.13,0,0.12,0h0.06l0.06,0,0.11,0,0.11,0,0.12,0,0.14,0h0.16l0.16,0h0.3s0,0-.15,0H14.74l-0.09,0-0.12,0-0.13,0-0.12,0-0.12,0L14,9l-0.2.08,0,0,0,0-0.07,0-0.09,0S13.54,9.22,13.68,9.16Z" transform="translate(-0.38 -0.15)"/><path class="cls-10" d="M16.46,9.12a0.08,0.08,0,0,1-.06.06,0.77,0.77,0,0,1-.41,0,0.11,0.11,0,0,1-.1-0.07,0.07,0.07,0,0,1,0-.07L16,9a0.84,0.84,0,0,1,.22,0,0.31,0.31,0,0,1,.2.09A0.08,0.08,0,0,1,16.46,9.12Z" transform="translate(-0.38 -0.15)"/></svg>