<svg id="Layer_1" data-name="Layer 1" xmlns="http://www.w3.org/2000/svg" viewBox="0 0 15.37 19.64"><defs><style>.cls-1{fill:#fbfdf6;}.cls-2{fill:#eededa;}.cls-2,.cls-7,.cls-8,.cls-9{fill-rule:evenodd;}.cls-3{fill:#7c3d30;}.cls-4{fill:#7aced7;}.cls-5{fill:#f48b94;}.cls-6{fill:#dce683;}.cls-7{fill:#a4dbde;}.cls-8{fill:#f7a3a6;}.cls-9{fill:#b0c656;}</style></defs><title>Untitled-21</title><rect class="cls-1" x="0.21" y="0.21" width="14.96" height="19.22" rx="0.84" ry="0.84"/><path class="cls-2" d="M17.75,18.14v0.71a0.84,0.84,0,0,1-.84.84H3.63a0.84,0.84,0,0,1-.84-0.84V18.14a0.84,0.84,0,0,0,.84.84H16.91A0.84,0.84,0,0,0,17.75,18.14Z" transform="translate(-2.58 -0.26)"/><path class="cls-3" d="M16.91,19.9H3.63a1,1,0,0,1-1-1V1.3a1,1,0,0,1,1-1H16.91a1,1,0,0,1,1,1V18.85A1,1,0,0,1,16.91,19.9ZM3.63,0.68A0.63,0.63,0,0,0,3,1.3V18.85a0.63,0.63,0,0,0,.63.63H16.91a0.63,0.63,0,0,0,.63-0.63V1.3A0.63,0.63,0,0,0,16.91.68H3.63Z" transform="translate(-2.58 -0.26)"/><path class="cls-2" d="M5,12.78H8.85a1,1,0,0,1,1,1v3.86a1,1,0,0,1-.31.74h0a1,1,0,0,1-.74.31H5a1,1,0,0,1-1-1V13.82a1,1,0,0,1,.31-0.74h0A1,1,0,0,1,5,12.78H5Zm3.86-.59H5a1,1,0,0,1-1-1V7.28a1,1,0,0,1,.31-0.74h0A1,1,0,0,1,5,6.23H8.85a1,1,0,0,1,1,1v3.86a1,1,0,0,1-.31.74h0a1,1,0,0,1-.74.31h0Zm6.71,0H11.7a1,1,0,0,1-1-1V7.28A1,1,0,0,1,11,6.54h0a1,1,0,0,1,.74-0.31h3.86a1,1,0,0,1,1,1v3.86a1,1,0,0,1-.31.74h0a1,1,0,0,1-.74.31h0Zm-3.86.59h3.86a1,1,0,0,1,1,1v3.86a1,1,0,0,1-.31.74h0a1,1,0,0,1-.74.31H11.7a1,1,0,0,1-1-1V13.82A1,1,0,0,1,11,13.08h0A1,1,0,0,1,11.7,12.78Z" transform="translate(-2.58 -0.26)"/><rect class="cls-4" x="1.56" y="5.85" width="5.54" height="5.54" rx="0.84" ry="0.84"/><rect class="cls-4" x="8.27" y="5.85" width="5.54" height="5.54" rx="0.84" ry="0.84"/><rect class="cls-5" x="8.27" y="12.39" width="5.54" height="5.54" rx="0.84" ry="0.84"/><rect class="cls-4" x="1.56" y="12.39" width="5.54" height="5.54" rx="0.84" ry="0.84"/><rect class="cls-6" x="1.56" y="1.56" width="12.25" height="3.28" rx="0.84" ry="0.84"/><path class="cls-7" d="M9.69,7.45V6.94a0.84,0.84,0,0,0-.84-0.84H5a0.84,0.84,0,0,0-.84.84v0.5A0.84,0.84,0,0,1,5,6.61H8.85A0.84,0.84,0,0,1,9.69,7.45Z" transform="translate(-2.58 -0.26)"/><path class="cls-7" d="M9.69,14v-0.5a0.84,0.84,0,0,0-.84-0.84H5a0.84,0.84,0,0,0-.84.84V14A0.84,0.84,0,0,1,5,13.15H8.85A0.84,0.84,0,0,1,9.69,14Z" transform="translate(-2.58 -0.26)"/><path class="cls-7" d="M16.4,7.45V6.94a0.84,0.84,0,0,0-.84-0.84H11.7a0.84,0.84,0,0,0-.84.84v0.5a0.84,0.84,0,0,1,.84-0.84h3.86A0.84,0.84,0,0,1,16.4,7.45Z" transform="translate(-2.58 -0.26)"/><path class="cls-8" d="M16.4,14v-0.5a0.84,0.84,0,0,0-.84-0.84H11.7a0.84,0.84,0,0,0-.84.84V14a0.84,0.84,0,0,1,.84-0.84h3.86A0.84,0.84,0,0,1,16.4,14Z" transform="translate(-2.58 -0.26)"/><path class="cls-3" d="M15.56,18.4H11.7a1,1,0,0,1-1-1V13.49a1,1,0,0,1,1-1h3.86a1,1,0,0,1,1,1v3.86A1,1,0,0,1,15.56,18.4ZM11.7,12.86a0.63,0.63,0,0,0-.63.63v3.86a0.63,0.63,0,0,0,.63.63h3.86a0.63,0.63,0,0,0,.63-0.63V13.49a0.63,0.63,0,0,0-.63-0.63H11.7ZM8.85,18.4H5a1,1,0,0,1-1-1V13.49a1,1,0,0,1,1-1H8.85a1,1,0,0,1,1,1v3.86A1,1,0,0,1,8.85,18.4ZM5,12.86a0.63,0.63,0,0,0-.63.63v3.86A0.63,0.63,0,0,0,5,18H8.85a0.63,0.63,0,0,0,.63-0.63V13.49a0.63,0.63,0,0,0-.63-0.63H5Zm10.57-1H11.7a1,1,0,0,1-1-1V6.94a1,1,0,0,1,1-1h3.86a1,1,0,0,1,1,1v3.86A1,1,0,0,1,15.56,11.85ZM11.7,6.32a0.63,0.63,0,0,0-.63.63v3.86a0.63,0.63,0,0,0,.63.63h3.86a0.63,0.63,0,0,0,.63-0.63V6.94a0.63,0.63,0,0,0-.63-0.63H11.7ZM8.85,11.85H5a1,1,0,0,1-1-1V6.94a1,1,0,0,1,1-1H8.85a1,1,0,0,1,1,1v3.86A1,1,0,0,1,8.85,11.85ZM5,6.32a0.63,0.63,0,0,0-.63.63v3.86a0.63,0.63,0,0,0,.63.63H8.85a0.63,0.63,0,0,0,.63-0.63V6.94a0.63,0.63,0,0,0-.63-0.63H5Z" transform="translate(-2.58 -0.26)"/><path class="cls-9" d="M5,1.82H15.56a0.84,0.84,0,0,1,.84.84V3.21a0.84,0.84,0,0,0-.84-0.84H5a0.84,0.84,0,0,0-.84.84V2.66A0.84,0.84,0,0,1,5,1.82Z" transform="translate(-2.58 -0.26)"/><path class="cls-3" d="M15.56,5.31H5a1,1,0,0,1-1-1V2.66a1,1,0,0,1,1-1H15.56a1,1,0,0,1,1,1v1.6A1,1,0,0,1,15.56,5.31ZM5,2a0.63,0.63,0,0,0-.63.63v1.6A0.63,0.63,0,0,0,5,4.89H15.56a0.63,0.63,0,0,0,.63-0.63V2.66A0.63,0.63,0,0,0,15.56,2H5Z" transform="translate(-2.58 -0.26)"/><path class="cls-3" d="M6.92,10.23A0.21,0.21,0,0,1,6.71,10V9.09H5.77a0.21,0.21,0,0,1,0-.42H6.71V7.73a0.21,0.21,0,0,1,.42,0V8.67H8.07a0.21,0.21,0,0,1,0,.42H7.13V10A0.21,0.21,0,0,1,6.92,10.23Z" transform="translate(-2.58 -0.26)"/><path class="cls-3" d="M7.73,16.44a0.21,0.21,0,0,1-.15-0.06l-0.66-.66-0.66.66a0.21,0.21,0,1,1-.3-0.3l0.66-.66L6,14.75a0.21,0.21,0,1,1,.3-0.3l0.66,0.66,0.66-.66a0.21,0.21,0,0,1,.3.3l-0.66.66,0.66,0.66A0.21,0.21,0,0,1,7.73,16.44Z" transform="translate(-2.58 -0.26)"/><path class="cls-3" d="M14.78,9.09h-2.3a0.21,0.21,0,0,1,0-.42h2.3A0.21,0.21,0,0,1,14.78,9.09Z" transform="translate(-2.58 -0.26)"/><path class="cls-3" d="M14.78,16.18h-2.3a0.21,0.21,0,0,1,0-.42h2.3A0.21,0.21,0,0,1,14.78,16.18Zm0-1.11h-2.3a0.21,0.21,0,0,1,0-.42h2.3A0.21,0.21,0,0,1,14.78,15.07Z" transform="translate(-2.58 -0.26)"/><path class="cls-3" d="M14.89,4.7H14.33a0.63,0.63,0,0,1-.63-0.63V2.85a0.63,0.63,0,0,1,.63-0.63h0.55a0.63,0.63,0,0,1,.63.63V4.07A0.63,0.63,0,0,1,14.89,4.7ZM14.33,2.64a0.21,0.21,0,0,0-.21.21V4.07a0.21,0.21,0,0,0,.21.21h0.55a0.21,0.21,0,0,0,.21-0.21V2.85a0.21,0.21,0,0,0-.21-0.21H14.33Z" transform="translate(-2.58 -0.26)"/></svg>