<svg id="Layer_1" data-name="Layer 1" xmlns="http://www.w3.org/2000/svg" viewBox="0 0 20 19.77"><defs><style>.cls-1{fill:#fbfdf6;}.cls-1,.cls-3,.cls-4,.cls-5{fill-rule:evenodd;}.cls-2{fill:#7c3d30;}.cls-3,.cls-6{fill:#00aeef;}.cls-4{fill:#ae806c;}.cls-5{fill:#be987d;}</style></defs><title>Untitled-22</title><path class="cls-1" d="M1.58,3H18.42C19,3,19,3.15,19,3.7V18.6c0,0.55,0,1.4-.58,1.4H1.58C1,20,1,19.16,1,18.6V3.7C1,3.15,1,3,1.58,3Z" transform="translate(0 -0.23)"/><path class="cls-2" d="M18.42,20H1.58A1.67,1.67,0,0,1,0,18.6V3.7A2,2,0,0,1,1.58,2H18.42A2,2,0,0,1,20,3.7V18.6A1.67,1.67,0,0,1,18.42,20ZM1.58,3A0.57,0.57,0,0,0,1,3.7V18.6C1,19,1.14,19,1.58,19H18.42c0.44,0,.58,0,0.58-0.4V3.7A0.57,0.57,0,0,0,18.42,3H1.58Z" transform="translate(0 -0.23)"/><path class="cls-3" d="M1.58,3H18.42C19,3,19,3.15,19,3.7V8H1V3.7C1,3.15,1,3,1.58,3Z" transform="translate(0 -0.23)"/><path class="cls-2" d="M19.48,8h-19C0.38,8,0,8,0,7.9V3.7A2,2,0,0,1,1.58,2H18.42A2,2,0,0,1,20,3.7V7.9C20,8,19.62,8,19.48,8ZM1,8H19V3.7A0.57,0.57,0,0,0,18.42,3H1.58A0.57,0.57,0,0,0,1,3.7V8Z" transform="translate(0 -0.23)"/><path class="cls-4" d="M16,1.24V4.15a1,1,0,0,1-1,.76h0a1,1,0,0,1-1-.76V1.24a1,1,0,0,1,1-.76h0A1,1,0,0,1,16,1.24Z" transform="translate(0 -0.23)"/><path class="cls-4" d="M11,1.24V4.15a1,1,0,0,1-1,.76h0a1,1,0,0,1-1-.76V1.24a1,1,0,0,1,1-.76h0A1,1,0,0,1,11,1.24Z" transform="translate(0 -0.23)"/><path class="cls-4" d="M6,1.24V4.15a1,1,0,0,1-1,.76H5a1,1,0,0,1-1-.76V1.24A1,1,0,0,1,5,.48H5A1,1,0,0,1,6,1.24Z" transform="translate(0 -0.23)"/><path class="cls-5" d="M16,1.24V3.1a1,1,0,0,1-1,.76h0a1,1,0,0,1-1-.76V1.24a1,1,0,0,1,1-.76h0A1,1,0,0,1,16,1.24Z" transform="translate(0 -0.23)"/><path class="cls-5" d="M11,1.24V3.1a1,1,0,0,1-1,.76h0A1,1,0,0,1,9,3.1V1.24a1,1,0,0,1,1-.76h0A1,1,0,0,1,11,1.24Z" transform="translate(0 -0.23)"/><path class="cls-5" d="M6,1.24V3.1a1,1,0,0,1-1,.76H5A1,1,0,0,1,4,3.1V1.24A1,1,0,0,1,5,.48H5A1,1,0,0,1,6,1.24Z" transform="translate(0 -0.23)"/><path class="cls-2" d="M15,5.16a1,1,0,0,1-1-1V1.24a1,1,0,1,1,2,0V4.15A1,1,0,0,1,15,5.16ZM14.5,0.74a0.49,0.49,0,0,0-.5.51V4.15a0.5,0.5,0,1,0,1,0V1.24A0.49,0.49,0,0,0,14.5.74Z" transform="translate(0 -0.23)"/><path class="cls-2" d="M10,5.16a1,1,0,0,1-1-1V1.24a1,1,0,1,1,2,0V4.15A1,1,0,0,1,10,5.16Zm0-4.42a1.16,1.16,0,0,0-1,.51V4.15a1.24,1.24,0,0,0,2,0V1.24A1.16,1.16,0,0,0,10,.74Z" transform="translate(0 -0.23)"/><path class="cls-2" d="M5,5.16a1,1,0,0,1-1-1V1.24a1,1,0,1,1,2,0V4.15A1,1,0,0,1,5,5.16ZM5.5,0.74a0.49,0.49,0,0,0-.5.51V4.15a0.5,0.5,0,1,0,1,0V1.24A0.49,0.49,0,0,0,5.5.74Z" transform="translate(0 -0.23)"/><path class="cls-2" d="M15.57,14.77a1,1,0,1,1,1.07-1A1,1,0,0,1,15.57,14.77Zm0-1.53a0.51,0.51,0,1,0,.54.51A0.53,0.53,0,0,0,15.57,13.24Z" transform="translate(0 -0.23)"/><path class="cls-2" d="M15.57,12a1,1,0,1,1,1.07-1A1,1,0,0,1,15.57,12Zm0-1.53a0.51,0.51,0,1,0,.54.51A0.53,0.53,0,0,0,15.57,10.43Z" transform="translate(0 -0.23)"/><ellipse class="cls-6" cx="11.86" cy="10.71" rx="0.81" ry="0.76"/><ellipse class="cls-6" cx="11.86" cy="13.52" rx="0.81" ry="0.76"/><ellipse class="cls-6" cx="8.14" cy="10.71" rx="0.81" ry="0.76"/><ellipse class="cls-6" cx="8.14" cy="13.52" rx="0.81" ry="0.76"/><ellipse class="cls-6" cx="8.14" cy="16.34" rx="0.81" ry="0.76"/><ellipse class="cls-6" cx="4.43" cy="13.52" rx="0.81" ry="0.76"/><ellipse class="cls-6" cx="4.43" cy="16.34" rx="0.81" ry="0.76"/><path class="cls-2" d="M11.86,14.77a1,1,0,1,1,1.07-1A1,1,0,0,1,11.86,14.77Zm0-1.53a0.51,0.51,0,1,0,.54.51A0.53,0.53,0,0,0,11.86,13.24Z" transform="translate(0 -0.23)"/><path class="cls-2" d="M11.86,12a1,1,0,1,1,1.07-1A1,1,0,0,1,11.86,12Zm0-1.53a0.51,0.51,0,1,0,.54.51A0.53,0.53,0,0,0,11.86,10.43Z" transform="translate(0 -0.23)"/><path class="cls-2" d="M8.14,17.59a1,1,0,1,1,1.07-1A1,1,0,0,1,8.14,17.59Zm0-1.53a0.51,0.51,0,1,0,.54.51A0.53,0.53,0,0,0,8.14,16.06Z" transform="translate(0 -0.23)"/><path class="cls-2" d="M8.14,14.77a1,1,0,1,1,1.07-1A1,1,0,0,1,8.14,14.77Zm0-1.53a0.51,0.51,0,1,0,.54.51A0.53,0.53,0,0,0,8.14,13.24Z" transform="translate(0 -0.23)"/><path class="cls-2" d="M8.14,12a1,1,0,1,1,1.07-1A1,1,0,0,1,8.14,12Zm0-1.53a0.51,0.51,0,1,0,.54.51A0.53,0.53,0,0,0,8.14,10.43Z" transform="translate(0 -0.23)"/><path class="cls-2" d="M4.43,17.59a1,1,0,1,1,0-2A1,1,0,1,1,4.43,17.59Zm0-1.53a0.51,0.51,0,1,0,.54.51A0.53,0.53,0,0,0,4.43,16.06Z" transform="translate(0 -0.23)"/><path class="cls-2" d="M4.43,14.77a1,1,0,1,1,0-2A1,1,0,1,1,4.43,14.77Zm0-1.53a0.51,0.51,0,1,0,.54.51A0.53,0.53,0,0,0,4.43,13.24Z" transform="translate(0 -0.23)"/></svg>