<svg id="Layer_1" data-name="Layer 1" xmlns="http://www.w3.org/2000/svg" viewBox="0 0 29.44 31.24"><defs><style>.cls-1{fill:#fbfdf6;}.cls-2{fill:#7c3d30;}.cls-3,.cls-7{fill:#f48b94;}.cls-3,.cls-4,.cls-5,.cls-6{fill-rule:evenodd;}.cls-4{fill:#f16673;}.cls-5{fill:#ae806c;}.cls-6{fill:#be987d;}</style></defs><title>Untitled-17</title><rect class="cls-1" x="0.4" y="3.92" width="28.64" height="26.92" rx="1.6" ry="1.6"/><path class="cls-2" d="M28.5,31.62H3.07a2,2,0,0,1-2-2V5.9a2,2,0,0,1,2-2H28.5a2,2,0,0,1,2,2V29.62A2,2,0,0,1,28.5,31.62ZM3.07,4.7a1.2,1.2,0,0,0-1.2,1.2V29.62a1.2,1.2,0,0,0,1.2,1.2H28.5a1.2,1.2,0,0,0,1.2-1.2V5.9a1.2,1.2,0,0,0-1.2-1.2H3.07Z" transform="translate(-1.07 -0.38)"/><path class="cls-3" d="M3.07,4.3H28.5a1.6,1.6,0,0,1,1.6,1.6v6.68H1.47V5.9A1.6,1.6,0,0,1,3.07,4.3Z" transform="translate(-1.07 -0.38)"/><path class="cls-2" d="M30.1,13H1.47a0.4,0.4,0,0,1-.4-0.4V5.9a2,2,0,0,1,2-2H28.5a2,2,0,0,1,2,2v6.68A0.4,0.4,0,0,1,30.1,13Zm-28.24-.8H29.7V5.9a1.2,1.2,0,0,0-1.2-1.2H3.07a1.2,1.2,0,0,0-1.2,1.2v6.28Z" transform="translate(-1.07 -0.38)"/><path class="cls-4" d="M6.74,4.3H9.95V8.22A1.6,1.6,0,0,1,7.21,9.35h0a1.6,1.6,0,0,1-.47-1.13V4.3h0Zm7.44,0h3.21V8.22a1.6,1.6,0,0,1-2.74,1.13h0a1.6,1.6,0,0,1-.47-1.13V4.3h0Zm7.44,0h3.21V8.22A1.6,1.6,0,0,1,22.1,9.35h0a1.6,1.6,0,0,1-.47-1.13V4.3Z" transform="translate(-1.07 -0.38)"/><path class="cls-5" d="M24.43,2V6.62a1.21,1.21,0,0,1-1.2,1.2h0A1.21,1.21,0,0,1,22,6.62V2a1.21,1.21,0,0,1,1.2-1.2h0A1.21,1.21,0,0,1,24.43,2Z" transform="translate(-1.07 -0.38)"/><path class="cls-5" d="M17,2V6.62a1.21,1.21,0,0,1-1.2,1.2h0a1.21,1.21,0,0,1-1.2-1.2V2a1.21,1.21,0,0,1,1.2-1.2h0A1.21,1.21,0,0,1,17,2Z" transform="translate(-1.07 -0.38)"/><path class="cls-5" d="M9.55,2V6.62a1.21,1.21,0,0,1-1.2,1.2h0a1.21,1.21,0,0,1-1.2-1.2V2A1.21,1.21,0,0,1,8.34.78h0A1.21,1.21,0,0,1,9.55,2Z" transform="translate(-1.07 -0.38)"/><path class="cls-6" d="M24.43,2V5a1.21,1.21,0,0,1-1.2,1.2h0A1.21,1.21,0,0,1,22,5V2a1.21,1.21,0,0,1,1.2-1.2h0A1.21,1.21,0,0,1,24.43,2Z" transform="translate(-1.07 -0.38)"/><path class="cls-6" d="M17,2V5a1.21,1.21,0,0,1-1.2,1.2h0A1.21,1.21,0,0,1,14.58,5V2a1.21,1.21,0,0,1,1.2-1.2h0A1.21,1.21,0,0,1,17,2Z" transform="translate(-1.07 -0.38)"/><path class="cls-6" d="M9.55,2V5a1.21,1.21,0,0,1-1.2,1.2h0A1.21,1.21,0,0,1,7.14,5V2A1.21,1.21,0,0,1,8.34.78h0A1.21,1.21,0,0,1,9.55,2Z" transform="translate(-1.07 -0.38)"/><path class="cls-2" d="M23.23,8.22a1.61,1.61,0,0,1-1.6-1.6V2a1.6,1.6,0,1,1,3.21,0V6.62A1.61,1.61,0,0,1,23.23,8.22Zm0-7a0.8,0.8,0,0,0-.8.8V6.62a0.8,0.8,0,0,0,1.61,0V2A0.81,0.81,0,0,0,23.23,1.18Z" transform="translate(-1.07 -0.38)"/><path class="cls-2" d="M15.78,8.22a1.61,1.61,0,0,1-1.6-1.6V2a1.6,1.6,0,1,1,3.21,0V6.62A1.61,1.61,0,0,1,15.78,8.22Zm0-7A0.8,0.8,0,0,0,15,2V6.62a0.8,0.8,0,0,0,1.61,0V2A0.8,0.8,0,0,0,15.78,1.18Z" transform="translate(-1.07 -0.38)"/><path class="cls-2" d="M8.34,8.22a1.61,1.61,0,0,1-1.6-1.6V2A1.6,1.6,0,1,1,9.95,2V6.62A1.61,1.61,0,0,1,8.34,8.22Zm0-7a0.81,0.81,0,0,0-.8.8V6.62a0.8,0.8,0,0,0,1.61,0V2A0.8,0.8,0,0,0,8.34,1.18Z" transform="translate(-1.07 -0.38)"/><circle class="cls-7" cx="23.13" cy="21.52" r="1.22"/><path class="cls-2" d="M24.2,23.52a1.62,1.62,0,1,1,1.62-1.62A1.62,1.62,0,0,1,24.2,23.52Zm0-2.43a0.82,0.82,0,1,0,.82.82A0.82,0.82,0,0,0,24.2,21.09Z" transform="translate(-1.07 -0.38)"/><circle class="cls-7" cx="23.13" cy="17.04" r="1.22"/><path class="cls-2" d="M24.2,19a1.62,1.62,0,1,1,1.62-1.62A1.62,1.62,0,0,1,24.2,19Zm0-2.43a0.82,0.82,0,1,0,.82.82A0.82,0.82,0,0,0,24.2,16.6Z" transform="translate(-1.07 -0.38)"/><path class="cls-2" d="M18.59,23.52a1.62,1.62,0,1,1,1.62-1.62A1.62,1.62,0,0,1,18.59,23.52Zm0-2.43a0.82,0.82,0,1,0,.82.82A0.82,0.82,0,0,0,18.59,21.09Z" transform="translate(-1.07 -0.38)"/><path class="cls-2" d="M18.59,19a1.62,1.62,0,1,1,1.62-1.62A1.62,1.62,0,0,1,18.59,19Zm0-2.43a0.82,0.82,0,1,0,.82.82A0.82,0.82,0,0,0,18.59,16.6Z" transform="translate(-1.07 -0.38)"/><path class="cls-2" d="M13,28a1.62,1.62,0,1,1,1.62-1.62A1.62,1.62,0,0,1,13,28Zm0-2.43a0.82,0.82,0,1,0,.82.82A0.82,0.82,0,0,0,13,25.57Z" transform="translate(-1.07 -0.38)"/><path class="cls-2" d="M13,23.52A1.62,1.62,0,1,1,14.6,21.9,1.62,1.62,0,0,1,13,23.52Zm0-2.43a0.82,0.82,0,1,0,.82.82A0.82,0.82,0,0,0,13,21.09Z" transform="translate(-1.07 -0.38)"/><path class="cls-2" d="M13,19a1.62,1.62,0,1,1,1.62-1.62A1.62,1.62,0,0,1,13,19Zm0-2.43a0.82,0.82,0,1,0,.82.82A0.82,0.82,0,0,0,13,16.6Z" transform="translate(-1.07 -0.38)"/><path class="cls-2" d="M7.37,28A1.62,1.62,0,1,1,9,26.38,1.62,1.62,0,0,1,7.37,28Zm0-2.43a0.82,0.82,0,1,0,.82.82A0.82,0.82,0,0,0,7.37,25.57Z" transform="translate(-1.07 -0.38)"/><path class="cls-2" d="M7.37,23.52A1.62,1.62,0,1,1,9,21.9,1.62,1.62,0,0,1,7.37,23.52Zm0-2.43a0.82,0.82,0,1,0,.82.82A0.82,0.82,0,0,0,7.37,21.09Z" transform="translate(-1.07 -0.38)"/></svg>