<svg id="Layer_1" data-name="Layer 1" xmlns="http://www.w3.org/2000/svg" viewBox="0 0 19.45 19.46"><defs><style>.cls-1{fill:#857d6f;fill-rule:evenodd;}</style></defs><title>Untitled-13</title><path class="cls-1" d="M6.07,7.84V7.41a0.19,0.19,0,0,1,.14-0.18A1.38,1.38,0,0,0,7.39,5.89a1.44,1.44,0,0,0-1.24-1.4c-0.64-.23-0.9-0.39-0.9-0.63s0.16-.42.64-0.42a2.25,2.25,0,0,1,.88.17A0.19,0.19,0,0,0,7,3.47L7.15,3A0.19,0.19,0,0,0,7,2.78a2.65,2.65,0,0,0-.76-0.17A0.19,0.19,0,0,1,6.1,2.42V2.13a0.19,0.19,0,0,0-.19-0.19H5.56a0.19,0.19,0,0,0-.19.19V2.5a0.19,0.19,0,0,1-.14.18A1.33,1.33,0,0,0,4.11,4,1.53,1.53,0,0,0,5.45,5.34a0.85,0.85,0,0,1,.8.65,0.59,0.59,0,0,1-.72.46,2.58,2.58,0,0,1-1-.23,0.19,0.19,0,0,0-.26.12l-0.13.5a0.19,0.19,0,0,0,.11.22,3.25,3.25,0,0,0,1,.24,0.19,0.19,0,0,1,.17.19V7.84A0.19,0.19,0,0,0,5.52,8H5.88a0.19,0.19,0,0,0,.19-0.19h0ZM5.74,0.27A4.71,4.71,0,0,1,10.13,6.7l-1,.09A3.8,3.8,0,1,0,6.76,8.65q-0.22.5-.42,1A4.71,4.71,0,1,1,5.74.27h0Z" transform="translate(-0.28 -0.27)"/><path class="cls-1" d="M17.14,11.52L17.08,9.1a0.18,0.18,0,0,0-.14-0.16H13.5v2.58h3.64Zm-4.55,0V8.94H8.75c-0.38.85-.76,1.71-1.11,2.58h4.95Zm-6.23,0c0.44-1.09.91-2.07,1.41-3.18a1.05,1.05,0,0,1,.85-0.62,41.59,41.59,0,0,1,8.76-.22A1.66,1.66,0,0,1,18.87,9,21.44,21.44,0,0,1,19,11.52h0v1.06H18.59a0.3,0.3,0,0,0-.3.3v0.3a0.3,0.3,0,0,0,.3.3H19v2.28h0.08a0.61,0.61,0,0,1,0,1.22H19a0.61,0.61,0,0,1-.59.46H18.36a3,3,0,0,0-6.08,0H7.72a3,3,0,1,0-6.08,0H1.56A0.61,0.61,0,0,1,1,17H0.88a0.61,0.61,0,0,1,0-1.22H1V14.41H1.34a0.61,0.61,0,0,0,.61-0.61V13.5H1A1,1,0,0,1,2,12.23a42.57,42.57,0,0,1,4.34-.67h0Zm9,3.61A2.28,2.28,0,1,1,13,17.45a2.28,2.28,0,0,1,2.28-2.28h0Zm0,1.37a0.91,0.91,0,1,1-.91.91,0.91,0.91,0,0,1,.91-0.91h0ZM4.68,15.17A2.28,2.28,0,1,1,2.4,17.45a2.28,2.28,0,0,1,2.28-2.28h0Zm0,1.37a0.91,0.91,0,1,1-.91.91,0.91,0.91,0,0,1,.91-0.91h0Z" transform="translate(-0.28 -0.27)"/></svg>