<svg id="Layer_1" data-name="Layer 1" xmlns="http://www.w3.org/2000/svg" viewBox="0 0 20 16.93"><defs><style>.cls-1,.cls-2{fill:#2da5c3;}.cls-2{fill-rule:evenodd;}</style></defs><title>Untitled-17</title><path class="cls-1" d="M1,10v9H1.91a2.28,2.28,0,0,1,.31-1H19V10H17.61l0.09-.45L18.1,8H20V9.69h0V19c0,0.16-.3,0-0.47,0h-19C0.36,19,0,19.21,0,19V9.69H0V8H12.76a2.61,2.61,0,0,1,0,.82,0.93,0.93,0,0,0,.83,1L13.48,10H1Zm5.43,2.21H7.65v0.86H6.43V12.21h0ZM6,14h5v1H6V14H6Zm3-2h2v1H9V12H9Z" transform="translate(0 -2.18)"/><path class="cls-2" d="M15.66,3.21l-0.27.94c-0.25.87-.83,1.59-1.08,2.44a12.44,12.44,0,0,0-.38,2.49c0,0.19-.47.18-0.46,0a12.38,12.38,0,0,1,.4-2.58C14.12,5.62,14.71,4.89,15,4l0.27-.94c0.06-.19.49-0.08,0.44,0.11h0ZM7,17.06a0.31,0.31,0,0,1-.61,0,1.11,1.11,0,0,1,.2-0.68,0.78,0.78,0,0,1,.46-0.3,1,1,0,0,1,.54,0,1.62,1.62,0,0,1,.75.57c0.16,0.21.26,0.15,0.42,0.05a2.43,2.43,0,0,1,2.34-.18,0.28,0.28,0,0,1,.18.37,0.31,0.31,0,0,1-.39.17,1.87,1.87,0,0,0-1.81.13A0.75,0.75,0,0,1,7.87,17a1,1,0,0,0-.46-0.36,0.36,0.36,0,0,0-.19,0,0.18,0.18,0,0,0-.1.07,0.58,0.58,0,0,0-.09.35H7Zm-3-1V15.73a0.22,0.22,0,0,1,.18-0.15,1.14,1.14,0,0,0,0-2.27C3.6,13.11,3.38,13,3.38,12.78s0.14-.35.57-0.35a2.12,2.12,0,0,1,.78.14,0.17,0.17,0,0,0,.14,0A0.15,0.15,0,0,0,5,12.47l0.11-.39A0.15,0.15,0,0,0,5,11.89a3.07,3.07,0,0,0-.74-0.14A0.24,0.24,0,0,1,4,11.6V11.35A0.44,0.44,0,0,0,4,11H3.66a1.59,1.59,0,0,0-.66.35v0.31a0.47,0.47,0,0,1,.12.15,1,1,0,0,0-.87,1.07A1.38,1.38,0,0,0,3.5,14a0.79,0.79,0,0,1,.74.54c0,0.24-.24.38-0.62,0.38a2.37,2.37,0,0,1-.91-0.19,0.16,0.16,0,0,0-.14,0,0.15,0.15,0,0,0-.09.1l-0.11.42a0.15,0.15,0,0,0,.09.18,1.56,1.56,0,0,0,.61.2c0.09,0-.08.07-0.08,0.15v0.29A1.81,1.81,0,0,0,3.62,16H3.95C4,16,4,16.17,4,16.08H4Zm9.42-1.57-0.81,2.84a0.1,0.1,0,0,0,.09.13A0.33,0.33,0,0,0,13,17.41c0.57-.93,1.44-0.91,1.7-1.51a2.57,2.57,0,0,0,.14-1l-1.41-.36h0Zm2.11,0.08,1.26-4.43-2.36-.59L13.17,14l2.36,0.6h0ZM14.59,9l1.7-6a1.3,1.3,0,0,1,.6-0.74,1.2,1.2,0,0,1,1.78,1.3L17,9.62,14.59,9h0Z" transform="translate(0 -2.18)"/></svg>