<svg id="Layer_1" data-name="Layer 1" xmlns="http://www.w3.org/2000/svg" viewBox="0 0 20 20"><defs><style>.cls-1{fill:#e75e5c;fill-rule:evenodd;}</style></defs><title>Untitled-3</title><polygon class="cls-1" points="5 10.7 10.47 10.7 10.47 11.32 5 11.32 5 10.7 5 10.7"/><polygon class="cls-1" points="5 12.58 10.47 12.58 10.47 13.2 5 13.2 5 12.58 5 12.58"/><polygon class="cls-1" points="15.86 16.41 15.86 15.31 17.73 15.31 17.73 16.41 15.86 16.41 15.86 16.41"/><path class="cls-1" d="M17.34,14.06H12.19a0.39,0.39,0,0,1-.39-0.39V10.32a0.39,0.39,0,0,1,.39-0.39h5.15a0.39,0.39,0,0,1,.39.39v3.35a0.4,0.4,0,0,1-.39.39h0Z" transform="translate(0 0)"/><polygon class="cls-1" points="17.73 17.97 15.86 17.97 15.86 17.34 17.73 17.34 17.73 17.97 17.73 17.97"/><polygon class="cls-1" points="11.25 17.97 4.99 17.97 4.99 17.34 11.25 17.34 11.25 17.97 11.25 17.97"/><polygon class="cls-1" points="5 16.41 5 15.31 7.19 15.31 7.19 16.41 5 16.41 5 16.41"/><polygon class="cls-1" points="8.13 16.41 8.13 15.31 10.78 15.31 10.78 16.41 8.13 16.41 8.13 16.41"/><polygon class="cls-1" points="11.88 16.41 11.88 15.31 14.53 15.31 14.53 16.41 11.88 16.41 11.88 16.41"/><path class="cls-1" d="M1.52,4.52a0.79,0.79,0,0,0-.55,1L1.21,6.39,16,2.42l-0.24-.91a0.79,0.79,0,0,0-1-.55L1.52,4.52h0ZM17.23,7L16.73,5.14,9.66,7H4.53A2.51,2.51,0,0,0,2,9.53v3.55l-2-7.36A1.72,1.72,0,0,1,1.27,3.62L14.56,0.06a1.72,1.72,0,0,1,2.1,1.22L18.2,7h-1Z" transform="translate(0 0)"/><path class="cls-1" d="M4.53,8.75a0.79,0.79,0,0,0-.78.78v8.75a0.79,0.79,0,0,0,.78.78H18.28a0.79,0.79,0,0,0,.78-0.78V9.53a0.79,0.79,0,0,0-.78-0.78H4.53Zm0-.94H18.28A1.72,1.72,0,0,1,20,9.53v8.75A1.72,1.72,0,0,1,18.28,20H4.53a1.72,1.72,0,0,1-1.72-1.72V9.53A1.72,1.72,0,0,1,4.53,7.81h0Z" transform="translate(0 0)"/></svg>