<svg id="Layer_1" data-name="Layer 1" xmlns="http://www.w3.org/2000/svg" viewBox="0 0 19.36 19.36"><defs><style>.cls-1,.cls-2{fill:#82ab40;}.cls-1{fill-rule:evenodd;}</style></defs><title>Untitled-6</title><path class="cls-1" d="M11,14.88V14.15c0-.15-0.11-0.28,0-0.31a2.26,2.26,0,0,0,1.91-2.3c0-1.16-.65-1.86-2.17-2.4-1.1-.4-1.57-0.68-1.57-1.08s0.25-.73,1.08-0.73a3.82,3.82,0,0,1,1.49.29,0.3,0.3,0,0,0,.26,0,0.31,0.31,0,0,0,.17-0.2l0.21-.81a0.32,0.32,0,0,0-.19-0.38,3.28,3.28,0,0,0-1.12-.29C10.95,5.93,11,5.79,11,5.62V5.12A0.8,0.8,0,0,0,10.32,5H9.71A0.87,0.87,0,0,0,9,5.12V5.75C9,5.9,9.1,6,9,6.06A2.19,2.19,0,0,0,7.14,8.28c0,1.24,1,1.87,2.34,2.33,1,0.32,1.39.62,1.39,1.11a1,1,0,0,1-1.22.79,4.39,4.39,0,0,1-1.77-.39,0.3,0.3,0,0,0-.27,0,0.31,0.31,0,0,0-.17.21l-0.22.86a0.32,0.32,0,0,0,.18.37A4.47,4.47,0,0,0,8.87,14C9,14,9,14.12,9,14.29v0.59C9,15.06,9.47,15,9.64,15h0.62A0.93,0.93,0,0,0,11,14.88h0Z" transform="translate(-0.32 -0.32)"/><path class="cls-2" d="M10,19.68a9.68,9.68,0,1,1,6.84-2.84A9.65,9.65,0,0,1,10,19.68h0ZM6.08,16.79A7.84,7.84,0,1,1,13.92,3.21l0.44-.76A8.72,8.72,0,0,0,5.64,17.55l0.47-.81A7.79,7.79,0,0,0,13.89,3.26l-0.21.37A7.36,7.36,0,1,0,6.32,16.38l-0.24.41h0Z" transform="translate(-0.32 -0.32)"/></svg>