<svg id="Layer_1" data-name="Layer 1" xmlns="http://www.w3.org/2000/svg" viewBox="0 0 20 19.78"><defs><style>.cls-1{fill:#fbfdf6;}.cls-1,.cls-3,.cls-4,.cls-5{fill-rule:evenodd;}.cls-2{fill:#7c3d30;}.cls-3{fill:#eededa;}.cls-4{fill:#ffe46e;}.cls-5{fill:#fccc6d;}</style></defs><title>Untitled-25</title><path class="cls-1" d="M0,8H0.33l8.89,6.76a0.84,0.84,0,0,0,1,.07L19,8.27V18.49c0,0.44-.21.51-0.68,0.51H1.41C0.94,19,0,18.94,0,18.49V8Z" transform="translate(0 -0.22)"/><path class="cls-1" d="M0.56,8.27L9.33,14.9a0.88,0.88,0,0,0,1.06,0l8.78-6.63L10.44,0.62a0.89,0.89,0,0,0-1.16,0Z" transform="translate(0 -0.22)"/><path class="cls-2" d="M18.32,20H1.41A1.91,1.91,0,0,1,0,18.49V8.27A0.53,0.53,0,0,1,.29,8.09a0.41,0.41,0,0,1,.31,0l8.82,6.63a0.7,0.7,0,0,0,.82,0L19,8.11a1.2,1.2,0,0,1,.54,0,1.08,1.08,0,0,1,.43.18V18.49A2.26,2.26,0,0,1,18.32,20ZM1,8.69v9.81C1,18.83,1.06,19,1.41,19H18.32A0.59,0.59,0,0,0,19,18.49V8.69l-8.45,6.37a1,1,0,0,1-1.22,0Z" transform="translate(0 -0.22)"/><path class="cls-3" d="M0.56,8H2V7.36L3.93,5H15.8L18,7.36V8h1.17l-8.78,6.76a0.89,0.89,0,0,1-1.06-.07Z" transform="translate(0 -0.22)"/><path class="cls-2" d="M9.86,15.28a1.11,1.11,0,0,1-.66-0.22L0.42,8.43A0.2,0.2,0,0,1,.35,8.28,0.19,0.19,0,0,1,.41,8.12L9.14,0.48a1.13,1.13,0,0,1,1.44,0l8.73,7.65a0.19,0.19,0,0,1,.07.15,0.2,0.2,0,0,1-.08.15l-8.78,6.63A1.11,1.11,0,0,1,9.86,15.28Zm-9-7,8.58,6.48a0.67,0.67,0,0,0,.8,0l8.58-6.48L10.3,0.77a0.68,0.68,0,0,0-.87,0Z" transform="translate(0 -0.22)"/><path class="cls-3" d="M3.74,7.59a0.44,0.44,0,0,1-.6,0,0.38,0.38,0,0,1,0-.57L5.3,5.13,7.44,3.26,9.58,1.38a0.44,0.44,0,0,1,.58,0l2.14,1.87,2.14,1.87L16.56,7a0.38,0.38,0,0,1,0,.57,0.44,0.44,0,0,1-.6,0L13.85,5.71,11.71,3.84,9.86,2.22,8,3.84,5.88,5.71Z" transform="translate(0 -0.22)"/><path class="cls-4" d="M2,3H18V9.59L10.69,14.9a1.39,1.39,0,0,1-1.36,0L2,9.59V3Z" transform="translate(0 -0.22)"/><path class="cls-5" d="M18,8.06V9.59L10.69,14.9a1.39,1.39,0,0,1-1.36,0L2,9.59V8.06l8,5.71Z" transform="translate(0 -0.22)"/><path class="cls-2" d="M9.86,15.28a1.11,1.11,0,0,1-.66-0.22L2.13,9.75A0.26,0.26,0,0,1,2,9.59V3.34A0.47,0.47,0,0,1,2.31,3H17.42a1,1,0,0,1,.58.34V9.59a0.69,0.69,0,0,1-.26.16l-7.12,5.31A1.4,1.4,0,0,1,9.86,15.28ZM3,9.5l6.71,5.25a0.38,0.38,0,0,0,.57,0L17,9.5V4H3V9.5Z" transform="translate(0 -0.22)"/><path class="cls-3" d="M13.83,16.09a0.62,0.62,0,1,1-.66.62,0.64,0.64,0,0,1,.66-0.62h0Zm0-1.13a1.71,1.71,0,0,0-1,.59,1.56,1.56,0,0,0-.43,1.07,1.45,1.45,0,0,0,.43,1,1.69,1.69,0,0,0,1,.57c0.4,0,.76-0.23,1-0.23h2.53a0.69,0.69,0,0,0,0-1h0a0.69,0.69,0,0,0,0-1h0a0.69,0.69,0,0,0,0-1H14.86c-0.27,0-.63,0-1,0h0Zm0,0.76a1,1,0,1,0,1.05,1A1,1,0,0,0,13.83,15.72Z" transform="translate(0 -0.22)"/></svg>