<svg id="Layer_1" data-name="Layer 1" xmlns="http://www.w3.org/2000/svg" viewBox="0 0 16 20"><defs><style>.cls-1,.cls-2{fill:#2da5c3;}.cls-2{fill-rule:evenodd;}</style></defs><title>Untitled-5</title><path class="cls-1" d="M17,2h0.6c0.27,0,.4-0.12.4,0.13v16A1.83,1.83,0,0,1,16.32,20H4c-0.27,0,0-.4,0-0.65V19H16.32A0.79,0.79,0,0,0,17,18.12v-16h0V2h0ZM14,15H10V14h4v1h0Zm0-2H10V12h4v1h0Zm0-1H10V11h4v1h0Zm0-6H10V5h4V6h0Zm0,4H10V9h4v1h0Zm0-6H10V3h4V4h0ZM8,1V5.51A0.49,0.49,0,0,1,7.52,6H3V17H16V1H8ZM7,5V1.71L3.56,5H7Zm9,13H2.4c-0.27,0-.4.07-0.4-0.19V5.51a0.42,0.42,0,0,1,.1-0.33L7.2,0.27A0.55,0.55,0,0,1,7.53.07V0H16c0.27,0,0,.34,0,0.6V17.81c0,0.25.26,0.19,0,.19h0Z" transform="translate(-2)"/><path class="cls-2" d="M7,15V14.55c0-.09-0.09-0.17,0-0.19a1.41,1.41,0,0,0,1.22-1.42c0-.72-0.43-1.15-1.41-1.49-0.71-.24-1-0.42-1-0.67s0.16-.45.7-0.45a2.55,2.55,0,0,1,1,.18,0.2,0.2,0,0,0,.17,0,0.19,0.19,0,0,0,.11-0.13l0.14-.5a0.2,0.2,0,0,0-.12-0.24A2,2,0,0,0,7,9.45c-0.11,0,0-.09,0-0.2V8.95A0.83,0.83,0,0,0,6.51,9H6.12C6,9,6,8.84,6,8.95V9.34a0.25,0.25,0,0,1-.2.19,1.45,1.45,0,0,0-1.26,1.37c0,0.77.59,1.16,1.47,1.45,0.62,0.2.87,0.39,0.87,0.69s-0.32.49-.8,0.49a3,3,0,0,1-1.15-.24,0.21,0.21,0,0,0-.17,0,0.19,0.19,0,0,0-.11.13L4.51,14a0.2,0.2,0,0,0,.12.23,4.21,4.21,0,0,0,1.12.25,0.27,0.27,0,0,1,.25.2V15c0,0.11,0,0,.08,0h0.4A0.83,0.83,0,0,0,7,15H7Z" transform="translate(-2)"/></svg>