<svg id="Layer_1" data-name="Layer 1" xmlns="http://www.w3.org/2000/svg" viewBox="0 0 18.8 18.81"><defs><style>.cls-1{fill:#e0e2e2;}.cls-2{fill:#4b2530;}.cls-3{fill:#dbc34c;}.cls-10,.cls-3,.cls-7,.cls-8,.cls-9{fill-rule:evenodd;}.cls-4{fill:#aa959a;}.cls-5{fill:#7b5c62;}.cls-10,.cls-6{fill:#88ad73;}.cls-7{fill:#9acd8c;}.cls-8{fill:#6c8b58;}.cls-9{fill:#c9e4bb;}</style></defs><title>Untitled-26</title><circle class="cls-1" cx="7.04" cy="6.85" r="6.42" transform="translate(-3.13 6.84) rotate(-45)"/><path class="cls-2" d="M7,13.55A6.7,6.7,0,0,1,2.31,2.11a6.7,6.7,0,1,1,9.47,9.47A6.65,6.65,0,0,1,7,13.55ZM7,0.7A6.15,6.15,0,0,0,2.7,11.2a6.15,6.15,0,0,0,8.7-8.7A6.11,6.11,0,0,0,7,.7Z" transform="translate(-0.35 -0.15)"/><path class="cls-3" d="M12.09,10.83l3,3L14,14.88l-3-3A6.44,6.44,0,0,0,12.09,10.83Z" transform="translate(-0.35 -0.15)"/><path class="cls-2" d="M14,15.15a0.27,0.27,0,0,1-.19-0.08l-3-3a0.27,0.27,0,0,1,0-.41,6.28,6.28,0,0,0,.54-0.48,6.21,6.21,0,0,0,.48-0.54,0.27,0.27,0,0,1,.2-0.1,0.27,0.27,0,0,1,.21.08l3,3a0.27,0.27,0,0,1,0,.39L14.2,15.07A0.27,0.27,0,0,1,14,15.15Zm-2.58-3.24L14,14.49l0.68-.68-2.58-2.58-0.33.35Z" transform="translate(-0.35 -0.15)"/><rect class="cls-4" x="13.44" y="12.01" width="4.01" height="6.47" rx="0.63" ry="0.63" transform="translate(-6.61 15.23) rotate(-45)"/><rect class="cls-5" x="13.64" y="12.5" width="2.63" height="6.47" rx="0.63" ry="0.63" transform="translate(-7.09 15.03) rotate(-45)"/><path class="cls-2" d="M16.31,19a0.89,0.89,0,0,1-.64-0.26L12,15a0.9,0.9,0,0,1,0-1.27l1.95-1.95a0.9,0.9,0,0,1,1.27,0l3.69,3.69a0.9,0.9,0,0,1,0,1.27L16.94,18.7A0.89,0.89,0,0,1,16.31,19Zm-1.74-6.89a0.35,0.35,0,0,0-.25.1l-1.95,1.95a0.35,0.35,0,0,0,0,.5l3.69,3.69a0.36,0.36,0,0,0,.5,0l1.95-1.95a0.35,0.35,0,0,0,0-.5l-3.69-3.69A0.35,0.35,0,0,0,14.57,12.07Z" transform="translate(-0.35 -0.15)"/><circle class="cls-6" cx="6.69" cy="6.7" r="4.92"/><path class="cls-7" d="M7,3.57c1.35,0,2.45.72,2.45,1.6S8.4,5.87,7,5.87s-2.45.19-2.45-.7S5.69,3.57,7,3.57Z" transform="translate(-0.35 -0.15)"/><path class="cls-8" d="M7,1.93a4.92,4.92,0,0,1,4.88,5.59,4.92,4.92,0,0,0-9.75,0,5,5,0,0,1,0-.67A4.92,4.92,0,0,1,7,1.93Z" transform="translate(-0.35 -0.15)"/><path class="cls-7" d="M11.12,6.54q0,0.15,0,.31A4.09,4.09,0,0,1,3,6.85Q3,6.7,3,6.54A4.09,4.09,0,0,0,11.12,6.54Z" transform="translate(-0.35 -0.15)"/><path class="cls-7" d="M7,1.93a4.92,4.92,0,0,1,1.47.22v9.4A4.92,4.92,0,1,1,7,1.93Z" transform="translate(-0.35 -0.15)"/><path class="cls-9" d="M7,3.57a3.35,3.35,0,0,1,1.47.32v2c-0.41,0-.92,0-1.47,0-1.35,0-2.45.19-2.45-.7S5.69,3.57,7,3.57Z" transform="translate(-0.35 -0.15)"/><path class="cls-10" d="M7,1.93a4.92,4.92,0,0,1,1.47.22V3.49a4.93,4.93,0,0,0-6.34,4,5,5,0,0,1,0-.67A4.92,4.92,0,0,1,7,1.93Z" transform="translate(-0.35 -0.15)"/><path class="cls-9" d="M8.51,10.67A4.09,4.09,0,0,1,3,6.85Q3,6.7,3,6.54a4.09,4.09,0,0,0,5.55,3.51v0.61Z" transform="translate(-0.35 -0.15)"/></svg>