<svg id="Layer_1" data-name="Layer 1" xmlns="http://www.w3.org/2000/svg" viewBox="0 0 18.19 18.08"><defs><style>.cls-1{fill:#e7e9ea;}.cls-1,.cls-10,.cls-11,.cls-12,.cls-13,.cls-14,.cls-2,.cls-3,.cls-4,.cls-5,.cls-6,.cls-8,.cls-9{fill-rule:evenodd;}.cls-2{fill:#b8b9c2;}.cls-3{fill:#8bccd2;}.cls-4{fill:#609ba2;}.cls-5{fill:#88ad73;}.cls-6{fill:#9acd8c;}.cls-7{fill:#4b2530;}.cls-8{fill:#7b9c68;}.cls-9{fill:#faf4a4;}.cls-10{fill:#dbc34c;}.cls-11{fill:#c2ad43;}.cls-12{fill:#f15b44;}.cls-13{fill:#f48070;}.cls-14{fill:#ae3325;}</style></defs><title>Untitled-16</title><polygon class="cls-1" points="9.09 3.95 13.54 2.76 13.54 16.69 9.09 17.89 9.09 3.95"/><path class="cls-2" d="M18.38,4.51L14.46,3.46V17.4l3.92,1.05a0.39,0.39,0,0,0,.53-0.39V5.18A0.74,0.74,0,0,0,18.38,4.51Z" transform="translate(-0.92 -0.7)"/><polygon class="cls-2" points="9.09 3.95 4.65 2.76 4.65 16.69 9.09 17.89 9.09 3.95"/><path class="cls-1" d="M1.64,4.51L5.56,3.46V17.4L1.64,18.45a0.39,0.39,0,0,1-.53-0.39V5.18A0.74,0.74,0,0,1,1.64,4.51Z" transform="translate(-0.92 -0.7)"/><polygon class="cls-3" points="1.43 4.85 1.43 16.32 4.65 15.46 4.65 3.99 1.43 4.85"/><polygon class="cls-4" points="4.65 15.46 9.09 16.65 9.09 5.18 4.65 3.99 4.65 15.46"/><polygon class="cls-3" points="9.09 16.65 13.54 15.46 13.54 3.99 9.09 5.18 9.09 16.65"/><polygon class="cls-5" points="13.54 15.46 16.76 16.32 16.76 4.85 13.54 3.99 13.54 15.46"/><path class="cls-6" d="M2.35,5.56V6.68A3.23,3.23,0,0,1,5.56,7.89V4.7Z" transform="translate(-0.92 -0.7)"/><path class="cls-5" d="M10,15.45V5.89L5.56,4.7v3.2c0.84,1.53,2.2,2.28,1.56,4.69C6.65,14.33,9.35,15.09,10,15.45Z" transform="translate(-0.92 -0.7)"/><path class="cls-6" d="M13.6,16.39l0.86-.23V4.7L10,5.89v9.57C11.09,15.48,12.52,15.28,13.6,16.39Z" transform="translate(-0.92 -0.7)"/><path class="cls-7" d="M13.6,16.49a0.1,0.1,0,0,1-.07,0,3.82,3.82,0,0,0-3-.91H10c-0.11-.06-0.28-0.14-0.49-0.22-1-.43-2.86-1.23-2.45-2.75A3.58,3.58,0,0,0,6.18,9a9.84,9.84,0,0,1-.7-1.05A3.13,3.13,0,0,0,2.36,6.78a0.1,0.1,0,1,1,0-.2A3.31,3.31,0,0,1,5.64,7.83h0a9.63,9.63,0,0,0,.69,1,3.78,3.78,0,0,1,.87,3.73C6.85,14,8.54,14.7,9.55,15.14L10,15.36H10.5a4,4,0,0,1,3.17,1A0.1,0.1,0,0,1,13.6,16.49Z" transform="translate(-0.92 -0.7)"/><path class="cls-7" d="M10,18.79H10L5.56,17.6l-3.87,1a0.62,0.62,0,0,1-.61-0.14,0.61,0.61,0,0,1-.17-0.43V5.18a0.94,0.94,0,0,1,.68-0.86L5.51,3.27h0.1L10,4.45l4.4-1.18h0.1l3.92,1.05a0.94,0.94,0,0,1,.68.86V18.06a0.58,0.58,0,0,1-.59.6l-0.19,0-3.87-1-4.4,1.18H10ZM5.56,17.2H5.61L10,18.38l4.4-1.18h0.1l3.92,1.05h0.09a0.19,0.19,0,0,0,.2-0.21V5.18a0.55,0.55,0,0,0-.38-0.48l-3.87-1-4.4,1.18H10L5.56,3.67l-3.87,1a0.55,0.55,0,0,0-.38.48V18.06a0.22,0.22,0,0,0,.05.16,0.23,0.23,0,0,0,.23,0l3.92-1.05H5.56Z" transform="translate(-0.92 -0.7)"/><path class="cls-8" d="M14.19,11.35L16.3,9.89a3.15,3.15,0,0,0,.84-0.79,1.9,1.9,0,0,0,0-2.28,3.28,3.28,0,0,0-1-.9,5.4,5.4,0,0,0-1.45-.59l-0.5-.11a7.33,7.33,0,0,0-1.26-.11,7.14,7.14,0,0,0-1.76.21,5.4,5.4,0,0,0-1.45.59,3.71,3.71,0,0,0-.64.48,2.77,2.77,0,0,0-.36.42,1.9,1.9,0,0,0,0,2.28,2.76,2.76,0,0,0,.36.42,3.57,3.57,0,0,0,.48.38l3.26,2.25a0.18,0.18,0,0,0,.21,0Z" transform="translate(-0.92 -0.7)"/><path class="cls-5" d="M14.19,11.35l0.27-.19V5.28l-0.27-.05a7.33,7.33,0,0,0-1.26-.11,7.14,7.14,0,0,0-1.76.21A5.64,5.64,0,0,0,10,5.76v4.45l2.81,1.94a0.18,0.18,0,0,0,.21,0Z" transform="translate(-0.92 -0.7)"/><polygon class="cls-9" points="5.87 6.3 7.43 4.74 8.4 5 6.48 6.92 12.6 13.04 15.8 9.84 10.71 4.75 11.68 4.49 16.41 9.22 16.76 8.88 16.76 10.12 13.22 13.65 15.57 16 13.54 15.46 13.49 15.47 2.57 4.55 3.79 4.22 5.87 6.3"/><path class="cls-10" d="M6.78,7L8.34,5.44,8.55,5.5,9.32,5.7,7.4,7.62,10,10.23v1.54L5.56,7.33V5.78L6.78,7h0Zm7.68,5.8,2.25-2.25L14.46,8.29V7.06l2.87,2.87,0.34-.34v1.23L14.46,14V12.8h0Zm0,1.88,2,2-2-.54V14.68Z" transform="translate(-0.92 -0.7)"/><path class="cls-11" d="M8.51,8.73l1.42,1.42L9.56,9.9a3.57,3.57,0,0,1-.48-0.38A2.76,2.76,0,0,1,8.72,9.1a2.24,2.24,0,0,1-.21-0.37h0ZM16.16,10l0.14-.1a3.48,3.48,0,0,0,.55-0.45L14.46,7.06V8.29Z" transform="translate(-0.92 -0.7)"/><path class="cls-7" d="M10,17.49h0L5.56,16.3l-3.18.85A0.13,0.13,0,0,1,2.22,17V5.56a0.13,0.13,0,0,1,.1-0.13l3.21-.86H5.6L10,5.75l4.41-1.18h0.07l3.21,0.86a0.13,0.13,0,0,1,.1.13V17a0.13,0.13,0,0,1-.17.13l-3.18-.85L10,17.48h0ZM5.56,16h0L10,17.22,14.42,16h0.07l3,0.82V5.66l-3.08-.83L10,6H10L5.56,4.83l-3.08.83V16.85l3-.82h0Z" transform="translate(-0.92 -0.7)"/><path class="cls-7" d="M10,18.69a0.1,0.1,0,0,1-.1-0.1V4.65a0.1,0.1,0,0,1,.2,0V18.59A0.1,0.1,0,0,1,10,18.69Zm4.45-1.19a0.1,0.1,0,0,1-.1-0.1V3.46a0.1,0.1,0,0,1,.2,0V17.4A0.1,0.1,0,0,1,14.46,17.5Zm-8.9,0a0.1,0.1,0,0,1-.1-0.1V3.46a0.1,0.1,0,1,1,.2,0V17.4A0.1,0.1,0,0,1,5.56,17.5Z" transform="translate(-0.92 -0.7)"/><path class="cls-12" d="M16.19,8.26L12.93,12,9.66,8.26a4.41,4.41,0,1,1,6.53,0h0Z" transform="translate(-0.92 -0.7)"/><path class="cls-13" d="M8.55,5.75a4.45,4.45,0,0,1,0-.45,4.4,4.4,0,1,1,8.81,0,4.45,4.45,0,0,1,0,.45A4.4,4.4,0,0,0,8.55,5.75Z" transform="translate(-0.92 -0.7)"/><path class="cls-7" d="M12.93,12.18a0.2,0.2,0,0,1-.15-0.07L9.52,8.39a4.6,4.6,0,1,1,6.82,0l-3.26,3.73A0.2,0.2,0,0,1,12.93,12.18Zm0-11.09a4.2,4.2,0,0,0-3.12,7l3.12,3.56L16,8.13A4.2,4.2,0,0,0,12.93,1.1Z" transform="translate(-0.92 -0.7)"/><path class="cls-7" d="M12.93,12.18a0.2,0.2,0,0,1-.15-0.07L9.52,8.39a4.6,4.6,0,1,1,6.82,0l-3.26,3.73A0.2,0.2,0,0,1,12.93,12.18Zm0-11.09a4.2,4.2,0,0,0-3.12,7l3.12,3.56L16,8.13A4.2,4.2,0,0,0,12.93,1.1Z" transform="translate(-0.92 -0.7)"/><path class="cls-14" d="M12.93,3.35a2.28,2.28,0,1,1-.89.18A2.28,2.28,0,0,1,12.93,3.35Z" transform="translate(-0.92 -0.7)"/><path class="cls-9" d="M12.93,3.14a2.18,2.18,0,1,1-.85.17A2.18,2.18,0,0,1,12.93,3.14Z" transform="translate(-0.92 -0.7)"/><path class="cls-7" d="M12.93,7.65a2.31,2.31,0,1,1,.9-0.18A2.3,2.3,0,0,1,12.93,7.65Zm0-4.38a2.06,2.06,0,0,0-.8,4,2.07,2.07,0,0,0,1.6,0A2.06,2.06,0,0,0,12.93,3.28Z" transform="translate(-0.92 -0.7)"/></svg>