<svg xmlns="http://www.w3.org/2000/svg" viewBox="0 0 20 20"><defs><style>.cls-1{isolation:isolate;}.cls-2{fill:#00a79d;}.cls-3{fill:#231f20;opacity:0.3;mix-blend-mode:multiply;}.cls-4{fill:#fff;}.cls-5{fill:#f7941e;}</style></defs><title>Untitled-1</title><g class="cls-1"><g id="Layer_1" data-name="Layer 1"><path class="cls-2" d="M20,17.47A2.53,2.53,0,0,1,17.72,20H2.35A2.6,2.6,0,0,1,0,17.47v-15A2.49,2.49,0,0,1,2.35,0H17.72A2.43,2.43,0,0,1,20,2.42v15Z"/><path class="cls-3" d="M13.74,7L11.63,5.31,8.08,3.71,0,9.53v8.54A2.39,2.39,0,0,0,2.23,20H7.72l4.85-3.69L10.93,9.17Z"/><path class="cls-4" d="M13.89,7H10.66a9.32,9.32,0,0,0,0-1.09,0.54,0.54,0,0,0-.19-0.37A0.65,0.65,0,0,0,10,5.38a0.57,0.57,0,0,0-.41.16,0.93,0.93,0,0,0-.37.4,3.74,3.74,0,0,0-.21,1V9c1-.35.59-0.61,0.91-0.78a2.84,2.84,0,0,1,1.27-.26,2.78,2.78,0,0,1,1.61.48,2.25,2.25,0,0,1,.94,1.15A6.71,6.71,0,0,1,14,11.39v1a12.72,12.72,0,0,1-.16,2,2.64,2.64,0,0,1-.58,1.23,3,3,0,0,1-1.25.88,5,5,0,0,1-1.84.31A5.41,5.41,0,0,1,8,16.52a2.87,2.87,0,0,1-1.28-1,3.24,3.24,0,0,1-.6-1.42A26.86,26.86,0,0,1,6,11.16V9.36c0-1.54.09-2.58,0.14-3.1a3.07,3.07,0,0,1,.59-1.48,3,3,0,0,1,1.35-1,5.1,5.1,0,0,1,2-.35,4.94,4.94,0,0,1,2.23.44A2.55,2.55,0,0,1,13.51,5,4,4,0,0,1,13.89,7ZM11,11.14a1.75,1.75,0,0,0-.32-0.95,0.68,0.68,0,0,0-.58-0.26,1,1,0,0,0-.72.24,1.66,1.66,0,0,0-.38,1v2.35a2.14,2.14,0,0,0,.33,1.12,0.68,0.68,0,0,0,.58.26,1.23,1.23,0,0,0,.65-0.2,1.5,1.5,0,0,0,.44-1.1V11.14Z"/><rect class="cls-5" width="20" height="20" rx="2.29" ry="2.29"/><path class="cls-3" d="M11.74,4.44l-3.47.2L7.83,3.76,0,9.66v8.56A2.11,2.11,0,0,0,2.25,20H5.34l5.23-3.75L11,12.32Z"/><path class="cls-4" d="M12,3V6.27L10.39,16H7.17L9.47,6H6V3h6Z"/></g></g></svg>