<svg xmlns="http://www.w3.org/2000/svg" viewBox="0 0 20 20"><defs><style>.cls-1{isolation:isolate;}.cls-2{fill:#f15a29;}.cls-3{fill:#231f20;opacity:0.3;mix-blend-mode:multiply;}.cls-4{fill:#fff;}.cls-5{fill:#d7df23;}.cls-6{fill:#4d4d4d;}</style></defs><title>Untitled-1</title><g class="cls-1"><g id="Layer_1" data-name="Layer 1"><path class="cls-2" d="M20,17.72A2.32,2.32,0,0,1,17.64,20H2.71A2.66,2.66,0,0,1,0,17.72V2.28A2.66,2.66,0,0,1,2.71,0H17.64A2.32,2.32,0,0,1,20,2.28V17.72Z"/><path class="cls-3" d="M10.52,3.52L7.12,6,6.86,5.66,0,11v7.29C0,19.3,1.28,20,2.37,20H7.86l4.6-3.35L11.6,4.87Z"/><path class="cls-4" d="M13,3V17H9V9.63c0-1,.06-1.63,0-1.84a0.76,0.76,0,0,0-.36-0.55A3.37,3.37,0,0,0,7.23,7H7V5.63A10.29,10.29,0,0,0,10.52,3H13Z"/><path class="cls-5" d="M20,17.82A2.2,2.2,0,0,1,17.71,20H2.27A2.18,2.18,0,0,1,0,17.82V2.3A2.28,2.28,0,0,1,2.27,0H17.71A2.29,2.29,0,0,1,20,2.3V17.82Z"/><path class="cls-3" d="M11.73,4.47L7,5.93,8.08,3.72,0,9.72v8.62C0,19.38,1.14,20,2.24,20H7.75l5.7-3.62L9.57,15Z"/><path class="cls-4" d="M14,14v3H6.6V14.89C8.71,11.42,10,9.15,10.37,8.33a5.11,5.11,0,0,0,.6-2,1.52,1.52,0,0,0-.18-0.82,0.63,0.63,0,0,0-.55-0.28c-0.25,0-.18.09-0.3,0.28A4.23,4.23,0,0,0,10,6.66V8H7V7.43A16.64,16.64,0,0,1,6.91,5.7a2.81,2.81,0,0,1,.45-1.25,2.64,2.64,0,0,1,1.1-.93,4,4,0,0,1,1.67-.31,4,4,0,0,1,2.91,1,3.25,3.25,0,0,1,1,2.44,5.22,5.22,0,0,1-.56,2.23A20.19,20.19,0,0,1,10.18,14H14Z"/><path class="cls-6" d="M20,17.68A2.32,2.32,0,0,1,17.71,20H2.27A2.31,2.31,0,0,1,0,17.68V2.28A2.27,2.27,0,0,1,2.27,0H17.71A2.28,2.28,0,0,1,20,2.28V17.68Z"/><path class="cls-3" d="M11.73,4.43l-3.47.2L7.83,3.75,0,9.65v8.55A2.12,2.12,0,0,0,2.24,20H6.71l6.84-4.45L12,12.31Z"/><path class="cls-4" d="M12.83,9a2,2,0,0,1,1.1.81,5.94,5.94,0,0,1,.36,2.64,6.47,6.47,0,0,1-.35,2.4,2.5,2.5,0,0,1-1.22,1.3,4.86,4.86,0,0,1-2.22.44,4.78,4.78,0,0,1-2.42-.52,2.14,2.14,0,0,1-1-1.26,10.15,10.15,0,0,1-.1-2.6V11h3v2.34a4.2,4.2,0,0,0,0,1.07,0.39,0.39,0,0,0,.42.23,0.43,0.43,0,0,0,.46-0.29,6.07,6.07,0,0,0,.08-1.5V12a2.7,2.7,0,0,0-.14-1.09,0.91,0.91,0,0,0-.54-0.45A3.56,3.56,0,0,0,9,10.29V8.41a5.73,5.73,0,0,0,1.48-.09,0.63,0.63,0,0,0,.4-0.38A2.63,2.63,0,0,0,11,7V6.29a2,2,0,0,0-.12-0.9,0.46,0.46,0,0,0-.42-0.22,0.38,0.38,0,0,0-.4.23,2.84,2.84,0,0,0-.06,1V7H7V6.34c0-1.24.11-2.07,0.67-2.51a4.17,4.17,0,0,1,2.61-.65,4.1,4.1,0,0,1,3.1.9,3.57,3.57,0,0,1,.8,2.51,3.11,3.11,0,0,1-.31,1.57A2.7,2.7,0,0,1,12.83,9Z"/></g></g></svg>