<svg xmlns="http://www.w3.org/2000/svg" viewBox="0 0 20 20"><defs><style>.cls-1{isolation:isolate;}.cls-2{fill:#00a79d;}.cls-3{fill:#231f20;opacity:0.3;mix-blend-mode:multiply;}.cls-4{fill:#fff;}.cls-5{fill:#f7941e;}.cls-6{fill:#8dc63f;}.cls-7{fill:#be1e2d;}</style></defs><title>Untitled-1</title><g class="cls-1"><g id="Layer_1" data-name="Layer 1"><path class="cls-2" d="M20,17.47A2.53,2.53,0,0,1,17.72,20H2.35A2.6,2.6,0,0,1,0,17.47v-15A2.49,2.49,0,0,1,2.35,0H17.72A2.43,2.43,0,0,1,20,2.42v15Z"/><path class="cls-3" d="M13.74,7L11.63,5.31,8.08,3.71,0,9.53v8.54A2.39,2.39,0,0,0,2.23,20H7.72l4.85-3.69L10.93,9.17Z"/><path class="cls-4" d="M13.89,7H10.66a9.32,9.32,0,0,0,0-1.09,0.54,0.54,0,0,0-.19-0.37A0.65,0.65,0,0,0,10,5.38a0.57,0.57,0,0,0-.41.16,0.93,0.93,0,0,0-.37.4,3.74,3.74,0,0,0-.21,1V9c1-.35.59-0.61,0.91-0.78a2.84,2.84,0,0,1,1.27-.26,2.78,2.78,0,0,1,1.61.48,2.25,2.25,0,0,1,.94,1.15A6.71,6.71,0,0,1,14,11.39v1a12.72,12.72,0,0,1-.16,2,2.64,2.64,0,0,1-.58,1.23,3,3,0,0,1-1.25.88,5,5,0,0,1-1.84.31A5.41,5.41,0,0,1,8,16.52a2.87,2.87,0,0,1-1.28-1,3.24,3.24,0,0,1-.6-1.42A26.86,26.86,0,0,1,6,11.16V9.36c0-1.54.09-2.58,0.14-3.1a3.07,3.07,0,0,1,.59-1.48,3,3,0,0,1,1.35-1,5.1,5.1,0,0,1,2-.35,4.94,4.94,0,0,1,2.23.44A2.55,2.55,0,0,1,13.51,5,4,4,0,0,1,13.89,7ZM11,11.14a1.75,1.75,0,0,0-.32-0.95,0.68,0.68,0,0,0-.58-0.26,1,1,0,0,0-.72.24,1.66,1.66,0,0,0-.38,1v2.35a2.14,2.14,0,0,0,.33,1.12,0.68,0.68,0,0,0,.58.26,1.23,1.23,0,0,0,.65-0.2,1.5,1.5,0,0,0,.44-1.1V11.14Z"/><rect class="cls-5" width="20" height="20" rx="2.29" ry="2.29"/><path class="cls-3" d="M11.74,4.44l-3.47.2L7.83,3.76,0,9.66v8.56A2.11,2.11,0,0,0,2.25,20H5.34l5.23-3.75L11,12.32Z"/><path class="cls-4" d="M12,3V6.27L10.39,16H7.17L9.47,6H6V3h6Z"/><path class="cls-6" d="M20,17.78A2.23,2.23,0,0,1,17.71,20H2.29A2.23,2.23,0,0,1,0,17.78V2.29A2.29,2.29,0,0,1,2.29,0H17.71A2.29,2.29,0,0,1,20,2.29V17.78Z"/><path class="cls-3" d="M14.09,8.12L11.84,5.34,9.13,3.52,0,9.7v8.6c0,1,1.15,1.7,2.25,1.7H6.72l6.81-4.32-0.95-5.8Z"/><path class="cls-4" d="M12.93,9.09A2.34,2.34,0,0,1,14,10a6,6,0,0,1,.38,2.74,6.59,6.59,0,0,1-.3,2.33,2.49,2.49,0,0,1-1.19,1.23,5,5,0,0,1-2.36.48,4.8,4.8,0,0,1-2.28-.46,2.74,2.74,0,0,1-1.21-1.22,6.26,6.26,0,0,1-.36-2.52,10.21,10.21,0,0,1,.18-2.05A2.07,2.07,0,0,1,8,9.09a1.88,1.88,0,0,1-.9-0.92,3.73,3.73,0,0,1-.3-1.6A3.23,3.23,0,0,1,7.75,4a4,4,0,0,1,2.78-.84,3.92,3.92,0,0,1,3,.89,3.64,3.64,0,0,1,.82,2.55A3.2,3.2,0,0,1,14,8.16,2.79,2.79,0,0,1,12.93,9.09ZM11,11.71a2.56,2.56,0,0,0-.06-1,0.45,0.45,0,0,0-.44-0.25,0.42,0.42,0,0,0-.41.24,2.56,2.56,0,0,0-.09,1V13.4a2.49,2.49,0,0,0,.13,1.09,0.52,0.52,0,0,0,.48.24A0.34,0.34,0,0,0,11,14.48a4.25,4.25,0,0,0,0-1.11V11.71Zm0-5.41a2.47,2.47,0,0,0-.06-0.87,0.41,0.41,0,0,0-.42-0.21,0.42,0.42,0,0,0-.42.23,2.26,2.26,0,0,0-.1.86v1a1.78,1.78,0,0,0,.13.81,0.46,0.46,0,0,0,.43.23,0.36,0.36,0,0,0,.38-0.22A2.8,2.8,0,0,0,11,7.19V6.29Z"/><rect class="cls-7" width="20" height="20" rx="2.29" ry="2.29"/><path class="cls-3" d="M13.32,5.73L7,5.85,8,3.75,0,9.58v8.61A2.17,2.17,0,0,0,2.29,20H6.88l5.53-3.62L11.59,8.14Z"/><path class="cls-4" d="M6.21,13H9.45a11.54,11.54,0,0,0,0,1.23,0.72,0.72,0,0,0,.2.44,0.67,0.67,0,0,0,.47.18,0.56,0.56,0,0,0,.41-0.14,0.76,0.76,0,0,0,.3-0.39,4.86,4.86,0,0,0,.14-1V11.3a1.34,1.34,0,0,1-.85.78,2.75,2.75,0,0,1-1.26.26,2.75,2.75,0,0,1-1.6-.48,2.35,2.35,0,0,1-1-1.15A6.47,6.47,0,0,1,6,8.88v-1a11.19,11.19,0,0,1,.22-2,2.74,2.74,0,0,1,.61-1.23A3,3,0,0,1,8.1,3.71,5.08,5.08,0,0,1,10,3.4a5.44,5.44,0,0,1,2.14.36,2.91,2.91,0,0,1,1.29,1,3.06,3.06,0,0,1,.54,1.42C14,6.72,14,7.68,14,9.11v1.8c0,1.54,0,2.58-.07,3.1a3,3,0,0,1-.56,1.48,3,3,0,0,1-1.34,1,5.06,5.06,0,0,1-1.95.35,5,5,0,0,1-2.24-.44A2.84,2.84,0,0,1,6.6,15.11,4.58,4.58,0,0,1,6.21,13ZM9,9.13a1.36,1.36,0,0,0,.44,1,0.94,0.94,0,0,0,.55.19,0.91,0.91,0,0,0,.67-0.24,1.68,1.68,0,0,0,.34-1V6.78a2.26,2.26,0,0,0-.27-1.12,0.62,0.62,0,0,0-.56-0.26,1.37,1.37,0,0,0-.69.2A1.49,1.49,0,0,0,9,6.7V9.13Z"/></g></g></svg>