<svg xmlns="http://www.w3.org/2000/svg" viewBox="0 0 20 20"><defs><style>.cls-1{isolation:isolate;}.cls-2{fill:#f15a29;}.cls-3{fill:#231f20;opacity:0.3;mix-blend-mode:multiply;}.cls-4{fill:#fff;}.cls-5{fill:#d7df23;}</style></defs><title>Untitled-1</title><g class="cls-1"><g id="Layer_1" data-name="Layer 1"><path class="cls-2" d="M20,17.72A2.32,2.32,0,0,1,17.64,20H2.71A2.66,2.66,0,0,1,0,17.72V2.28A2.66,2.66,0,0,1,2.71,0H17.64A2.32,2.32,0,0,1,20,2.28V17.72Z"/><path class="cls-3" d="M10.52,3.52L7.12,6,6.86,5.66,0,11v7.29C0,19.3,1.28,20,2.37,20H7.86l4.6-3.35L11.6,4.87Z"/><path class="cls-4" d="M13,3V17H9V9.63c0-1,.06-1.63,0-1.84a0.76,0.76,0,0,0-.36-0.55A3.37,3.37,0,0,0,7.23,7H7V5.63A10.29,10.29,0,0,0,10.52,3H13Z"/><path class="cls-5" d="M20,17.82A2.2,2.2,0,0,1,17.71,20H2.27A2.18,2.18,0,0,1,0,17.82V2.3A2.28,2.28,0,0,1,2.27,0H17.71A2.29,2.29,0,0,1,20,2.3V17.82Z"/><path class="cls-3" d="M11.73,4.47L7,5.93,8.08,3.72,0,9.72v8.62C0,19.38,1.14,20,2.24,20H7.75l5.7-3.62L9.57,15Z"/><path class="cls-4" d="M14,14v3H6.6V14.89C8.71,11.42,10,9.15,10.37,8.33a5.11,5.11,0,0,0,.6-2,1.52,1.52,0,0,0-.18-0.82,0.63,0.63,0,0,0-.55-0.28c-0.25,0-.18.09-0.3,0.28A4.23,4.23,0,0,0,10,6.66V8H7V7.43A16.64,16.64,0,0,1,6.91,5.7a2.81,2.81,0,0,1,.45-1.25,2.64,2.64,0,0,1,1.1-.93,4,4,0,0,1,1.67-.31,4,4,0,0,1,2.91,1,3.25,3.25,0,0,1,1,2.44,5.22,5.22,0,0,1-.56,2.23A20.19,20.19,0,0,1,10.18,14H14Z"/></g></g></svg>