<svg xmlns="http://www.w3.org/2000/svg" viewBox="0 0 20 20"><defs><style>.cls-1{isolation:isolate;}.cls-2{fill:#f15a29;}.cls-3{fill:#231f20;opacity:0.3;mix-blend-mode:multiply;}.cls-4{fill:#fff;}</style></defs><title>Untitled-1</title><g class="cls-1"><g id="Layer_1" data-name="Layer 1"><path class="cls-2" d="M20,17.72A2.32,2.32,0,0,1,17.64,20H2.71A2.66,2.66,0,0,1,0,17.72V2.28A2.66,2.66,0,0,1,2.71,0H17.64A2.32,2.32,0,0,1,20,2.28V17.72Z"/><path class="cls-3" d="M10.52,3.52L7.12,6,6.86,5.66,0,11v7.29C0,19.3,1.28,20,2.37,20H7.86l4.6-3.35L11.6,4.87Z"/><path class="cls-4" d="M13,3V17H9V9.63c0-1,.06-1.63,0-1.84a0.76,0.76,0,0,0-.36-0.55A3.37,3.37,0,0,0,7.23,7H7V5.63A10.29,10.29,0,0,0,10.52,3H13Z"/></g></g></svg>