<svg id="Layer_1" data-name="Layer 1" xmlns="http://www.w3.org/2000/svg" viewBox="0 0 20.06 17.62"><defs><style>.cls-1{fill:#603913;}</style></defs><title>Untitled-24</title><path class="cls-1" d="M19.87,5.65a1.83,1.83,0,0,0-.35-0.16,1.6,1.6,0,0,1-.71-0.63,4.9,4.9,0,0,0-.38-0.64A1.54,1.54,0,0,0,18,3.89a3.24,3.24,0,0,0-1.29-.41,1.86,1.86,0,0,0-1.28.38,3,3,0,0,0-.61.72l-1.41,1a7.24,7.24,0,0,0-.75.58,6.44,6.44,0,0,0-.63.7c-0.6.06-1.2,0.3-1.8,0.36A6.15,6.15,0,0,1,8,6.91a8.11,8.11,0,0,0-2.22-.4,3,3,0,0,0-1.11.22A2.84,2.84,0,0,1,4,5.51a24.61,24.61,0,0,0-.35-2.83,4.14,4.14,0,0,0-.19-0.42,3.93,3.93,0,0,0-.28-0.48,1.89,1.89,0,0,0-.91-0.71A4.58,4.58,0,0,1,2.92,3a20,20,0,0,1,0,2,3.79,3.79,0,0,0,0,.58,4.55,4.55,0,0,0,.38,1.12,2.17,2.17,0,0,0,.3.53l0.1,0.1L3.7,7.42a1.6,1.6,0,0,0-.24.41l0,0.05a5,5,0,0,0-.6,1.2,18.08,18.08,0,0,0-.53,2.11,3.14,3.14,0,0,1-.23.73,1,1,0,0,1-.5.5,4.32,4.32,0,0,0-.74.13,0.33,0.33,0,0,0-.14.13,0.57,0.57,0,0,0,0,.23q0,0.83-.12,1.65a3.05,3.05,0,0,1-.12.67c-0.06.18-.15,0.34-0.22,0.51A2.67,2.67,0,0,0,0,16.83a0.71,0.71,0,0,0,.06.33,0.22,0.22,0,0,0,.25.13A0.35,0.35,0,0,0,.44,17.2,3.07,3.07,0,0,0,1,16.52a5,5,0,0,0,.38-1.29A1.77,1.77,0,0,1,2,14.11a5.45,5.45,0,0,1,1.12-.3,2.19,2.19,0,0,0,1-.87A11.26,11.26,0,0,1,4.73,12l0,0.09a2.09,2.09,0,0,1,.08,1.62,2.12,2.12,0,0,0-.32.85,1.22,1.22,0,0,0,.27.63,13.74,13.74,0,0,0,1.76,2.24,0.91,0.91,0,0,0,.41.27,2,2,0,0,0,.43,0,4.5,4.5,0,0,0,.56,0,0.4,0.4,0,0,0,.36-0.41A0.51,0.51,0,0,0,8.15,17,0.4,0.4,0,0,0,8,16.89c-0.09,0-.19,0-0.28,0a0.47,0.47,0,0,1-.2-0.13,4.43,4.43,0,0,1-.89-1,1.79,1.79,0,0,1-.22-1.36,2.73,2.73,0,0,1,.33-0.66,5.93,5.93,0,0,0,.61-1.25A3.45,3.45,0,0,0,7.46,12a9.15,9.15,0,0,0,2.21,1.08l0.44,0.09,0,0.09a1.62,1.62,0,0,0,.06.83,8.83,8.83,0,0,1,.15,1.83,1.45,1.45,0,0,1-.06.54,5.39,5.39,0,0,0-.45.76,0.27,0.27,0,0,1,0,.11,0.21,0.21,0,0,1-.09.06,0.67,0.67,0,0,0-.32.52,2.16,2.16,0,0,0,0,.66,0.59,0.59,0,0,0,.59,0,0.87,0.87,0,0,0,.2-0.23,7.52,7.52,0,0,1,.7-0.92,3.17,3.17,0,0,0,.39-0.45,3.49,3.49,0,0,0,.34-1.26c0.05-.29.13-0.58,0.21-0.86a5.9,5.9,0,0,1,.37-1.07L12.5,14a17.79,17.79,0,0,1,1.82,1.73,1.37,1.37,0,0,1,.27.36c0.15,0.33.06,0.75,0.23,1.07a2.09,2.09,0,0,1,.26.45,2.51,2.51,0,0,1,0,.35,0.78,0.78,0,0,0,.29.52,1,1,0,0,0,.53.2,0.36,0.36,0,0,0,.25,0,0.41,0.41,0,0,0,.1-0.41,3.09,3.09,0,0,0-.17-0.41,12.25,12.25,0,0,1-.2-1.53,4.74,4.74,0,0,0-.78-1.38,7.76,7.76,0,0,1-1-2.93,6.35,6.35,0,0,0,.45-1.08l0.07-.24a3.81,3.81,0,0,0,.58-0.8c0.26-.48.42-1,0.68-1.49a3.64,3.64,0,0,1,1.17-1.29L17.18,7h0.09c0.46,0,.88.4,1.34,0.37a1.63,1.63,0,0,0,1-.7l0.28-.32A0.6,0.6,0,0,0,20.06,6,0.42,0.42,0,0,0,19.87,5.65Z" transform="translate(0 -1.08)"/></svg>