<svg id="Layer_1" data-name="Layer 1" xmlns="http://www.w3.org/2000/svg" viewBox="0 0 19.32 14.93"><defs><style>.cls-1,.cls-5{fill:#7c3d30;}.cls-2,.cls-6{fill:#fac6c7;}.cls-2,.cls-3,.cls-5{fill-rule:evenodd;}.cls-3{fill:#f5969d;}.cls-4{fill:#fbfdf6;}</style></defs><title>Untitled-27</title><path class="cls-1" d="M16.31,16.58q-0.39,0-.83,0a0.18,0.18,0,0,1-.16-0.2,0.18,0.18,0,0,1,.18-0.17c2.18,0.16,3.48-.35,3.8-0.92a0.48,0.48,0,0,0,0-.51C19,14.32,18.08,13.86,16.18,14a10.75,10.75,0,0,1-3.69-.67c-1.58-.47-3.22-1-4.5-0.51C7.72,12.94,7.51,13,7.34,13a1.39,1.39,0,0,0-1,.71l0,0C3.75,16.17,2.2,15.56,1.52,15a3.9,3.9,0,0,1-.83-4.24,1.73,1.73,0,0,1,2.25-1,0.19,0.19,0,0,1,.12.23,0.17,0.17,0,0,1-.21.13A1.41,1.41,0,0,0,1,10.91a3.48,3.48,0,0,0,.73,3.79c1,0.88,2.59.45,4.36-1.19a1.71,1.71,0,0,1,1.18-.82c0.16,0,.36-0.09.61-0.18,1.38-.48,3.07,0,4.7.5a10.49,10.49,0,0,0,3.58.66c1.72-.15,3,0.2,3.44.9a0.87,0.87,0,0,1,0,.89C19.27,16,18.24,16.58,16.31,16.58Z" transform="translate(-0.39 -2.47)"/><path class="cls-2" d="M8.38,10.16L3.93,11.9a0.53,0.53,0,0,1-.65-0.22C3.13,11.43,3.13,11.48,3,11.24,2.6,10.65,3.08,8.55,3.56,8c1-1.26,4.29-1.89,7.54-1.89S17.6,6.71,18.63,8c0.47,0.57,1,2.68.58,3.27-0.16.24-.16,0.19-0.31,0.44a0.53,0.53,0,0,1-.65.22l-4.44-1.74-2.72-.28Z" transform="translate(-0.39 -2.47)"/><path class="cls-3" d="M14.16,10.19a3.74,3.74,0,0,1,2.66-2.56c-1.46-.38-4,0-5.58,0,0.26,1,.38,2.09.64,3.14l1.55,0.32,0.73-.95h0Zm0.47,0.29,0.45-.86,4.14,1.62c-0.16.24-.16,0.19-0.31,0.44a0.53,0.53,0,0,1-.65.22Z" transform="translate(-0.39 -2.47)"/><path class="cls-3" d="M8,10.19A3.74,3.74,0,0,0,5.37,7.63c1.46-.38,4,0,5.58,0-0.26,1-.38,2.09-0.64,3.14l-1.55.32L8,10.19H8Zm-0.47.29L7.12,9.62,3,11.24c0.16,0.24.16,0.19,0.31,0.44a0.53,0.53,0,0,0,.65.22Z" transform="translate(-0.39 -2.47)"/><path class="cls-1" d="M18.45,12.12a0.69,0.69,0,0,1-.25,0l-4.42-1.73-2.68-.27-2.68.27L4,12.07a0.71,0.71,0,0,1-.85-0.29A2,2,0,0,0,3,11.58a2.32,2.32,0,0,1-.17-0.23c-0.44-.68.08-2.87,0.59-3.5C4.61,6.41,8.29,5.9,11.09,5.9s6.49,0.51,7.67,1.95c0.51,0.63,1,2.81.59,3.5a2.31,2.31,0,0,1-.17.23,2,2,0,0,0-.14.2A0.71,0.71,0,0,1,18.45,12.12ZM11.09,9.7h0L13.83,10h0l4.44,1.74a0.37,0.37,0,0,0,.45-0.15,2.34,2.34,0,0,1,.17-0.23,2,2,0,0,0,.14-0.2c0.32-.49-0.12-2.49-0.57-3C17.61,7,14.63,6.27,11.09,6.27S4.58,7,3.68,8.09c-0.45.55-.88,2.55-0.57,3a2,2,0,0,0,.14.2,2.36,2.36,0,0,1,.17.23,0.37,0.37,0,0,0,.45.15L8.32,10h0l2.72-.28h0Z" transform="translate(-0.39 -2.47)"/><path class="cls-1" d="M3,11.43a0.17,0.17,0,0,1-.16-0.12,0.19,0.19,0,0,1,.1-0.24L7.06,9.45a0.17,0.17,0,0,1,.22.11,0.19,0.19,0,0,1-.1.24L3,11.41H3Z" transform="translate(-0.39 -2.47)"/><path class="cls-1" d="M8,10.37a0.17,0.17,0,0,1-.17-0.14A3.2,3.2,0,0,0,5.42,8a0.18,0.18,0,0,1-.14-0.21,0.17,0.17,0,0,1,.2-0.15,3.5,3.5,0,0,1,2.73,2.55,0.19,0.19,0,0,1-.12.23H8Z" transform="translate(-0.39 -2.47)"/><path class="cls-2" d="M7.13,8.39a10.86,10.86,0,0,0-1.64,6v1.8a0.58,0.58,0,0,0,.55.6H16.15a0.58,0.58,0,0,0,.56-0.6v-1.8a10.86,10.86,0,0,0-1.64-6,1.58,1.58,0,0,0-1.33-.71H8.46A1.58,1.58,0,0,0,7.13,8.39Z" transform="translate(-0.39 -2.47)"/><path class="cls-3" d="M5.49,15.27v1.36a0.58,0.58,0,0,0,.55.6H16.15a0.58,0.58,0,0,0,.56-0.6V15.27a0.58,0.58,0,0,1-.56.6H6A0.58,0.58,0,0,1,5.49,15.27Z" transform="translate(-0.39 -2.47)"/><path class="cls-1" d="M16.15,17.4H6a0.76,0.76,0,0,1-.73-0.78V14.38A11,11,0,0,1,7,8.27a1.76,1.76,0,0,1,1.46-.78h5.28a1.76,1.76,0,0,1,1.46.78,11,11,0,0,1,1.68,6.11v2.24A0.76,0.76,0,0,1,16.15,17.4ZM8.46,7.86a1.41,1.41,0,0,0-1.19.64,10.62,10.62,0,0,0-1.61,5.89v2.24A0.4,0.4,0,0,0,6,17H16.15a0.4,0.4,0,0,0,.38-0.41V14.38A10.62,10.62,0,0,0,14.92,8.5a1.41,1.41,0,0,0-1.19-.64H8.46Z" transform="translate(-0.39 -2.47)"/><path class="cls-3" d="M11.09,9a3,3,0,0,1,2.17,1,3.41,3.41,0,0,1,.9,2.33,3.51,3.51,0,0,1-.16,1,3.39,3.39,0,0,1-.38.82,0.55,0.55,0,0,1,.09.3,0.54,0.54,0,0,1-.14.37h0l-0.11.12h0a0.46,0.46,0,0,1-.61,0,3,3,0,0,1-.76.41,2.87,2.87,0,0,1-1,.17,3,3,0,0,1-2.17-1,3.47,3.47,0,0,1,0-4.66A3,3,0,0,1,11.09,9Z" transform="translate(-0.39 -2.47)"/><ellipse class="cls-4" cx="10.7" cy="9.39" rx="2.89" ry="3.11"/><path class="cls-1" d="M11.09,15.15A3.19,3.19,0,0,1,8,11.86a3.19,3.19,0,0,1,3.07-3.29,3.19,3.19,0,0,1,3.06,3.29A3.19,3.19,0,0,1,11.09,15.15Zm0-6.22a2.83,2.83,0,0,0-2.72,2.93,2.83,2.83,0,0,0,2.72,2.93,2.83,2.83,0,0,0,2.72-2.93A2.83,2.83,0,0,0,11.09,8.93Z" transform="translate(-0.39 -2.47)"/><path class="cls-5" d="M12.79,10a0.47,0.47,0,0,1,0,.63,0.39,0.39,0,0,1-.58,0,0.47,0.47,0,0,1,0-.63,0.39,0.39,0,0,1,.58,0h0Zm-1.69-.75a0.44,0.44,0,1,1-.41.44,0.43,0.43,0,0,1,.41-0.44h0ZM9.4,10A0.39,0.39,0,0,1,10,10a0.47,0.47,0,0,1,0,.63,0.39,0.39,0,0,1-.58,0,0.47,0.47,0,0,1,0-.63h0ZM8.7,11.86a0.41,0.41,0,1,1,.41.44,0.43,0.43,0,0,1-.41-0.44h0Zm0.7,1.82a0.47,0.47,0,0,1,0-.63,0.39,0.39,0,0,1,.58,0,0.47,0.47,0,0,1,0,.63,0.39,0.39,0,0,1-.58,0h0Zm1.69,0.75A0.44,0.44,0,1,1,11.51,14a0.43,0.43,0,0,1-.41.44h0Zm2.4-2.57a0.41,0.41,0,1,1-.41-0.44A0.43,0.43,0,0,1,13.49,11.86Z" transform="translate(-0.39 -2.47)"/><ellipse class="cls-6" cx="10.7" cy="9.39" rx="1.18" ry="1.27"/><path class="cls-3" d="M12.26,11.64a1.37,1.37,0,0,1,0,.22,1.18,1.18,0,1,1-2.36,0,1.37,1.37,0,0,1,0-.22A1.17,1.17,0,0,0,12.26,11.64Z" transform="translate(-0.39 -2.47)"/><path class="cls-1" d="M11.09,13.31a1.46,1.46,0,1,1,1.35-1.45A1.41,1.41,0,0,1,11.09,13.31Zm0-2.54a1.09,1.09,0,1,0,1,1.08A1,1,0,0,0,11.09,10.77Z" transform="translate(-0.39 -2.47)"/><path class="cls-1" d="M12.52,4.9a0.17,0.17,0,0,1-.1,0,0.19,0.19,0,0,1,0-.26l0.76-1.18a0.17,0.17,0,0,1,.24,0,0.19,0.19,0,0,1,0,.26L12.66,4.82A0.17,0.17,0,0,1,12.52,4.9Zm-3.2,0a0.17,0.17,0,0,1-.14-0.08L8.41,3.64a0.19,0.19,0,0,1,0-.26,0.17,0.17,0,0,1,.24,0L9.46,4.61a0.19,0.19,0,0,1,0,.26A0.17,0.17,0,0,1,9.32,4.9Zm1.6-.25a0.18,0.18,0,0,1-.18-0.18V2.65a0.18,0.18,0,1,1,.35,0v1.8A0.18,0.18,0,0,1,10.92,4.64Z" transform="translate(-0.39 -2.47)"/></svg>