<svg id="Layer_1" data-name="Layer 1" xmlns="http://www.w3.org/2000/svg" viewBox="0 0 19.75 19.69"><defs><style>.cls-1{fill:#2da5c3;fill-rule:evenodd;}</style></defs><title>Untitled-2</title><path class="cls-1" d="M18.45,8.28c1.07-1,.74-2.38-0.25-2.06-0.58.19,0,.68-0.46,0.84C17,7.26,17,5.48,18.5,5.55s1.66,2.08.32,3.24a5,5,0,0,1,.85,2.75c0,1.53-1.31,4.63-2,6.79-0.11.35-.21,0.83-0.3,1.18a0.63,0.63,0,0,1-.45.49h-2a0.63,0.63,0,0,1-.45-0.52L14,17.18a6.18,6.18,0,0,1-3.27.33l-0.41,2a0.6,0.6,0,0,1-.45.49h-2a0.63,0.63,0,0,1-.44-0.48L6.74,17.36A11.06,11.06,0,0,1,.84,14.72a0.49,0.49,0,0,1-.17-0.3L0,11.23a0.47,0.47,0,0,1,.84-0.34c1.84-.56,2.4-1.41,3.67-2.61l0-1.53A0.46,0.46,0,0,1,5.27,6.4,9.55,9.55,0,0,1,6.19,7c3.66-2.23,9.54-2,12.26,1.31h0ZM5.69,10.74a0.91,0.91,0,1,1,0,1.82,0.91,0.91,0,1,1,0-1.82h0Zm-1-1.37a7.25,7.25,0,0,1-3.63,2.39l0.48,2.31a11.12,11.12,0,0,0,2.3,1.46,11.35,11.35,0,0,0,2.62.77A1.45,1.45,0,0,1,6.38,16a0.46,0.46,0,1,1,.87-0.31l0.93,3.07H9.47l0.42-1.91c0.12-.73,1-0.09,2.42-0.27s2.3-1,2.47-.21,0.34,1.55.52,2.39h1.28c0.52-1.94,2.17-5.77,2.17-7.25,0-3.14-3.5-5.11-6.81-5.11a10,10,0,0,0-5,1.15C7.22,7.86,7.85,8.5,7.3,8.83S6.73,8.38,5.43,7.55C5.38,9,6,9.7,5.29,9.86a0.49,0.49,0,0,1-.59-0.49h0Z" transform="translate(0 -0.31)"/><path class="cls-1" d="M10.36,8.24a0.45,0.45,0,1,1-.22-0.88,7.26,7.26,0,0,1,3.52,0,0.45,0.45,0,1,1-.23.87,6.36,6.36,0,0,0-3.06,0h0Zm1.52-7.93a1.83,1.83,0,0,1,1.85,1.82,1.85,1.85,0,0,1-3.7,0A1.83,1.83,0,0,1,11.88.31h0Z" transform="translate(0 -0.31)"/></svg>