<svg id="Layer_1" data-name="Layer 1" xmlns="http://www.w3.org/2000/svg" viewBox="0 0 18.81 16.9"><defs><style>.cls-1{fill:#be987d;}.cls-2{fill:#7c3d30;}.cls-3{fill:#ae806c;}.cls-4,.cls-6{fill:#fbfdf6;}.cls-5{fill:#82cec1;}.cls-6,.cls-7{fill-rule:evenodd;}.cls-7{fill:#eededa;}</style></defs><title>Untitled-20</title><rect class="cls-1" x="2.86" y="5.09" width="13.09" height="6.74" rx="0.43" ry="0.43"/><path class="cls-2" d="M16.44,13.32H4.21a0.65,0.65,0,0,1-.65-0.65V6.79a0.65,0.65,0,0,1,.65-0.65H16.44a0.65,0.65,0,0,1,.65.65v5.88A0.65,0.65,0,0,1,16.44,13.32ZM4.21,6.57A0.22,0.22,0,0,0,4,6.79v5.88a0.22,0.22,0,0,0,.22.22H16.44a0.22,0.22,0,0,0,.22-0.22V6.79a0.22,0.22,0,0,0-.22-0.22H4.21Z" transform="translate(-0.92 -1.27)"/><rect class="cls-3" x="3.87" y="5.09" width="11.07" height="6.74"/><path class="cls-2" d="M16.44,13.32H4.21a0.65,0.65,0,0,1-.65-0.65V6.79a0.65,0.65,0,0,1,.65-0.65H16.44a0.65,0.65,0,0,1,.65.65v5.88A0.65,0.65,0,0,1,16.44,13.32ZM4.21,6.57A0.22,0.22,0,0,0,4,6.79v5.88a0.22,0.22,0,0,0,.22.22H16.44a0.22,0.22,0,0,0,.22-0.22V6.79a0.22,0.22,0,0,0-.22-0.22H4.21Z" transform="translate(-0.92 -1.27)"/><rect class="cls-4" x="0.22" y="9.66" width="18.38" height="7.02" rx="0.86" ry="0.86"/><path class="cls-2" d="M18.65,18.17H2A1.08,1.08,0,0,1,.92,17.09v-5.3A1.08,1.08,0,0,1,2,10.72H18.65a1.08,1.08,0,0,1,1.08,1.08v5.3A1.08,1.08,0,0,1,18.65,18.17ZM2,11.15a0.65,0.65,0,0,0-.65.65v5.3a0.65,0.65,0,0,0,.65.65H18.65a0.65,0.65,0,0,0,.65-0.65v-5.3a0.65,0.65,0,0,0-.65-0.65H2Z" transform="translate(-0.92 -1.27)"/><circle class="cls-5" cx="16.83" cy="11.49" r="0.7"/><path class="cls-2" d="M17.75,13.67a0.92,0.92,0,1,1,.92-0.92A0.92,0.92,0,0,1,17.75,13.67Zm0-1.4a0.49,0.49,0,1,0,.49.49A0.49,0.49,0,0,0,17.75,12.27Z" transform="translate(-0.92 -1.27)"/><rect class="cls-1" x="3.28" y="13.59" width="12.98" height="3.1"/><path class="cls-6" d="M5.62,10.93V2a0.55,0.55,0,0,1,.55-0.55h6l2.75,2.75v6.7H5.62Z" transform="translate(-0.92 -1.27)"/><path class="cls-7" d="M12.23,1.39L15,4.14a0.14,0.14,0,0,1,0,.1V4.77a0.14,0.14,0,0,1-.14.14h-2.2A0.69,0.69,0,0,1,12,4.22V1.48a0.14,0.14,0,0,1,.24-0.1h0Z" transform="translate(-0.92 -1.27)"/><path class="cls-2" d="M14.89,11.15H5.62a0.22,0.22,0,0,1-.22-0.22V2a0.77,0.77,0,0,1,.77-0.77h6a0.22,0.22,0,0,1,.15.06L15,4.08a0.22,0.22,0,0,1,.06.15v6.7A0.22,0.22,0,0,1,14.89,11.15Zm-9-.43h8.83V4.33L12,1.7H6.17A0.34,0.34,0,0,0,5.84,2v8.68Z" transform="translate(-0.92 -1.27)"/><path class="cls-6" d="M12.13,1.48v2.2a0.55,0.55,0,0,0,.55.55h2.2Z" transform="translate(-0.92 -1.27)"/><path class="cls-2" d="M14.89,4.45h-2.2a0.77,0.77,0,0,1-.77-0.77V1.48a0.22,0.22,0,0,1,.37-0.15L15,4.08A0.22,0.22,0,0,1,14.89,4.45ZM12.35,2V3.69a0.34,0.34,0,0,0,.34.34h1.68Z" transform="translate(-0.92 -1.27)"/><rect class="cls-3" x="3.28" y="13.59" width="12.98" height="2.05"/><path class="cls-2" d="M17.19,18.17H4.2A0.22,0.22,0,0,1,4,18v-3.1a0.22,0.22,0,0,1,.22-0.22h13a0.22,0.22,0,0,1,.22.22V18A0.22,0.22,0,0,1,17.19,18.17ZM4.42,17.74H17V15.07H4.42v2.66Z" transform="translate(-0.92 -1.27)"/></svg>