<svg id="Layer_1" data-name="Layer 1" xmlns="http://www.w3.org/2000/svg" viewBox="0 0 16.75 19.65"><defs><style>.cls-1{fill:#536785;fill-rule:evenodd;}</style></defs><title>Untitled-4</title><path class="cls-1" d="M17.08,16.32L0.73,13.88l0.38-1.83A1.6,1.6,0,0,1,3,11l5,0.74a0.1,0.1,0,0,0,.11,0,0.07,0.07,0,0,0,0-.1,1,1,0,0,1-.4-1h0a1.17,1.17,0,0,1,1-.85,11.06,11.06,0,0,0-.74-5.06h0a2.68,2.68,0,0,1-.21-1.72A3.71,3.71,0,0,1,12,.4C14,0.7,15.35,2.33,15,4a3,3,0,0,1-.89,1.55h0a12.33,12.33,0,0,0-2.74,4.54,1,1,0,0,1,.59,1.09h0a1.12,1.12,0,0,1-.77.8,0.08,0.08,0,0,0-.06.09,0.09,0.09,0,0,0,.08.07l5,0.74a1.39,1.39,0,0,1,1.3,1.57l-0.38,1.83h0Zm-0.94,1.58L1,15.64,1.26,14.3l15.16,2.26-0.28,1.33h0Z" transform="translate(-0.73 -0.35)"/><path class="cls-1" d="M9.11,20c3.86,0,7-.52,7-1.16s-3.13-1.16-7-1.16-7,.52-7,1.16S5.24,20,9.11,20h0Z" transform="translate(-0.73 -0.35)"/></svg>