<svg id="Layer_1" data-name="Layer 1" xmlns="http://www.w3.org/2000/svg" viewBox="0 0 18.65 15.08"><defs><style>.cls-1,.cls-18{fill:#e4d67e;}.cls-1,.cls-10,.cls-12,.cls-13,.cls-14,.cls-15,.cls-16,.cls-3,.cls-5,.cls-6,.cls-7,.cls-8,.cls-9{fill-rule:evenodd;}.cls-14,.cls-2{fill:#4b2530;}.cls-3,.cls-4{fill:#978b9c;}.cls-5{fill:#756e83;}.cls-6{fill:#bab2bd;}.cls-7{fill:#b8b9c2;}.cls-8{fill:#e2d892;}.cls-9{fill:#e0e2e2;}.cls-10{fill:#989aaa;}.cls-11,.cls-15{fill:#e5e6e7;}.cls-12,.cls-17{fill:#638fa7;}.cls-13{fill:#ee5a46;}.cls-16{fill:#d9ca56;}</style></defs><title>Untitled-28</title><path class="cls-1" d="M3.57,4.62H5.26a0.22,0.22,0,0,1,.22.22V5.07H3.35V4.84A0.22,0.22,0,0,1,3.57,4.62Z" transform="translate(-0.68 -2.68)"/><path class="cls-2" d="M5.48,5.19H3.35a0.12,0.12,0,0,1-.12-0.12V4.84a0.33,0.33,0,0,1,.33-0.33H5.26a0.33,0.33,0,0,1,.33.33V5.07A0.12,0.12,0,0,1,5.48,5.19ZM3.46,5h1.9V4.84a0.1,0.1,0,0,0-.1-0.1H3.57a0.1,0.1,0,0,0-.1.1V5Z" transform="translate(-0.68 -2.68)"/><path class="cls-1" d="M14.31,4.62H16a0.22,0.22,0,0,1,.22.22V5.07H14.1V4.84A0.22,0.22,0,0,1,14.31,4.62Z" transform="translate(-0.68 -2.68)"/><path class="cls-2" d="M16.22,5.19H14.1A0.12,0.12,0,0,1,14,5.07V4.84a0.33,0.33,0,0,1,.33-0.33H16a0.33,0.33,0,0,1,.33.33V5.07A0.12,0.12,0,0,1,16.22,5.19Zm-2-.23h1.9V4.84a0.1,0.1,0,0,0-.1-0.1H14.31a0.1,0.1,0,0,0-.1.1V5Z" transform="translate(-0.68 -2.68)"/><path class="cls-1" d="M11.47,4.41h1.16a0.22,0.22,0,0,1,.22.22V5.07h-1.6V4.63a0.22,0.22,0,0,1,.22-0.22h0Zm-4.08,0H8.55a0.22,0.22,0,0,1,.22.22V5.07H7.17V4.63A0.22,0.22,0,0,1,7.39,4.41Z" transform="translate(-0.68 -2.68)"/><path class="cls-2" d="M12.85,5.19h-1.6a0.12,0.12,0,0,1-.12-0.12V4.63a0.33,0.33,0,0,1,.33-0.33h1.16a0.33,0.33,0,0,1,.33.33V5.07A0.12,0.12,0,0,1,12.85,5.19ZM11.37,5h1.37V4.63a0.1,0.1,0,0,0-.1-0.1H11.47a0.1,0.1,0,0,0-.1.1V5Zm-2.6.23H7.17a0.12,0.12,0,0,1-.12-0.12V4.63a0.33,0.33,0,0,1,.33-0.33H8.55a0.33,0.33,0,0,1,.33.33V5.07A0.12,0.12,0,0,1,8.77,5.19ZM7.28,5H8.65V4.63a0.1,0.1,0,0,0-.1-0.1H7.39a0.1,0.1,0,0,0-.1.1V5Z" transform="translate(-0.68 -2.68)"/><path class="cls-3" d="M7.63,4.41l0.1-.9A0.7,0.7,0,0,1,8.49,2.8h3a0.7,0.7,0,0,1,.76.71l0.1,0.9H11.71V3.91c0-.88-1.05-0.44-1.7-0.44s-1.7-.45-1.7.44v0.5H7.63Z" transform="translate(-0.68 -2.68)"/><path class="cls-2" d="M12.39,4.52H11.71a0.12,0.12,0,0,1-.12-0.12V3.91a0.39,0.39,0,0,0-.49-0.43,4,4,0,0,0-.55.06,4,4,0,0,1-.55.06,4,4,0,0,1-.55-0.06,4,4,0,0,0-.55-0.06,0.39,0.39,0,0,0-.49.43v0.5a0.12,0.12,0,0,1-.12.12H7.63A0.12,0.12,0,0,1,7.52,4.4l0.1-.9a0.82,0.82,0,0,1,.87-0.81h3a0.82,0.82,0,0,1,.87.81l0.1,0.9A0.12,0.12,0,0,1,12.39,4.52Zm-0.56-.23h0.43l-0.08-.78a0.59,0.59,0,0,0-.64-0.6h-3a0.59,0.59,0,0,0-.64.6l-0.08.78H8.19V3.91a0.61,0.61,0,0,1,.72-0.66,4.16,4.16,0,0,1,.58.06,3.79,3.79,0,0,0,.52.05,3.8,3.8,0,0,0,.52-0.05,4.16,4.16,0,0,1,.58-0.06,0.61,0.61,0,0,1,.72.66V4.29Z" transform="translate(-0.68 -2.68)"/><rect class="cls-4" x="0.35" y="2.39" width="17.96" height="12.35" rx="0.98" ry="0.98"/><path class="cls-5" d="M2,5.07H2.64a0.34,0.34,0,0,1,.07.2V5.74a0.11,0.11,0,0,0,0,.08L2.83,5.91a0.78,0.78,0,0,1,.22.8,0.88,0.88,0,0,1-.22.36,0.79,0.79,0,0,1-1.16,0L1.58,7A0.11,0.11,0,0,0,1.5,7H1V6a1,1,0,0,1,1-1H2Zm15.37,0H18a1,1,0,0,1,1,1V7H18.52a0.11,0.11,0,0,0-.08,0l-0.09.09a0.78,0.78,0,0,1-.8.22,0.88,0.88,0,0,1-.36-0.22,0.79,0.79,0,0,1,0-1.16l0.09-.09a0.11,0.11,0,0,0,0-.08V5.27a0.34,0.34,0,0,1,.07-0.2h0ZM19,15.95v0.5a1,1,0,0,1-1,1h-0.7V17.16a0.11,0.11,0,0,0,0-.08L17.19,17a0.78,0.78,0,0,1-.22-0.8,0.88,0.88,0,0,1,.22-0.36,0.79,0.79,0,0,1,1.16,0l0.09,0.09a0.11,0.11,0,0,0,.08,0H19ZM2.71,17.42H2a1,1,0,0,1-1-1v-0.5H1.5a0.11,0.11,0,0,0,.08,0l0.09-.09a0.78,0.78,0,0,1,.8-0.22,0.88,0.88,0,0,1,.36.22,0.79,0.79,0,0,1,0,1.16l-0.09.09a0.11,0.11,0,0,0,0,.08v0.26Z" transform="translate(-0.68 -2.68)"/><path class="cls-6" d="M2,5.07H18a1,1,0,0,1,1,1v0.6a1,1,0,0,0-1-1H2a1,1,0,0,0-1,1V6A1,1,0,0,1,2,5.07Z" transform="translate(-0.68 -2.68)"/><path class="cls-5" d="M2,17.42H18a1,1,0,0,0,1-1v-0.6a1,1,0,0,1-1,1H2a1,1,0,0,1-1-1v0.6A1,1,0,0,0,2,17.42Z" transform="translate(-0.68 -2.68)"/><path class="cls-2" d="M18,17.59H2A1.15,1.15,0,0,1,.86,16.45V6A1.15,1.15,0,0,1,2,4.9H18A1.15,1.15,0,0,1,19.16,6v10.4A1.15,1.15,0,0,1,18,17.59ZM2,5.24a0.8,0.8,0,0,0-.8.8v10.4a0.8,0.8,0,0,0,.8.8H18a0.8,0.8,0,0,0,.8-0.8V6a0.8,0.8,0,0,0-.8-0.8H2Z" transform="translate(-0.68 -2.68)"/><path class="cls-7" d="M18,17.65H17.66a0.23,0.23,0,0,1-.23-0.23V17a0.22,0.22,0,0,0-.07-0.16l-0.09-.09a0.71,0.71,0,0,1,1-1l0.09,0.09a0.22,0.22,0,0,0,.16.07H19a0.23,0.23,0,0,1,.23.23v0.36A1.21,1.21,0,0,1,18,17.65h0ZM18,4.84H17.66a0.23,0.23,0,0,0-.23.23V5.54a0.22,0.22,0,0,1-.07.16l-0.09.09a0.71,0.71,0,0,0,1,1l0.09-.09a0.22,0.22,0,0,1,.16-0.07H19a0.23,0.23,0,0,0,.23-0.23V6A1.21,1.21,0,0,0,18,4.84h0Zm-16,0H2.36a0.23,0.23,0,0,1,.23.23V5.54a0.22,0.22,0,0,0,.07.16L2.75,5.79a0.71,0.71,0,0,1-1,1L1.66,6.7A0.22,0.22,0,0,0,1.5,6.63H1A0.23,0.23,0,0,1,.8,6.4V6A1.21,1.21,0,0,1,2,4.84H2ZM2,17.65H2.36a0.23,0.23,0,0,0,.23-0.23V17a0.22,0.22,0,0,1,.07-0.16l0.09-.09a0.71,0.71,0,0,0-1-1l-0.09.09a0.22,0.22,0,0,1-.16.07H1a0.23,0.23,0,0,0-.23.23v0.36A1.21,1.21,0,0,0,2,17.65Z" transform="translate(-0.68 -2.68)"/><path class="cls-8" d="M2.25,6a0.31,0.31,0,1,1-.31.31A0.31,0.31,0,0,1,2.25,6h0ZM17.77,6a0.31,0.31,0,1,0,.31.31A0.31,0.31,0,0,0,17.77,6h0ZM2.25,16.51a0.31,0.31,0,1,0-.31-0.31,0.31,0.31,0,0,0,.31.31h0Zm15.52,0a0.31,0.31,0,1,1,.31-0.31A0.31,0.31,0,0,1,17.77,16.51Z" transform="translate(-0.68 -2.68)"/><path class="cls-2" d="M17.77,16.63a0.43,0.43,0,1,1,.43-0.43A0.43,0.43,0,0,1,17.77,16.63Zm0-.62a0.2,0.2,0,1,0,.2.2A0.2,0.2,0,0,0,17.77,16Zm-15.52.62a0.43,0.43,0,1,1,.43-0.43A0.43,0.43,0,0,1,2.25,16.63Zm0-.62a0.2,0.2,0,1,0,.2.2A0.2,0.2,0,0,0,2.25,16ZM17.77,6.72a0.43,0.43,0,1,1,.43-0.43A0.43,0.43,0,0,1,17.77,6.72Zm0-.62a0.2,0.2,0,1,0,.2.2A0.2,0.2,0,0,0,17.77,6.09ZM2.25,6.72a0.43,0.43,0,1,1,.43-0.43A0.43,0.43,0,0,1,2.25,6.72Zm0-.62a0.2,0.2,0,1,0,.2.2A0.2,0.2,0,0,0,2.25,6.09Z" transform="translate(-0.68 -2.68)"/><path class="cls-9" d="M17.06,16.34a0.72,0.72,0,0,1,1.21-.64l0.09,0.09a0.22,0.22,0,0,0,.16.07H19a0.23,0.23,0,0,1,.23.23v0.26A0.23,0.23,0,0,0,19,16.12H18.52A0.22,0.22,0,0,1,18.36,16L18.27,16a0.71,0.71,0,0,0-1.21.38h0Zm1-11.5H17.66a0.23,0.23,0,0,0-.23.23V5.33a0.23,0.23,0,0,1,.23-0.23H18A1.21,1.21,0,0,1,19.22,6.3V6A1.21,1.21,0,0,0,18,4.84h0Zm-0.59.7V5.8a0.22,0.22,0,0,1-.07.16L17.27,6a0.72,0.72,0,0,0-.2.36,0.67,0.67,0,0,1,.2-0.62l0.09-.09a0.22,0.22,0,0,0,.07-0.16h0ZM2,4.84H2.36a0.23,0.23,0,0,1,.23.23V5.33A0.23,0.23,0,0,0,2.36,5.1H2A1.21,1.21,0,0,0,.8,6.3V6A1.21,1.21,0,0,1,2,4.84H2Zm0.59,0.7V5.8A0.22,0.22,0,0,0,2.66,6L2.75,6a0.72,0.72,0,0,1,.2.36,0.67,0.67,0,0,0-.2-0.62L2.66,5.7a0.22,0.22,0,0,1-.07-0.16h0ZM3,16.34a0.72,0.72,0,0,0-1.21-.64l-0.09.09a0.22,0.22,0,0,1-.16.07H1a0.23,0.23,0,0,0-.23.23v0.26A0.23,0.23,0,0,1,1,16.12H1.5A0.22,0.22,0,0,0,1.66,16L1.75,16A0.71,0.71,0,0,1,3,16.34Z" transform="translate(-0.68 -2.68)"/><path class="cls-10" d="M17.06,6.15a0.72,0.72,0,0,0,1.21.64l0.09-.09a0.22,0.22,0,0,1,.16-0.07H19a0.23,0.23,0,0,0,.23-0.23V6.14a0.23,0.23,0,0,1-.23.23H18.52a0.22,0.22,0,0,0-.16.07l-0.09.09a0.71,0.71,0,0,1-1.21-.38h0Zm1,11.5H17.66a0.23,0.23,0,0,1-.23-0.23V17.16a0.23,0.23,0,0,0,.23.23H18a1.21,1.21,0,0,0,1.21-1.21v0.26A1.21,1.21,0,0,1,18,17.65h0ZM17.43,17V16.7a0.22,0.22,0,0,0-.07-0.16l-0.09-.09a0.72,0.72,0,0,1-.2-0.36,0.67,0.67,0,0,0,.2.62l0.09,0.09a0.22,0.22,0,0,1,.07.16h0ZM2,17.65H2.36a0.23,0.23,0,0,0,.23-0.23V17.16a0.23,0.23,0,0,1-.23.23H2A1.21,1.21,0,0,1,.8,16.19v0.26A1.21,1.21,0,0,0,2,17.65H2ZM2.59,17V16.7a0.22,0.22,0,0,1,.07-0.16l0.09-.09A0.72,0.72,0,0,0,3,16.08a0.67,0.67,0,0,1-.2.62l-0.09.09a0.22,0.22,0,0,0-.07.16h0ZM3,6.15a0.72,0.72,0,0,1-1.21.64L1.66,6.7A0.22,0.22,0,0,0,1.5,6.63H1A0.23,0.23,0,0,1,.8,6.4V6.14A0.23,0.23,0,0,0,1,6.38H1.5a0.22,0.22,0,0,1,.16.07L1.75,6.53A0.71,0.71,0,0,0,3,6.15Z" transform="translate(-0.68 -2.68)"/><path class="cls-2" d="M18,17.77H17.66a0.35,0.35,0,0,1-.35-0.35V17a0.11,0.11,0,0,0,0-.08l-0.09-.09A0.77,0.77,0,0,1,17,15.91a0.88,0.88,0,0,1,.78-0.54,0.8,0.8,0,0,1,.57.25l0.09,0.09a0.11,0.11,0,0,0,.08,0H19a0.35,0.35,0,0,1,.35.35v0.36A1.32,1.32,0,0,1,18,17.77ZM17.78,15.6a0.64,0.64,0,0,0-.57.4,0.54,0.54,0,0,0,.14.62l0.09,0.09a0.34,0.34,0,0,1,.1.24v0.47a0.12,0.12,0,0,0,.12.12H18a1.09,1.09,0,0,0,1.09-1.09V16.09A0.12,0.12,0,0,0,19,16H18.52a0.34,0.34,0,0,1-.24-0.1l-0.09-.09A0.58,0.58,0,0,0,17.78,15.6ZM2.36,17.77H2A1.32,1.32,0,0,1,.68,16.45V16.09A0.35,0.35,0,0,1,1,15.74H1.5a0.11,0.11,0,0,0,.08,0l0.09-.09a0.8,0.8,0,0,1,.57-0.25,0.88,0.88,0,0,1,.78.54,0.77,0.77,0,0,1-.19.87l-0.09.09a0.11,0.11,0,0,0,0,.08v0.47A0.35,0.35,0,0,1,2.36,17.77ZM1,16a0.12,0.12,0,0,0-.12.12v0.36A1.09,1.09,0,0,0,2,17.54H2.36a0.12,0.12,0,0,0,.12-0.12V17a0.34,0.34,0,0,1,.1-0.24l0.09-.09A0.54,0.54,0,0,0,2.81,16a0.64,0.64,0,0,0-.57-0.4,0.58,0.58,0,0,0-.41.18l-0.09.09a0.34,0.34,0,0,1-.24.1H1ZM17.78,7.13A0.88,0.88,0,0,1,17,6.58a0.77,0.77,0,0,1,.19-0.87l0.09-.09a0.11,0.11,0,0,0,0-.08V5.07a0.35,0.35,0,0,1,.35-0.35H18A1.32,1.32,0,0,1,19.34,6V6.4a0.35,0.35,0,0,1-.35.35H18.52a0.11,0.11,0,0,0-.08,0l-0.09.09A0.8,0.8,0,0,1,17.78,7.13ZM17.66,5a0.12,0.12,0,0,0-.12.12V5.54a0.34,0.34,0,0,1-.1.24l-0.09.09a0.54,0.54,0,0,0-.14.62,0.64,0.64,0,0,0,.57.4,0.58,0.58,0,0,0,.41-0.18l0.09-.09a0.34,0.34,0,0,1,.24-0.1H19A0.12,0.12,0,0,0,19.1,6.4V6A1.09,1.09,0,0,0,18,5H17.66ZM2.24,7.13a0.8,0.8,0,0,1-.57-0.25L1.58,6.78a0.11,0.11,0,0,0-.08,0H1A0.35,0.35,0,0,1,.68,6.4V6A1.32,1.32,0,0,1,2,4.72H2.36a0.35,0.35,0,0,1,.35.35V5.54a0.11,0.11,0,0,0,0,.08L2.83,5.71A0.77,0.77,0,0,1,3,6.58,0.88,0.88,0,0,1,2.24,7.13ZM2,5A1.09,1.09,0,0,0,.92,6V6.4A0.12,0.12,0,0,0,1,6.52H1.5a0.34,0.34,0,0,1,.24.1L1.83,6.71a0.58,0.58,0,0,0,.41.18,0.64,0.64,0,0,0,.57-0.4,0.54,0.54,0,0,0-.14-0.62L2.58,5.78a0.34,0.34,0,0,1-.1-0.24V5.07A0.12,0.12,0,0,0,2.36,5H2Z" transform="translate(-0.68 -2.68)"/><rect class="cls-11" x="1.97" y="7.35" width="1.84" height="3.03" rx="0.24" ry="0.24" transform="translate(-4.73 -0.05) rotate(-30)"/><path class="cls-12" d="M1.57,7.94l1.17-.68A0.18,0.18,0,0,1,3,7.34L3.39,8,1.9,8.87,1.51,8.19A0.18,0.18,0,0,1,1.57,7.94Z" transform="translate(-0.68 -2.68)"/><path class="cls-13" d="M2.39,9.71l1.49-.86L4.27,9.54a0.18,0.18,0,0,1-.07.25L3,10.46a0.18,0.18,0,0,1-.25-0.07Z" transform="translate(-0.68 -2.68)"/><path class="cls-14" d="M3,10.12a1.94,1.94,0,0,0,0-.44H3L2.92,9.58a0,0,0,0,1,0,0L3,9.52H3a1.77,1.77,0,0,0-.07-0.29h0L2.82,9.1a0,0,0,0,1,0,0l0,0a0,0,0,0,0,0,0c0-.11-0.1-0.21-0.15-0.31h0l0,0a0,0,0,0,1,0,0h0a0,0,0,0,0,0,0l-0.21-.4h0l0-.07,0-.07a0,0,0,0,1,0,0h0a0,0,0,0,0,0,0l0-.08a0,0,0,0,1,0,0h0a0,0,0,0,0,0,0L2.28,7.84a0,0,0,0,1,0,0h0L2.37,7.94h0L2.46,8h0l0,0.07,0,0.08h0L2.82,8.57h0l0,0a0,0,0,0,1,0,0h0l0.2,0.29h0l0,0h0L3.19,9a0,0,0,0,1,0,0h0a1.77,1.77,0,0,0,.21.2h0l0.06,0h0L3.55,9.37h0a2,2,0,0,0,.38.18h0l0,0H4l0,0a0,0,0,0,1,0,0l-0.2.12h0l0,0h0a0.36,0.36,0,0,0-.6.36h0l0,0a0,0,0,0,1,0,0L3,10.19H3l0,0a0,0,0,0,1,0,0l0,0H3Z" transform="translate(-0.68 -2.68)"/><path class="cls-5" d="M13.07,10.63h0.71a0.36,0.36,0,0,1,.36.36v1.39a0.36,0.36,0,0,1-.36.36H13.07a0.36,0.36,0,0,1-.36-0.36V11a0.36,0.36,0,0,1,.36-0.36h0Zm0.55,1.3h-0.4l0,0a0.07,0.07,0,0,0,0,0v0.23a0.07,0.07,0,0,0,0,0l0,0h0.4l0,0a0.07,0.07,0,0,0,0,0V12a0.07,0.07,0,0,0,0,0Z" transform="translate(-0.68 -2.68)"/><path class="cls-15" d="M3.89,13.58a1,1,0,0,1,.22-0.08H4.18a0.22,0.22,0,0,1,.25-0.07h0a0.44,0.44,0,0,1,.29-0.13A0.37,0.37,0,0,1,5,13.26H5a0.27,0.27,0,0,1,.39-0.32,0.29,0.29,0,0,1,.06-0.08,0.26,0.26,0,0,1,.25-0.07,0.21,0.21,0,0,1,.14.16,0.75,0.75,0,0,1,.05.24,0.15,0.15,0,0,1,.1.11,0.32,0.32,0,0,1,0,.39,0.5,0.5,0,0,1-.47.24h0a0.41,0.41,0,0,1-.38.11,0.42,0.42,0,0,1-.32.13,0.29,0.29,0,0,1-.39,0l-0.14.14a0.4,0.4,0,0,1-.32.11,0.36,0.36,0,0,1-.29.09,0.42,0.42,0,0,1-.29.1,0.31,0.31,0,0,1-.34,0,0.15,0.15,0,0,1,0,.07,0.86,0.86,0,0,1-.17.06l-0.12,0a0.52,0.52,0,0,1-.51.24A0.27,0.27,0,0,1,2,14.77a0.18,0.18,0,0,1,0-.14,0.15,0.15,0,0,1,.13-0.07,0.36,0.36,0,0,0,0-.1,0.39,0.39,0,0,1,0-.23,0.14,0.14,0,0,1,.1-0.12l0-.19a0.14,0.14,0,0,1,.1-0.12l0.22-.07h0l0,0,0.22-.07a0.15,0.15,0,0,1,.19.11v0a0.33,0.33,0,0,1,.16,0,0.39,0.39,0,0,1,.27-0.06,0.21,0.21,0,0,1,.08,0l0.18-.06H3.89Z" transform="translate(-0.68 -2.68)"/><path class="cls-14" d="M5.1,13.21C5,13,5.34,12.84,5.4,13.06c0,0.05,0,.1,0,0.15h0a0.05,0.05,0,0,1,0,0l0-.08c-0.06-.22.25-0.36,0.3-0.15a0.43,0.43,0,0,1,0,.27h0v0h0a0.07,0.07,0,0,1,.1,0c0.05,0.18.09,0.16,0,.32a0.42,0.42,0,0,1-.38.21l0,0a0.32,0.32,0,0,1-.38.12,0.36,0.36,0,0,1-.33.14,0.21,0.21,0,0,1-.33,0H4.38a0.46,0.46,0,0,1-.43.24,0.28,0.28,0,0,1-.29.08,0.35,0.35,0,0,1-.3.11c-0.12.1-.3,0.14-0.36-0.06a0.58,0.58,0,0,1-.05.2,1.31,1.31,0,0,1-.28.08h0a0.43,0.43,0,0,1-.44.25,0.23,0.23,0,0,1-.11-0.2,0.08,0.08,0,0,1,.08-0.1c0.09,0,.1-0.2.1-0.2a0.43,0.43,0,0,1,0-.19c0-.07,0-0.06.1-0.08l0-.24a0.06,0.06,0,0,1,0-.05l0.22-.07h0l0,0L3,13.71a0.07,0.07,0,0,1,.09.05l0,0.16a0.29,0.29,0,0,1,.23-0.08c0.05,0,.24-0.11.28,0v0c0-.12,0-0.09.24-0.18H3.91a0.57,0.57,0,0,1,.23-0.09,0.06,0.06,0,0,1,.07,0c0.06-.11.2-0.14,0.23,0a0.39,0.39,0,0,1,.31-0.17c0.05,0,.24-0.11.28,0l0,0.1c0-.12,0-0.17.06-0.19Z" transform="translate(-0.68 -2.68)"/><path class="cls-1" d="M3,13.77l-0.22.07h0l-0.05.27h0l-0.05,0h0l0-.25h0l-0.22.07h0l0,0.27h0l-0.07,0h0v0h0l0.06,0h0l-0.06.31h0a0.14,0.14,0,0,1-.14.11h0v0h0a0.36,0.36,0,0,0,.39-0.22l0.06-.32h0l0.05,0h0l-0.06.3h0l0.22-.07h0L3,13.82a0.24,0.24,0,0,1,0,0H3Zm2.65-.87c-0.13,0-.13.26,0,0.22s0.13-.26,0-0.22h0Zm0,0.7c-0.07,0-.12,0-0.12-0.07h0a0.44,0.44,0,0,1-.15.15c-0.09,0-.21.08-0.21,0h0c-0.1.15-.29,0.23-0.33,0.16h0c-0.06.09-.24,0.16-0.28,0h0a0.14,0.14,0,0,1-.11,0h0c-0.11.18-.36,0.33-0.39,0.22h0c-0.06.06-.25,0.19-0.27,0.08h0c-0.08.09-.26,0.19-0.3,0.12h0c-0.06.09-.23,0.16-0.28,0a0.31,0.31,0,0,1,.32-0.38h0a0.24,0.24,0,0,1,.2-0.07h0l0,0.23h0c0,0.12.12,0,.14,0a1.15,1.15,0,0,0,0-.26h0l0.2-.06h0L3.83,14c0,0.05.07,0,.08,0h0l0-.29H4l0.18-.06h0a1.93,1.93,0,0,0-.05.27c0,0.12.13,0,.15-0.11h0a0.17,0.17,0,0,1,.05-0.23c0.13-.07.06,0.16,0,0.22h0a0.11,0.11,0,0,0,.09,0h0a0.32,0.32,0,0,1,.33-0.33h0A0.24,0.24,0,0,1,5,13.39H5l0,0.23h0s0,0.05,0,.06a0.25,0.25,0,0,0,.16-0.15,0.58,0.58,0,0,0,0-.2h0l0.2-.06h0a1.87,1.87,0,0,0,0,.24c0,0.12.1,0,.18-0.1a0.54,0.54,0,0,0,0-.2h0l0.2-.06h0a1.86,1.86,0,0,0,0,.24c0,0.12.09,0.05,0.18-.11h0a0.45,0.45,0,0,1-.3.28h0ZM5.24,13c-0.13,0-.13.26,0,0.22S5.39,13,5.24,13h0Zm-0.49.51h0v0h0c-0.09,0-.15.43,0,0.29a0.9,0.9,0,0,0,.06-0.26h0ZM3.33,14h0v0h0c-0.09,0-.15.43,0,0.29A0.9,0.9,0,0,0,3.33,14Z" transform="translate(-0.68 -2.68)"/><path class="cls-15" d="M4.92,12l0,0a0.24,0.24,0,0,1,.07.22L5,12.7a0.25,0.25,0,0,1-.29.2l-1.84-.3a0.25,0.25,0,0,1-.2-0.29L2.7,11.9a0.24,0.24,0,0,1,.1-0.16l0.14-.07A0.13,0.13,0,0,0,3,11.56H3a0.94,0.94,0,1,1,1.85.3v0A0.13,0.13,0,0,0,4.92,12Z" transform="translate(-0.68 -2.68)"/><path class="cls-16" d="M4.43,11.08a0,0,0,0,1,.08.06l-0.15.18a0,0,0,0,1-.08-0.06l0.15-.18h0ZM4,11.27a0.45,0.45,0,0,0-.52.37v0a0.16,0.16,0,0,0,.09.16,1.52,1.52,0,0,0,.6.2A0.16,0.16,0,0,0,4.35,12,0.45,0.45,0,0,0,4,11.27H4Zm0-.34a0,0,0,1,1,.1,0l0,0.23a0,0,0,0,1-.1,0l0-.23H4ZM3.64,11a0,0,0,1,1,.09,0l0.08,0.22a0,0,0,1,1-.09,0L3.64,11h0Zm-0.32.26a0,0,0,1,1,.06-0.08l0.18,0.15a0,0,0,0,1-.06.08l-0.18-.15h0Zm-0.15.38a0,0,0,1,1,0-.1l0.23,0a0,0,0,0,1,0,.1l-0.23,0h0ZM4.76,11.8a0,0,0,0,1,0,.1l-0.23,0a0,0,0,0,1,0-.1l0.23,0h0ZM4.69,11.4a0,0,0,1,1,0,.09l-0.22.08a0,0,0,1,1,0-.09Z" transform="translate(-0.68 -2.68)"/><path class="cls-12" d="M4.9,12.13A0.36,0.36,0,0,0,4.49,12c-0.65.26-1.18-.57-1.64-0.24a0.16,0.16,0,0,0-.07.11l-0.07.42a0.17,0.17,0,0,0,.14.19l1.84,0.3a0.17,0.17,0,0,0,.19-0.14L5,12.28A0.16,0.16,0,0,0,4.9,12.13Z" transform="translate(-0.68 -2.68)"/><path class="cls-15" d="M2.8,12.16L3,12.48l0,0-0.26-.34,0,0L3.1,11.9l0,0h0l-0.32.23h0ZM3,12.47l0,0L3,12.33l0,0,0,0,0,0,0,0,0,0,0,0,0,0,0,0L3.14,12l0,0,0,0L3,12,3,12.06l-0.07.05-0.05,0,0,0,0,0,0,0.05,0.05,0.07L3,12.38l0,0.06,0,0H3ZM3.48,12l-0.16.26-0.11-.29h0l0.09,0.23,0.12-.2,0,0h0Zm-0.15.27h0L3.49,12l0,0-0.35.57,0,0,0.18-.3h0Zm0,0-0.17.28,0,0,0.18-.3-0.11-.3h0l0.11,0.28h0Zm0.29-.14v0.48h0l0-.18V12.14l0.05,0,0,0,0,0,0,0,0,0,0,0h0l0,0,0,0,0,0h0l0,0,0,0,0,0,0,0h0Zm-0.12.47h0l0.08-.49h0l0.21,0.16-0.16.09,0,0,0.2-.12L3.54,12v0.06l-0.08.49h0Zm0.43-.22H4l0.06,0.37H4L4,12.35h0l0,0.08,0,0.07,0,0.07h0V12.49l0-.07,0-.08h0Zm0-.2v0.12l0,0.07h0L4,12.3h0.1l0,0,0,0,0,0,0,0h0Zm0,0.14V12.19l0,0H4l0,0H3.94Zm-0.11.3h0l0.11-.46V12.05L4.2,12.28H4.1L4,12.33,4.1,12.67h0L4,12.3H4.13l-0.2-.16h0l-0.11.46h0Zm0.43-.45h0l0,0.52,0.16,0,0.14-.5h0l-0.15.52-0.22,0,0-.55h0Zm0,0.51,0.14,0v0l0-.05,0-.07,0-.08,0-.09,0-.08,0-.06v0h0l-0.06.21,0,0.08,0,0.07,0,0.06v0H4.3V12.13h0v0.51h0Zm0.57-.07-0.27.17,0,0,0.3-.19L4.8,12.48l0,0,0,0,0,0,0,0,0,0,0.05,0,0.06,0,0,0h0l0,0,0,0,0,0,0,0h0l0,0,0,0,0,0,0.08,0.11h0Zm-0.29.13,0,0,0,0,0,0,0.06,0,0.06,0,0,0h0l0,0,0,0,0,0-0.08-.11,0.2-.13h0l0,0-0.2.13,0,0,0.07,0.09,0,0,0,0,0,0,0,0,0,0,0,0,0,0,0,0Z" transform="translate(-0.68 -2.68)"/><rect class="cls-11" x="7.22" y="6.73" width="1.61" height="2.3" rx="0.29" ry="0.29" transform="translate(-2.08 11.36) rotate(-77.72)"/><rect class="cls-17" x="7.33" y="6.85" width="1.38" height="2.07" rx="0.17" ry="0.17" transform="translate(-2.08 11.36) rotate(-77.73)"/><path class="cls-15" d="M9,8.33L8.72,8.27,9,8.46l0,0.15a0.17,0.17,0,0,1-.09.11L8.19,8.2,8.1,8.61l-0.45-.1L7.74,8.1l-0.81.21a0.17,0.17,0,0,1,0-.14l0-.15,0.3-.08L7,7.89l0.1-.45L7.32,7.5,7.08,7.31l0-.15A0.17,0.17,0,0,1,7.2,7L7.85,7.57l0.09-.41,0.45,0.1L8.3,7.67l0.81-.21a0.17,0.17,0,0,1,0,.14l0,0.15-0.29.08L9.08,7.88Z" transform="translate(-0.68 -2.68)"/><polygon class="cls-13" points="8.32 5.56 7.44 5.37 7.32 5.91 7.05 5.85 7.17 5.31 6.29 5.12 6.35 4.85 7.23 5.04 7.34 4.5 7.62 4.56 7.5 5.1 8.38 5.29 8.32 5.56"/><path class="cls-13" d="M8.31,7.71L9.13,7.5a0.17,0.17,0,0,1,0,.1l-0.61.16-0.22,0h0ZM8.94,8.51l0,0.1h0L8.41,8.21l0.22,0L8.94,8.51h0Zm-2-.24a0.17,0.17,0,0,1,0-.1h0L7.51,8l0.22,0L6.9,8.27h0Zm0.19-1,0-.11,0.49,0.4-0.22,0Z" transform="translate(-0.68 -2.68)"/><path class="cls-5" d="M6.26,9.66h7.51a0.56,0.56,0,0,1,.56.56h0a0.56,0.56,0,0,1-.56.56H6.26a0.56,0.56,0,0,1-.56-0.56h0A0.56,0.56,0,0,1,6.26,9.66Z" transform="translate(-0.68 -2.68)"/><path class="cls-2" d="M13.76,10.9H6.26a0.68,0.68,0,0,1,0-1.35h7.51A0.68,0.68,0,0,1,13.76,10.9ZM6.26,9.77a0.45,0.45,0,0,0,0,.89h7.51a0.45,0.45,0,0,0,0-.89H6.26Z" transform="translate(-0.68 -2.68)"/><path class="cls-14" d="M6.27,9.89H6.39a0.09,0.09,0,0,1,.09.09V10.1a0.09,0.09,0,0,1-.09.09H6.27a0.09,0.09,0,0,1-.09-0.09V10a0.09,0.09,0,0,1,.09-0.09h0Zm0.53,0H6.91A0.09,0.09,0,0,1,7,10V10.1a0.09,0.09,0,0,1-.09.09H6.8a0.09,0.09,0,0,1-.09-0.09V10A0.09,0.09,0,0,1,6.8,9.89h0Zm0.53,0H7.44a0.09,0.09,0,0,1,.09.09V10.1a0.09,0.09,0,0,1-.09.09H7.32a0.09,0.09,0,0,1-.09-0.09V10a0.09,0.09,0,0,1,.09-0.09h0Zm0.53,0H8a0.09,0.09,0,0,1,.09.09V10.1A0.09,0.09,0,0,1,8,10.2H7.85a0.09,0.09,0,0,1-.09-0.09V10a0.09,0.09,0,0,1,.09-0.09h0Zm0.53,0H8.49a0.09,0.09,0,0,1,.09.09V10.1a0.09,0.09,0,0,1-.09.09H8.38a0.09,0.09,0,0,1-.09-0.09V10a0.09,0.09,0,0,1,.09-0.09h0Zm0.53,0H9a0.09,0.09,0,0,1,.09.09V10.1A0.09,0.09,0,0,1,9,10.2H8.9a0.09,0.09,0,0,1-.09-0.09V10A0.09,0.09,0,0,1,8.9,9.89h0Zm0.53,0H9.54a0.09,0.09,0,0,1,.09.09V10.1a0.09,0.09,0,0,1-.09.09H9.43a0.09,0.09,0,0,1-.09-0.09V10a0.09,0.09,0,0,1,.09-0.09h0Zm0.53,0h0.11a0.09,0.09,0,0,1,.09.09V10.1a0.09,0.09,0,0,1-.09.09H10a0.09,0.09,0,0,1-.09-0.09V10A0.09,0.09,0,0,1,10,9.89h0Zm0.53,0h0.11a0.09,0.09,0,0,1,.09.09V10.1a0.09,0.09,0,0,1-.09.09H10.48a0.09,0.09,0,0,1-.09-0.09V10a0.09,0.09,0,0,1,.09-0.09h0Zm0.53,0h0.11a0.09,0.09,0,0,1,.09.09V10.1a0.09,0.09,0,0,1-.09.09H11a0.09,0.09,0,0,1-.09-0.09V10A0.09,0.09,0,0,1,11,9.89h0Zm0.53,0h0.11a0.09,0.09,0,0,1,.09.09V10.1a0.09,0.09,0,0,1-.09.09H11.53a0.09,0.09,0,0,1-.09-0.09V10a0.09,0.09,0,0,1,.09-0.09h0Zm0.53,0h0.11a0.09,0.09,0,0,1,.09.09V10.1a0.09,0.09,0,0,1-.09.09H12.06A0.09,0.09,0,0,1,12,10.1V10a0.09,0.09,0,0,1,.09-0.09h0Zm0.53,0H12.7a0.09,0.09,0,0,1,.09.09V10.1a0.09,0.09,0,0,1-.09.09H12.58a0.09,0.09,0,0,1-.09-0.09V10a0.09,0.09,0,0,1,.09-0.09h0Zm0.53,0h0.11a0.09,0.09,0,0,1,.09.09V10.1a0.09,0.09,0,0,1-.09.09H13.11A0.09,0.09,0,0,1,13,10.1V10a0.09,0.09,0,0,1,.09-0.09h0Zm0.53,0h0.11a0.09,0.09,0,0,1,.09.09V10.1a0.09,0.09,0,0,1-.09.09H13.63a0.09,0.09,0,0,1-.09-0.09V10A0.09,0.09,0,0,1,13.63,9.89Z" transform="translate(-0.68 -2.68)"/><path class="cls-14" d="M6.54,10.24H6.65a0.09,0.09,0,0,1,.09.09v0.11a0.09,0.09,0,0,1-.09.09H6.54a0.09,0.09,0,0,1-.09-0.09V10.34a0.09,0.09,0,0,1,.09-0.09h0Zm0.53,0H7.18a0.09,0.09,0,0,1,.09.09v0.11a0.09,0.09,0,0,1-.09.09H7.06A0.09,0.09,0,0,1,7,10.45V10.34a0.09,0.09,0,0,1,.09-0.09h0Zm0.53,0H7.7a0.09,0.09,0,0,1,.09.09v0.11a0.09,0.09,0,0,1-.09.09H7.59a0.09,0.09,0,0,1-.09-0.09V10.34a0.09,0.09,0,0,1,.09-0.09h0Zm0.53,0H8.23a0.09,0.09,0,0,1,.09.09v0.11a0.09,0.09,0,0,1-.09.09H8.11A0.09,0.09,0,0,1,8,10.45V10.34a0.09,0.09,0,0,1,.09-0.09h0Zm0.53,0H8.75a0.09,0.09,0,0,1,.09.09v0.11a0.09,0.09,0,0,1-.09.09H8.64a0.09,0.09,0,0,1-.09-0.09V10.34a0.09,0.09,0,0,1,.09-0.09h0Zm0.53,0H9.28a0.09,0.09,0,0,1,.09.09v0.11a0.09,0.09,0,0,1-.09.09H9.16a0.09,0.09,0,0,1-.09-0.09V10.34a0.09,0.09,0,0,1,.09-0.09h0Zm0.53,0H9.8a0.09,0.09,0,0,1,.09.09v0.11a0.09,0.09,0,0,1-.09.09H9.69a0.09,0.09,0,0,1-.09-0.09V10.34a0.09,0.09,0,0,1,.09-0.09h0Zm0.53,0h0.11a0.09,0.09,0,0,1,.09.09v0.11a0.09,0.09,0,0,1-.09.09H10.22a0.09,0.09,0,0,1-.09-0.09V10.34a0.09,0.09,0,0,1,.09-0.09h0Zm0.53,0h0.11a0.09,0.09,0,0,1,.09.09v0.11a0.09,0.09,0,0,1-.09.09H10.74a0.09,0.09,0,0,1-.09-0.09V10.34a0.09,0.09,0,0,1,.09-0.09h0Zm0.53,0h0.11a0.09,0.09,0,0,1,.09.09v0.11a0.09,0.09,0,0,1-.09.09H11.27a0.09,0.09,0,0,1-.09-0.09V10.34a0.09,0.09,0,0,1,.09-0.09h0Zm0.53,0h0.11a0.09,0.09,0,0,1,.09.09v0.11a0.09,0.09,0,0,1-.09.09H11.79a0.09,0.09,0,0,1-.09-0.09V10.34a0.09,0.09,0,0,1,.09-0.09h0Zm0.53,0h0.11a0.09,0.09,0,0,1,.09.09v0.11a0.09,0.09,0,0,1-.09.09H12.32a0.09,0.09,0,0,1-.09-0.09V10.34a0.09,0.09,0,0,1,.09-0.09h0Zm0.53,0H13a0.09,0.09,0,0,1,.09.09v0.11a0.09,0.09,0,0,1-.09.09H12.84a0.09,0.09,0,0,1-.09-0.09V10.34a0.09,0.09,0,0,1,.09-0.09h0Zm0.53,0h0.11a0.09,0.09,0,0,1,.09.09v0.11a0.09,0.09,0,0,1-.09.09H13.37a0.09,0.09,0,0,1-.09-0.09V10.34A0.09,0.09,0,0,1,13.37,10.24Z" transform="translate(-0.68 -2.68)"/><rect class="cls-18" x="12.24" y="7.23" width="1" height="1.15" rx="0.29" ry="0.29"/><path class="cls-2" d="M13.65,11.15H13.21a0.37,0.37,0,0,1-.37-0.37V10.19a0.37,0.37,0,0,1,.37-0.37h0.43a0.37,0.37,0,0,1,.37.37v0.58A0.37,0.37,0,0,1,13.65,11.15ZM13.21,10a0.2,0.2,0,0,0-.2.2v0.58a0.2,0.2,0,0,0,.2.2h0.43a0.2,0.2,0,0,0,.2-0.2V10.19a0.2,0.2,0,0,0-.2-0.2H13.21Z" transform="translate(-0.68 -2.68)"/><path class="cls-1" d="M13.07,10.45h0.71a0.27,0.27,0,0,1,.27.27V12.1a0.27,0.27,0,0,1-.27.27H13.07a0.27,0.27,0,0,1-.27-0.27V10.71a0.27,0.27,0,0,1,.27-0.27h0Zm0.16,1.13a0.15,0.15,0,0,0-.15.15v0.23a0.15,0.15,0,0,0,.15.15h0.4a0.15,0.15,0,0,0,.15-0.15V11.72a0.15,0.15,0,0,0-.15-0.15h-0.4Z" transform="translate(-0.68 -2.68)"/><path class="cls-2" d="M13.78,12.46H13.07a0.36,0.36,0,0,1-.36-0.36V10.71a0.36,0.36,0,0,1,.36-0.36h0.71a0.36,0.36,0,0,1,.36.36V12.1A0.36,0.36,0,0,1,13.78,12.46Zm-0.71-1.92a0.18,0.18,0,0,0-.18.18V12.1a0.18,0.18,0,0,0,.18.18h0.71A0.18,0.18,0,0,0,14,12.1V10.71a0.18,0.18,0,0,0-.18-0.18H13.07Zm0.55,1.65h-0.4A0.24,0.24,0,0,1,13,11.95V11.72a0.24,0.24,0,0,1,.24-0.24h0.4a0.24,0.24,0,0,1,.24.24v0.23A0.24,0.24,0,0,1,13.63,12.19Zm-0.4-.53a0.07,0.07,0,0,0-.07.07v0.23a0.07,0.07,0,0,0,.07.07h0.4a0.07,0.07,0,0,0,.07-0.07V11.72a0.07,0.07,0,0,0-.07-0.07h-0.4Z" transform="translate(-0.68 -2.68)"/><rect class="cls-18" x="12.55" y="7.45" width="0.39" height="0.71" rx="0.17" ry="0.17"/><path class="cls-2" d="M13.45,10.93h0a0.26,0.26,0,0,1-.26-0.26V10.3A0.26,0.26,0,0,1,13.41,10h0a0.26,0.26,0,0,1,.26.26v0.36A0.26,0.26,0,0,1,13.45,10.93Zm0-.71a0.09,0.09,0,0,0-.09.09v0.36a0.09,0.09,0,0,0,.09.09h0a0.09,0.09,0,0,0,.09-0.09V10.3a0.09,0.09,0,0,0-.09-0.09h0Z" transform="translate(-0.68 -2.68)"/><circle class="cls-11" cx="5.45" cy="7.08" r="1.06" transform="matrix(0.5, -0.87, 0.87, 0.5, -4.09, 5.58)"/><path class="cls-14" d="M6.41,7.26L4.83,6.34A1,1,0,0,1,6.41,7.26Z" transform="translate(-0.68 -2.68)"/><path class="cls-13" d="M4.5,6.9L6.08,7.82a1,1,0,0,0,.32-0.56L4.83,6.34A1,1,0,0,0,4.5,6.9Z" transform="translate(-0.68 -2.68)"/><path class="cls-1" d="M4.5,6.9L6.08,7.82A1,1,0,0,1,4.5,6.9Z" transform="translate(-0.68 -2.68)"/></svg>