<svg id="Layer_1" data-name="Layer 1" xmlns="http://www.w3.org/2000/svg" viewBox="0 0 31.17 30.41"><defs><style>.cls-1{fill:#603913;}.cls-2{fill:#fed216;}</style></defs><title>two-dog</title><path class="cls-1" d="M31,7.56a2.76,2.76,0,0,0-.51-0.22,2.3,2.3,0,0,1-1-.86,6.66,6.66,0,0,0-.56-0.88,2.25,2.25,0,0,0-.67-0.46,4.94,4.94,0,0,0-1.89-.56,2.84,2.84,0,0,0-1.88.52,4.2,4.2,0,0,0-.89,1L21.53,7.45a10.53,10.53,0,0,0-1.1.8,9.07,9.07,0,0,0-.92,1c-0.88.09-1.75,0.41-2.63,0.49a9.51,9.51,0,0,1-3.25-.42,12.51,12.51,0,0,0-3.24-.55,4.62,4.62,0,0,0-1.63.31,3.84,3.84,0,0,1-.94-1.69c-0.33-1.27,0-2.68-.51-3.89A5.54,5.54,0,0,0,7,2.9a5.34,5.34,0,0,0-.4-0.66,2.75,2.75,0,0,0-1.33-1,6.05,6.05,0,0,1,1,2.67,25.85,25.85,0,0,1,0,2.77,4.91,4.91,0,0,0,.06.8A6,6,0,0,0,6.89,9a2.94,2.94,0,0,0,.44.73L7.47,9.92,7.4,10a2.17,2.17,0,0,0-.35.56l0,0.08a6.73,6.73,0,0,0-.87,1.66,23.67,23.67,0,0,0-.77,2.9,4.13,4.13,0,0,1-.33,1,1.35,1.35,0,0,1-.74.68,6.67,6.67,0,0,0-1.08.18,0.47,0.47,0,0,0-.2.18,0.75,0.75,0,0,0-.07.32Q2.9,18.7,2.78,19.84a4,4,0,0,1-.17.93c-0.09.24-.22,0.47-0.32,0.7A3.49,3.49,0,0,0,2,22.94a0.93,0.93,0,0,0,.09.45,0.33,0.33,0,0,0,.37.18,0.51,0.51,0,0,0,.18-0.12,4.3,4.3,0,0,0,.82-0.93A6.51,6.51,0,0,0,4,20.74a2.41,2.41,0,0,1,.92-1.54,8.36,8.36,0,0,1,1.64-.41A3.14,3.14,0,0,0,8,17.59a15.5,15.5,0,0,1,1-1.29L9,16.41a2.72,2.72,0,0,1,.12,2.22,2.81,2.81,0,0,0-.47,1.17,1.63,1.63,0,0,0,.39.87,19.12,19.12,0,0,0,2.58,3.08,1.34,1.34,0,0,0,.61.37,3,3,0,0,0,.62,0,7,7,0,0,0,.83,0,0.57,0.57,0,0,0,.53-0.56,0.69,0.69,0,0,0-.26-0.41A0.6,0.6,0,0,0,13.66,23c-0.14,0-.28,0-0.41,0a0.69,0.69,0,0,1-.29-0.18,6.22,6.22,0,0,1-1.3-1.39,2.34,2.34,0,0,1-.32-1.87,3.67,3.67,0,0,1,.49-0.9,8,8,0,0,0,.9-1.72,4.51,4.51,0,0,0,.18-0.7,13.74,13.74,0,0,0,3.23,1.48c0.21,0.05.42,0.09,0.64,0.12l0,0.12a2.1,2.1,0,0,0,.09,1.14A11.45,11.45,0,0,1,17,21.65a1.89,1.89,0,0,1-.09.74,7.33,7.33,0,0,0-.66,1,0.35,0.35,0,0,1-.05.15,0.32,0.32,0,0,1-.13.08,0.91,0.91,0,0,0-.47.72,2.79,2.79,0,0,0,.06.91,0.9,0.9,0,0,0,.86,0,1.22,1.22,0,0,0,.3-0.32,10.44,10.44,0,0,1,1-1.27,4.44,4.44,0,0,0,.57-0.61,4.58,4.58,0,0,0,.49-1.73c0.08-.4.19-0.79,0.3-1.19a7.8,7.8,0,0,1,.54-1.47l0.49,0.37a25.4,25.4,0,0,1,2.66,2.38,1.9,1.9,0,0,1,.4.49c0.22,0.45.09,1,.33,1.47A2.84,2.84,0,0,1,24,24a3.25,3.25,0,0,1,0,.48,1.05,1.05,0,0,0,.43.72,1.52,1.52,0,0,0,.77.27,0.55,0.55,0,0,0,.37-0.07,0.54,0.54,0,0,0,.15-0.57,4.11,4.11,0,0,0-.24-0.57,15.91,15.91,0,0,1-.3-2.1,6.43,6.43,0,0,0-1.14-1.89,10.25,10.25,0,0,1-1.44-4,8.45,8.45,0,0,0,.66-1.49c0-.11.07-0.22,0.1-0.33a5.26,5.26,0,0,0,.84-1.1c0.38-.66.62-1.4,1-2.05A5.13,5.13,0,0,1,27,9.51l0.14-.09h0.13c0.68,0,1.28.55,2,.51a2.39,2.39,0,0,0,1.45-1L31,8.51A0.81,0.81,0,0,0,31.3,8,0.57,0.57,0,0,0,31,7.56Z" transform="translate(-0.43 -1.27)"/><path class="cls-2" d="M31.31,13.22A3,3,0,0,0,30.77,13a2.43,2.43,0,0,1-1.1-.89,6.83,6.83,0,0,0-.6-0.91,2.4,2.4,0,0,0-.71-0.47,5.38,5.38,0,0,0-2-.58,3.1,3.1,0,0,0-2,.53,4.38,4.38,0,0,0-.95,1l-2.2,1.42a11.19,11.19,0,0,0-1.17.83,9.48,9.48,0,0,0-1,1c-0.94.09-1.86,0.42-2.8,0.51A10.43,10.43,0,0,1,12.8,15a13.7,13.7,0,0,0-3.45-.57,5.06,5.06,0,0,0-1.73.32,3.92,3.92,0,0,1-1-1.74c-0.35-1.3,0-2.76-.54-4a5.63,5.63,0,0,0-.3-0.6,5.46,5.46,0,0,0-.43-0.68,2.92,2.92,0,0,0-1.42-1A6.11,6.11,0,0,1,5,9.49a25.76,25.76,0,0,1,0,2.86,4.9,4.9,0,0,0,.06.82,6.06,6.06,0,0,0,.59,1.58,3,3,0,0,0,.47.76l0.16,0.14-0.08.08a2.23,2.23,0,0,0-.38.57l0,0.08a6.85,6.85,0,0,0-.93,1.71,23.75,23.75,0,0,0-.82,3,4.16,4.16,0,0,1-.35,1,1.42,1.42,0,0,1-.78.7A7.31,7.31,0,0,0,1.75,23a0.5,0.5,0,0,0-.22.19,0.75,0.75,0,0,0-.07.33q-0.07,1.17-.19,2.34a4,4,0,0,1-.18,1C1,27.06.86,27.29,0.75,27.53A3.49,3.49,0,0,0,.43,29a0.93,0.93,0,0,0,.1.46,0.36,0.36,0,0,0,.39.18,0.55,0.55,0,0,0,.19-0.13,4.47,4.47,0,0,0,.88-1,6.55,6.55,0,0,0,.58-1.83,2.46,2.46,0,0,1,1-1.59,9.13,9.13,0,0,1,1.74-.42,3.31,3.31,0,0,0,1.48-1.23,16,16,0,0,1,1-1.33l0.06,0.12A2.72,2.72,0,0,1,8,24.62a2.84,2.84,0,0,0-.5,1.2,1.66,1.66,0,0,0,.42.9,19.85,19.85,0,0,0,2.74,3.17,1.44,1.44,0,0,0,.64.38,3.34,3.34,0,0,0,.66,0,7.66,7.66,0,0,0,.88,0,0.59,0.59,0,0,0,.56-0.58,0.71,0.71,0,0,0-.28-0.42,0.64,0.64,0,0,0-.27-0.15c-0.14,0-.3,0-0.44,0A0.74,0.74,0,0,1,12.08,29a6.5,6.5,0,0,1-1.38-1.43,2.35,2.35,0,0,1-.34-1.93,3.74,3.74,0,0,1,.52-0.93,8.11,8.11,0,0,0,1-1.78A4.53,4.53,0,0,0,12,22.18a14.85,14.85,0,0,0,3.43,1.52c0.22,0.05.45,0.09,0.68,0.12l-0.05.12a2.1,2.1,0,0,0,.1,1.18,11.42,11.42,0,0,1,.23,2.59,1.88,1.88,0,0,1-.1.76,7.51,7.51,0,0,0-.7,1.07,0.36,0.36,0,0,1-.05.15,0.34,0.34,0,0,1-.14.08,0.94,0.94,0,0,0-.5.74,2.79,2.79,0,0,0,.07.93,1,1,0,0,0,.92,0,1.27,1.27,0,0,0,.32-0.33,10.82,10.82,0,0,1,1.09-1.3,4.64,4.64,0,0,0,.6-0.63,4.6,4.6,0,0,0,.53-1.79c0.08-.41.2-0.82,0.32-1.22a7.87,7.87,0,0,1,.57-1.51l0.52,0.38a26.74,26.74,0,0,1,2.82,2.45,2,2,0,0,1,.42.5c0.24,0.46.1,1.06,0.36,1.51a2.91,2.91,0,0,1,.4.63,3.24,3.24,0,0,1,0,.49,1.08,1.08,0,0,0,.46.74,1.65,1.65,0,0,0,.82.28,0.6,0.6,0,0,0,.39-0.07A0.54,0.54,0,0,0,25.73,31a4.16,4.16,0,0,0-.26-0.59,15.89,15.89,0,0,1-.32-2.17,6.58,6.58,0,0,0-1.22-1.95,10.34,10.34,0,0,1-1.54-4.15,8.56,8.56,0,0,0,.7-1.54c0-.11.07-0.23,0.11-0.34a5.44,5.44,0,0,0,.9-1.13c0.4-.68.66-1.44,1.06-2.11A5.36,5.36,0,0,1,27,15.22l0.15-.09h0.14c0.72,0,1.36.57,2.08,0.52a2.55,2.55,0,0,0,1.54-1l0.43-.45a0.82,0.82,0,0,0,.28-0.49A0.58,0.58,0,0,0,31.31,13.22Z" transform="translate(-0.43 -1.27)"/></svg>