<?xml version="1.0" encoding="utf-8"?>
<!-- Generator: Adobe Illustrator 18.1.1, SVG Export Plug-In . SVG Version: 6.00 Build 0)  -->
<!DOCTYPE svg PUBLIC "-//W3C//DTD SVG 1.1//EN" "http://www.w3.org/Graphics/SVG/1.1/DTD/svg11.dtd">
<svg version="1.1" id="Layer_1" xmlns="http://www.w3.org/2000/svg" xmlns:xlink="http://www.w3.org/1999/xlink" x="0px" y="0px"
	 viewBox="0 0 90 90" enable-background="new 0 0 90 90" xml:space="preserve">
<rect x="2.2" y="2.7" fill="#E37C8D" width="84.9" height="84.9"/>
<polygon fill="#A85B69" points="62.2,11.6 54.5,22.6 37.1,20.1 27.1,31.6 39.3,44.3 36.1,48.8 27.1,78.2 36.1,87.6 87.1,87.6 
	87.1,37.6 "/>
<polygon fill="#E7D1C0" points="27.2,11.5 27.2,11.6 27.1,11.6 27.1,31.7 38.8,31.7 38.8,23.2 50.4,23.2 50.4,40.3 27.1,40.3 
	27.1,78.2 62.2,78.2 62.2,66.5 38.8,66.5 38.8,52.1 62.2,52.1 62.2,11.6 50.4,11.6 "/>
</svg>
